<mxfile host="65bd71144e">
    <diagram id="aI_mbVb08yYnmKS6Ez38" name="Page-1">
        <mxGraphModel dx="1722" dy="1162" grid="1" gridSize="10" guides="1" tooltips="1" connect="1" arrows="1" fold="1" page="1" pageScale="1" pageWidth="850" pageHeight="1100" math="0" shadow="0">
            <root>
                <mxCell id="0"/>
                <mxCell id="1" parent="0"/>
                <mxCell id="2" value="" style="shape=cylinder3;whiteSpace=wrap;html=1;boundedLbl=1;backgroundOutline=1;size=10;" vertex="1" parent="1">
                    <mxGeometry x="40" y="40" width="200" height="490" as="geometry"/>
                </mxCell>
                <mxCell id="34" value="&lt;font style=&quot;font-size: 16px;&quot;&gt;個人領域&lt;/font&gt;" style="rounded=0;whiteSpace=wrap;html=1;fillColor=#E6E6E6;verticalAlign=top;" vertex="1" parent="1">
                    <mxGeometry x="50" y="360" width="180" height="160" as="geometry"/>
                </mxCell>
                <mxCell id="4" value="" style="shape=table;startSize=30;container=1;collapsible=0;childLayout=tableLayout;fixedRows=1;rowLines=0;fontStyle=1;" vertex="1" parent="1">
                    <mxGeometry x="60" y="80" width="160" height="120" as="geometry"/>
                </mxCell>
                <mxCell id="5" value="" style="shape=tableRow;horizontal=0;startSize=0;swimlaneHead=0;swimlaneBody=0;top=0;left=0;bottom=0;right=0;collapsible=0;dropTarget=0;fillColor=none;points=[[0,0.5],[1,0.5]];portConstraint=eastwest;" vertex="1" parent="4">
                    <mxGeometry y="30" width="160" height="30" as="geometry"/>
                </mxCell>
                <mxCell id="6" value="" style="shape=partialRectangle;html=1;whiteSpace=wrap;connectable=0;fillColor=none;top=0;left=0;bottom=0;right=0;overflow=hidden;pointerEvents=1;" vertex="1" parent="5">
                    <mxGeometry width="36" height="30" as="geometry">
                        <mxRectangle width="36" height="30" as="alternateBounds"/>
                    </mxGeometry>
                </mxCell>
                <mxCell id="7" value="" style="shape=partialRectangle;html=1;whiteSpace=wrap;connectable=0;fillColor=none;top=0;left=0;bottom=0;right=0;align=left;spacingLeft=6;overflow=hidden;" vertex="1" parent="5">
                    <mxGeometry x="36" width="124" height="30" as="geometry">
                        <mxRectangle width="124" height="30" as="alternateBounds"/>
                    </mxGeometry>
                </mxCell>
                <mxCell id="8" value="" style="shape=tableRow;horizontal=0;startSize=0;swimlaneHead=0;swimlaneBody=0;top=0;left=0;bottom=0;right=0;collapsible=0;dropTarget=0;fillColor=none;points=[[0,0.5],[1,0.5]];portConstraint=eastwest;" vertex="1" parent="4">
                    <mxGeometry y="60" width="160" height="30" as="geometry"/>
                </mxCell>
                <mxCell id="9" value="" style="shape=partialRectangle;html=1;whiteSpace=wrap;connectable=0;fillColor=none;top=0;left=0;bottom=0;right=0;overflow=hidden;" vertex="1" parent="8">
                    <mxGeometry width="36" height="30" as="geometry">
                        <mxRectangle width="36" height="30" as="alternateBounds"/>
                    </mxGeometry>
                </mxCell>
                <mxCell id="10" value="" style="shape=partialRectangle;html=1;whiteSpace=wrap;connectable=0;fillColor=none;top=0;left=0;bottom=0;right=0;align=left;spacingLeft=6;overflow=hidden;" vertex="1" parent="8">
                    <mxGeometry x="36" width="124" height="30" as="geometry">
                        <mxRectangle width="124" height="30" as="alternateBounds"/>
                    </mxGeometry>
                </mxCell>
                <mxCell id="11" value="" style="shape=tableRow;horizontal=0;startSize=0;swimlaneHead=0;swimlaneBody=0;top=0;left=0;bottom=0;right=0;collapsible=0;dropTarget=0;fillColor=none;points=[[0,0.5],[1,0.5]];portConstraint=eastwest;" vertex="1" parent="4">
                    <mxGeometry y="90" width="160" height="30" as="geometry"/>
                </mxCell>
                <mxCell id="12" value="" style="shape=partialRectangle;html=1;whiteSpace=wrap;connectable=0;fillColor=none;top=0;left=0;bottom=0;right=0;overflow=hidden;" vertex="1" parent="11">
                    <mxGeometry width="36" height="30" as="geometry">
                        <mxRectangle width="36" height="30" as="alternateBounds"/>
                    </mxGeometry>
                </mxCell>
                <mxCell id="13" value="" style="shape=partialRectangle;html=1;whiteSpace=wrap;connectable=0;fillColor=none;top=0;left=0;bottom=0;right=0;align=left;spacingLeft=6;overflow=hidden;" vertex="1" parent="11">
                    <mxGeometry x="36" width="124" height="30" as="geometry">
                        <mxRectangle width="124" height="30" as="alternateBounds"/>
                    </mxGeometry>
                </mxCell>
                <mxCell id="14" value="" style="shape=table;startSize=30;container=1;collapsible=0;childLayout=tableLayout;fixedRows=1;rowLines=0;fontStyle=1;" vertex="1" parent="1">
                    <mxGeometry x="60" y="225" width="160" height="120" as="geometry"/>
                </mxCell>
                <mxCell id="15" value="" style="shape=tableRow;horizontal=0;startSize=0;swimlaneHead=0;swimlaneBody=0;top=0;left=0;bottom=0;right=0;collapsible=0;dropTarget=0;fillColor=none;points=[[0,0.5],[1,0.5]];portConstraint=eastwest;" vertex="1" parent="14">
                    <mxGeometry y="30" width="160" height="30" as="geometry"/>
                </mxCell>
                <mxCell id="16" value="" style="shape=partialRectangle;html=1;whiteSpace=wrap;connectable=0;fillColor=none;top=0;left=0;bottom=0;right=0;overflow=hidden;pointerEvents=1;" vertex="1" parent="15">
                    <mxGeometry width="36" height="30" as="geometry">
                        <mxRectangle width="36" height="30" as="alternateBounds"/>
                    </mxGeometry>
                </mxCell>
                <mxCell id="17" value="" style="shape=partialRectangle;html=1;whiteSpace=wrap;connectable=0;fillColor=none;top=0;left=0;bottom=0;right=0;align=left;spacingLeft=6;overflow=hidden;" vertex="1" parent="15">
                    <mxGeometry x="36" width="124" height="30" as="geometry">
                        <mxRectangle width="124" height="30" as="alternateBounds"/>
                    </mxGeometry>
                </mxCell>
                <mxCell id="18" value="" style="shape=tableRow;horizontal=0;startSize=0;swimlaneHead=0;swimlaneBody=0;top=0;left=0;bottom=0;right=0;collapsible=0;dropTarget=0;fillColor=none;points=[[0,0.5],[1,0.5]];portConstraint=eastwest;" vertex="1" parent="14">
                    <mxGeometry y="60" width="160" height="30" as="geometry"/>
                </mxCell>
                <mxCell id="19" value="" style="shape=partialRectangle;html=1;whiteSpace=wrap;connectable=0;fillColor=none;top=0;left=0;bottom=0;right=0;overflow=hidden;" vertex="1" parent="18">
                    <mxGeometry width="36" height="30" as="geometry">
                        <mxRectangle width="36" height="30" as="alternateBounds"/>
                    </mxGeometry>
                </mxCell>
                <mxCell id="20" value="" style="shape=partialRectangle;html=1;whiteSpace=wrap;connectable=0;fillColor=none;top=0;left=0;bottom=0;right=0;align=left;spacingLeft=6;overflow=hidden;" vertex="1" parent="18">
                    <mxGeometry x="36" width="124" height="30" as="geometry">
                        <mxRectangle width="124" height="30" as="alternateBounds"/>
                    </mxGeometry>
                </mxCell>
                <mxCell id="21" value="" style="shape=tableRow;horizontal=0;startSize=0;swimlaneHead=0;swimlaneBody=0;top=0;left=0;bottom=0;right=0;collapsible=0;dropTarget=0;fillColor=none;points=[[0,0.5],[1,0.5]];portConstraint=eastwest;" vertex="1" parent="14">
                    <mxGeometry y="90" width="160" height="30" as="geometry"/>
                </mxCell>
                <mxCell id="22" value="" style="shape=partialRectangle;html=1;whiteSpace=wrap;connectable=0;fillColor=none;top=0;left=0;bottom=0;right=0;overflow=hidden;" vertex="1" parent="21">
                    <mxGeometry width="36" height="30" as="geometry">
                        <mxRectangle width="36" height="30" as="alternateBounds"/>
                    </mxGeometry>
                </mxCell>
                <mxCell id="23" value="" style="shape=partialRectangle;html=1;whiteSpace=wrap;connectable=0;fillColor=none;top=0;left=0;bottom=0;right=0;align=left;spacingLeft=6;overflow=hidden;" vertex="1" parent="21">
                    <mxGeometry x="36" width="124" height="30" as="geometry">
                        <mxRectangle width="124" height="30" as="alternateBounds"/>
                    </mxGeometry>
                </mxCell>
                <mxCell id="24" value="" style="shape=table;startSize=30;container=1;collapsible=0;childLayout=tableLayout;fixedRows=1;rowLines=0;fontStyle=1;" vertex="1" parent="1">
                    <mxGeometry x="60" y="390" width="160" height="120" as="geometry"/>
                </mxCell>
                <mxCell id="25" value="" style="shape=tableRow;horizontal=0;startSize=0;swimlaneHead=0;swimlaneBody=0;top=0;left=0;bottom=0;right=0;collapsible=0;dropTarget=0;fillColor=none;points=[[0,0.5],[1,0.5]];portConstraint=eastwest;" vertex="1" parent="24">
                    <mxGeometry y="30" width="160" height="30" as="geometry"/>
                </mxCell>
                <mxCell id="26" value="" style="shape=partialRectangle;html=1;whiteSpace=wrap;connectable=0;fillColor=default;top=0;left=0;bottom=0;right=0;overflow=hidden;pointerEvents=1;gradientColor=none;gradientDirection=north;" vertex="1" parent="25">
                    <mxGeometry width="36" height="30" as="geometry">
                        <mxRectangle width="36" height="30" as="alternateBounds"/>
                    </mxGeometry>
                </mxCell>
                <mxCell id="27" value="" style="shape=partialRectangle;html=1;whiteSpace=wrap;connectable=0;fillColor=default;top=0;left=0;bottom=0;right=0;align=left;spacingLeft=6;overflow=hidden;" vertex="1" parent="25">
                    <mxGeometry x="36" width="124" height="30" as="geometry">
                        <mxRectangle width="124" height="30" as="alternateBounds"/>
                    </mxGeometry>
                </mxCell>
                <mxCell id="28" value="" style="shape=tableRow;horizontal=0;startSize=0;swimlaneHead=0;swimlaneBody=0;top=0;left=0;bottom=0;right=0;collapsible=0;dropTarget=0;fillColor=none;points=[[0,0.5],[1,0.5]];portConstraint=eastwest;" vertex="1" parent="24">
                    <mxGeometry y="60" width="160" height="30" as="geometry"/>
                </mxCell>
                <mxCell id="29" value="" style="shape=partialRectangle;html=1;whiteSpace=wrap;connectable=0;fillColor=default;top=0;left=0;bottom=0;right=0;overflow=hidden;gradientColor=none;gradientDirection=north;" vertex="1" parent="28">
                    <mxGeometry width="36" height="30" as="geometry">
                        <mxRectangle width="36" height="30" as="alternateBounds"/>
                    </mxGeometry>
                </mxCell>
                <mxCell id="30" value="" style="shape=partialRectangle;html=1;whiteSpace=wrap;connectable=0;fillColor=default;top=0;left=0;bottom=0;right=0;align=left;spacingLeft=6;overflow=hidden;" vertex="1" parent="28">
                    <mxGeometry x="36" width="124" height="30" as="geometry">
                        <mxRectangle width="124" height="30" as="alternateBounds"/>
                    </mxGeometry>
                </mxCell>
                <mxCell id="31" value="" style="shape=tableRow;horizontal=0;startSize=0;swimlaneHead=0;swimlaneBody=0;top=0;left=0;bottom=0;right=0;collapsible=0;dropTarget=0;fillColor=none;points=[[0,0.5],[1,0.5]];portConstraint=eastwest;" vertex="1" parent="24">
                    <mxGeometry y="90" width="160" height="30" as="geometry"/>
                </mxCell>
                <mxCell id="32" value="" style="shape=partialRectangle;html=1;whiteSpace=wrap;connectable=0;fillColor=default;top=0;left=0;bottom=0;right=0;overflow=hidden;gradientColor=none;gradientDirection=north;" vertex="1" parent="31">
                    <mxGeometry width="36" height="30" as="geometry">
                        <mxRectangle width="36" height="30" as="alternateBounds"/>
                    </mxGeometry>
                </mxCell>
                <mxCell id="33" value="" style="shape=partialRectangle;html=1;whiteSpace=wrap;connectable=0;fillColor=default;top=0;left=0;bottom=0;right=0;align=left;spacingLeft=6;overflow=hidden;" vertex="1" parent="31">
                    <mxGeometry x="36" width="124" height="30" as="geometry">
                        <mxRectangle width="124" height="30" as="alternateBounds"/>
                    </mxGeometry>
                </mxCell>
                <mxCell id="35" value="&lt;font style=&quot;font-size: 20px;&quot;&gt;DWH/データマート&lt;/font&gt;" style="text;html=1;strokeColor=none;fillColor=none;align=center;verticalAlign=middle;whiteSpace=wrap;rounded=0;" vertex="1" parent="1">
                    <mxGeometry x="40" y="540" width="190" height="30" as="geometry"/>
                </mxCell>
                <mxCell id="36" value="アドホック&lt;br&gt;分析用&lt;br&gt;Webサイト" style="rounded=0;whiteSpace=wrap;html=1;fontSize=16;fillColor=default;gradientColor=none;gradientDirection=north;" vertex="1" parent="1">
                    <mxGeometry x="320" y="40" width="120" height="490" as="geometry"/>
                </mxCell>
                <mxCell id="37" value="ブラウザ" style="rounded=0;whiteSpace=wrap;html=1;fontSize=16;fillColor=default;gradientColor=none;gradientDirection=north;verticalAlign=top;" vertex="1" parent="1">
                    <mxGeometry x="520" y="40" width="120" height="490" as="geometry"/>
                </mxCell>
                <mxCell id="41" style="edgeStyle=none;html=1;exitX=0;exitY=0.25;exitDx=0;exitDy=0;entryX=1;entryY=0.143;entryDx=0;entryDy=0;entryPerimeter=0;fontSize=16;" edge="1" parent="1" source="38" target="36">
                    <mxGeometry relative="1" as="geometry"/>
                </mxCell>
                <mxCell id="42" style="edgeStyle=none;html=1;exitX=0;exitY=0.75;exitDx=0;exitDy=0;entryX=1;entryY=0.265;entryDx=0;entryDy=0;entryPerimeter=0;fontSize=16;startArrow=classic;startFill=1;endArrow=none;endFill=0;" edge="1" parent="1" source="38" target="36">
                    <mxGeometry relative="1" as="geometry"/>
                </mxCell>
                <mxCell id="38" value="SQL実行" style="rounded=0;whiteSpace=wrap;html=1;fontSize=16;fillColor=default;gradientColor=none;gradientDirection=north;verticalAlign=middle;" vertex="1" parent="1">
                    <mxGeometry x="530" y="80" width="100" height="120" as="geometry"/>
                </mxCell>
                <mxCell id="39" value="データ&lt;br&gt;エクスポート" style="rounded=0;whiteSpace=wrap;html=1;fontSize=16;fillColor=default;gradientColor=none;gradientDirection=north;verticalAlign=middle;" vertex="1" parent="1">
                    <mxGeometry x="530" y="225" width="100" height="120" as="geometry"/>
                </mxCell>
                <mxCell id="40" value="データ&lt;br&gt;インポート" style="rounded=0;whiteSpace=wrap;html=1;fontSize=16;fillColor=default;gradientColor=none;gradientDirection=north;verticalAlign=middle;" vertex="1" parent="1">
                    <mxGeometry x="530" y="370" width="100" height="120" as="geometry"/>
                </mxCell>
                <mxCell id="44" style="edgeStyle=none;html=1;exitX=0;exitY=0.25;exitDx=0;exitDy=0;entryX=1;entryY=0.143;entryDx=0;entryDy=0;entryPerimeter=0;fontSize=16;" edge="1" parent="1">
                    <mxGeometry relative="1" as="geometry">
                        <mxPoint x="320" y="109.58" as="sourcePoint"/>
                        <mxPoint x="230" y="109.64999999999993" as="targetPoint"/>
                    </mxGeometry>
                </mxCell>
                <mxCell id="45" style="edgeStyle=none;html=1;exitX=0;exitY=0.75;exitDx=0;exitDy=0;entryX=1;entryY=0.265;entryDx=0;entryDy=0;entryPerimeter=0;fontSize=16;startArrow=classic;startFill=1;endArrow=none;endFill=0;" edge="1" parent="1">
                    <mxGeometry relative="1" as="geometry">
                        <mxPoint x="320" y="169.58" as="sourcePoint"/>
                        <mxPoint x="230" y="169.42999999999992" as="targetPoint"/>
                    </mxGeometry>
                </mxCell>
                <mxCell id="46" style="edgeStyle=none;html=1;exitX=0;exitY=0.25;exitDx=0;exitDy=0;entryX=1;entryY=0.143;entryDx=0;entryDy=0;entryPerimeter=0;fontSize=16;" edge="1" parent="1">
                    <mxGeometry relative="1" as="geometry">
                        <mxPoint x="530" y="254.58" as="sourcePoint"/>
                        <mxPoint x="440" y="254.64999999999995" as="targetPoint"/>
                    </mxGeometry>
                </mxCell>
                <mxCell id="47" style="edgeStyle=none;html=1;exitX=0;exitY=0.75;exitDx=0;exitDy=0;entryX=1;entryY=0.265;entryDx=0;entryDy=0;entryPerimeter=0;fontSize=16;startArrow=classic;startFill=1;endArrow=none;endFill=0;" edge="1" parent="1">
                    <mxGeometry relative="1" as="geometry">
                        <mxPoint x="530" y="314.58000000000004" as="sourcePoint"/>
                        <mxPoint x="440" y="314.42999999999995" as="targetPoint"/>
                    </mxGeometry>
                </mxCell>
                <mxCell id="48" style="edgeStyle=none;html=1;exitX=0;exitY=0.25;exitDx=0;exitDy=0;entryX=1;entryY=0.143;entryDx=0;entryDy=0;entryPerimeter=0;fontSize=16;" edge="1" parent="1">
                    <mxGeometry relative="1" as="geometry">
                        <mxPoint x="320" y="254.57999999999993" as="sourcePoint"/>
                        <mxPoint x="230" y="254.64999999999986" as="targetPoint"/>
                    </mxGeometry>
                </mxCell>
                <mxCell id="49" style="edgeStyle=none;html=1;exitX=0;exitY=0.75;exitDx=0;exitDy=0;entryX=1;entryY=0.265;entryDx=0;entryDy=0;entryPerimeter=0;fontSize=16;startArrow=classic;startFill=1;endArrow=none;endFill=0;" edge="1" parent="1">
                    <mxGeometry relative="1" as="geometry">
                        <mxPoint x="320" y="314.5799999999999" as="sourcePoint"/>
                        <mxPoint x="230" y="314.42999999999984" as="targetPoint"/>
                    </mxGeometry>
                </mxCell>
                <mxCell id="50" style="edgeStyle=none;html=1;exitX=0;exitY=0.25;exitDx=0;exitDy=0;entryX=1;entryY=0.143;entryDx=0;entryDy=0;entryPerimeter=0;fontSize=16;" edge="1" parent="1">
                    <mxGeometry relative="1" as="geometry">
                        <mxPoint x="530" y="429.5" as="sourcePoint"/>
                        <mxPoint x="440" y="429.56999999999994" as="targetPoint"/>
                    </mxGeometry>
                </mxCell>
                <mxCell id="52" style="edgeStyle=none;html=1;exitX=0;exitY=0.25;exitDx=0;exitDy=0;entryX=1;entryY=0.143;entryDx=0;entryDy=0;entryPerimeter=0;fontSize=16;" edge="1" parent="1">
                    <mxGeometry relative="1" as="geometry">
                        <mxPoint x="320" y="429.5" as="sourcePoint"/>
                        <mxPoint x="230" y="429.56999999999994" as="targetPoint"/>
                    </mxGeometry>
                </mxCell>
                <mxCell id="53" value="" style="shape=image;verticalLabelPosition=bottom;labelBackgroundColor=default;verticalAlign=top;aspect=fixed;imageAspect=0;image=data:image/png,iVBORw0KGgoAAAANSUhEUgAAC3cAAArTCAYAAAA85VR4AAAACXBIWXMAADXTAAA10wEMIUN3AAAgAElEQVR42uzd61Gb6/n24fOiAdEBdCBSAUoFJhWgVcGfEngrCKnAcgWLVYHlCiwqWNABVHC/Hx45OGt5AwahZ3McM4ydzWQm5+TLHf24VK21AAAAAADAc1XVSZLDv/zTi2/8Ww+TnPzgP+o4yVEP/ivdJbn9wb++fuI/f99a2/hfCAAAAAAAz1XibgAAAACA6fpLoH28/fli8dXfD5PMLfbLPn319/skX8fft3mMyoXhAAAAAAATJu4GAAAAABiZqlps/3qcx1j764j7JMnMUr33kMcI/OsgfLP9x2mtrc0EAAAAADAe4m4AAAAAgIH46sr2cR6j7cX2z+MkR1aarLs8Xv9eb//8EoHfttZuTQQAAAAA0H/ibgAAAACAnvjq4vZf/3Rpm9fw5RL411fA14kL4AAAAAAAfSHuBgAAAAB4I1V1nO7C9pcL3F/+PLUOPfDX+Pv2y4/L3wAAAAAAb0PcDQAAAADwir4RcC+2f86tw8DdpAu/1/kqABd+AwAAAAC8HnE3AAAAAMAvqKpFHq9vn6QLugXcTNWnPAbfX6LvjVkAAAAAAJ5H3A0AAAAA8APbiPt4+/Pl70eWgSf5+tr3bZKN6BsAAAAA4PvE3QAAAAAASarqy/Xtk69+RNywGzfZxt5fflprt2YBAAAAAKZO3A0AAAAATM72GveXgPs4yalVoBc+pYu9b9MF32uTAAAAAABTIu4GAAAAAEarqg7TBdyLuMYNQ3WTx+B7nS76vjcLAAAAADBG4m4AAAAAYBSE3DApd+mC702StQvfAAAAAMBYiLsBAAAAgEGqqkUeI+5FhNwwdV8ufH8JvjcmAQAAAACGRtwNAAAAAPReVR3n8SL3IsncKsATfMo29k6yaa3dmgQAAAAA6DNxNwAAAADQO9ur3Is8xtwzqwCv4C6Psbfr3gAAAABA74i7AQAAAIC9qqrDdAH3Il3MfWoV4A19yjb2Tnfd+94kAAAAAMC+iLsBAAAAgDdVVcf536vcc6sAPXKTx9h7LfYGAAAAAN6SuBsAAAAA2KmvYu4vP0dWAQZE7A0AAAAAvBlxNwAAAADwqqrqMMlZxNzAOIm9AQAAAICdEXcDAAAAAC+yjbkXX/3MrQJMyH9j79batTkAAAAAgJcQdwMAAAAAz1ZVi3Qh91nE3ABf+5Qu9r5urW3MAQAAAAA8h7gbAAAAAPipqjpOF3Ivtj8zqwD81EO2oXe6y963JgEAAAAAfkTcDQAAAAB8U1V9ibnPkhxZBODFbvJ41XttDgAAAADgr8TdAAAAAECSv13nfmcRgJ1y1RsAAAAA+BtxNwAAAABMmOvcAL3hqjcAAAAAIO4GAAAAgCmpqsN0IfeXqHtmFYDeecj2one62PveJAAAAAAwDeJuAAAAABi5qjpOF3Mvk8wtAjA4f+Qx9L41BwAAAACMl7gbAAAAAEaoqk7SxdxnSY4sAjAaN+muel+31jbmAAAAAIBxEXcDAAAAwEhU1Vm6mHsRQTfAFNylC71XQm8AAAAAGAdxNwAAAAAM2FdB91mSmUUAJusuyTrdRe9rcwAAAADAMIm7AQAAAGBgBN0A/MRDuoveQm8AAAAAGBhxNwAAAAAMgKAbgF8k9AYAAACAARF3AwAAAEBPCboBeGVCbwAAAADoOXE3AAAAAPSIoBuAN/KQZJVk1VrbmAMAAAAA+kHcDQAAAAB7VlUnSZbpgu4jiwDwxu7SXfQWegMAAADAnom7AQAAAGAPquo4XdC9jKAbgP64SXfR+7q1dmsOAAAAAHhb4m4AAAAAeCNVdZjHoHtuEQB67lMeQ+97cwAAAADA7om7AQAAAGDHquosXdD9zhoADNSHdJH3tSkAAAAAYHfE3QAAAACwA1V1kuQiyVmSmUUAGIm7JNdJrlprt+YAAAAAgNcl7gYAAACAV1JVx+li7oskRxYBYORuklylu+h9bw4AAAAAeDlxNwAAAAC8UFWdJVkmeWcNACbqQ7rI+9oUAAAAAPDrxN0AAAAA8Au2V7ov0kXdM4sAQJLkLskqyaq1dmsOAAAAAHgecTcAAAAAPENVLdMF3afWAIAf+iNd5O2aNwAAAAA8kbgbAAAAAH6iqk7SXek+iyvdAPBcD+mueV+55g0AAAAAPybuBgAAAIDv2F7pvkgytwYAvIpP6a55r0wBAAAAAH8n7gYAAACAr1TVcbqgexlXugFgV+7SXfNeueYNAAAAAI/E3QAAAACQ/17pXiY5tQYAvKk/0kXe16YAAAAAYOrE3QAAAABM1vZK93L7c2QRANiruyRX6ULve3MAAAAAMEXibgAAAAAmp6oW6YLuc2sAQO88JLlOctVa25gDAAAAgCkRdwMAAAAwGVW1THKRZG4NABiET+kuea9MAQAAAMAUiLsBAAAAGLWqOk53pfsiycwiADBId0lW6a5535sDAAAAgLESdwMAAAAwSlW1SBd1n1sDAEblQ5LL1tqtKQAAAAAYG3E3AAAAAKNSVct0UfepNQBg1D6li7zXpgAAAABgLMTdAAAAAAxeVR2mC7ovkhxZBAAm5S5d5L0yBQAAAABDJ+4GAAAAYLCq6jhd0L1MMrMIAEzaQ5KrJFettXtzAAAAADBE4m4AAAAABqeqTtJF3efWAAC+4UO6a963pgAAAABgSMTdAAAAAAxGVS2SXCY5tQYA8AQfkqxaa2tTAAAAADAE4m4AAAAAeq+qlukudc+tAQD8gk/pLnmvTQEAAABAn4m7AQAAAOitbdR9meTIGgDAK7hLF3mvTAEAAABAH4m7AQAAAOiVqjpMd6X7IsnMIgDADoi8AQAAAOglcTcAAAAAvSDqBgD24CHJVZKr1tq9OQAAAADYN3E3AAAAAHtVVcdJlhF1AwD7I/IGAAAAoBfE3QAAAADsxTbqvkxybg0AoCdE3gAAAADslbgbAAAAgDcl6gYABkDkDQAAAMBeiLsBAAAAeBOibgBggB6SrNJF3rfmAAAAAGDXxN0AAAAA7JSoGwAYiQ9JLkXeAAAAAOySuBsAAACAnRB1AwAj9JDkKt0l73tzAAAAAPDaxN0AAAAAvCpRNwAwASJvAAAAAHZC3A0AAADAqxB1AwATJPIGAAAA4FWJuwEAAAB4kao6THKx/ZlZBACYIJE3AAAAAK9C3A0AAADALxF1AwD8zUO6wPvSFAAAAAD8CnE3AAAAAM8i6gYA+Km7JJettZUpAAAAAHgOcTcAAAAAT1ZVyySXSY6sAQDwUyJvAAAAAJ5F3A0AAADAT4m6AQBe5FO6yHttCgAAAAB+RNwNAAAAwHdV1SJd1H1qDQCAFxN5AwAAAPBD4m4AAAAA/qaqjpOsIuoGANiFD+ki71tTAAAAAPC1AxMAAAAA8EVVHVfVKsmfEXYDAOzKeZI/q+qqqg7NAQAAAMAXLncDAAAAkG1UdLH9mVkEAODNPCS5aq1dmgIAAAAAcTcAAADAxFXVMslVRN0AAPt0l+SytbYyBQAAAMB0ibsBAAAAJqqqFklWSY6sAQDQG5/SRd5rUwAAAABMj7gbAAAAYGKq6iTdpe5TawAA9NYfSS5aa7emAAAAAJgOcTcAAADARFTVYbqo+9waAACD8f+SXLXW7k0BAAAAMH7ibgAAAIAJqKrLJBdJZtYAABich3RXvFemAAAAABg3cTcAAADAiFXVIskqyZE1AAAG7yZd5L02BQAAAMA4HZgAAAAAYHyq6riq1kk+RtgNADAW8yQfq2pVVcfmAAAAABgfcTcAAADAiFTVYVVdJfkzyalFAABG6TzJpqouTQEAAAAwLtVaswIAAADACFTVMslVkpk1AAAm4y7JRWvt2hQAAAAAwyfuBgAAABi4qjpJF3W71A0AMF2fkixba7emAAAAABiuAxMAAAAADFNVHVbVVZLPEXYDAEzdaZI/q+qyqg7NAQAAADBMLncDAAAADFBVLdNd655ZAwCAv7hLctFauzYFAAAAwLCIuwEAAAAGpKpO0kXdLnUDAPAzn5IsW2u3pgAAAAAYhgMTAAAAAPRfVR1W1VWSzxF2AwDwNKdJ/qyqS1MAAAAADIPL3QAAAAA9V1VnSVZJZtYAAOAX3aW74r02BQAAAEB/ibsBAAAAeqqqjtNF3S51AwDwWv5IF3nfmwIAAACgfw5MAAAAANA/VXWZZBNhNwAAr+tdktuqujAFAAAAQP+43A0AAADQI1W1SHet+8gaAADs2KckF621jSkAAAAA+sHlbgAAAIAeqKrDqrpK8jHCbgAA3sZpks9VdVlVh+YAAAAA2D+XuwEAAAD2rKrO0l3rnlkDAIA9uUuybK2tTQEAAACwPy53AwAAAOxJVR1X1XWS3yPsBgBgv46SfKyqlSveAAAAAPsj7gYAAADYg6q6SLJJ8s4aAAD0yHmS2+23ywAAAADwxqq1ZgUAAACAN1JVx0lWSU6tAQBAz/2R5KK1dmsKAAAAgLfhcjcAAADAG6mqyyR/RtgNAMAwvEuy2X7rDAAAAABvwOVuAAAAgB2rqpN017rn1gAAYKA+JVm64g0AAACwWy53AwAAAOzQ9lr35wi7AQAYttO44g0AAACwcy53AwAAAOyAa90AAIyYK94AAAAAO+JyNwAAAMArc60bAICRc8UbAAAAYEdc7gYAAAB4Ja51AwAwQa54AwAAALwil7sBAAAAXoFr3QAATJQr3gAAAACvyOVuAAAAgBdwrRsAAP7LFW8AAACAF3K5GwAAAOAXba8TriPsBgCA5PGK99IUAAAAAL/G5W4AAACAZ6qq43TXuk+tAQAA3/RHuive96YAAAAAeDqXuwEAAACeYXuFcBNhNwAA/Mi7JLdVdWYKAAAAgKcTdwMAAAA8QVUdVtV1kvdJZhYBAICfmiX5vaququrQHAAAAAA/V601KwAAAAD8QFUtklxH1A0AAL/qLslZa21jCgAAAIDvc7kbAAAA4Du217qvknyMsBsAAF7iKMnnqro0BQAAAMD3udwNAAAA8A1VdZJklWRuDQAAeFU36a5435oCAAAA4H+53A0AAADwF1V1keRzhN0AALAL8ySbqlqaAgAAAOB/udwNAAAAsFVVh0muk5xaAwAA3sQfSZattXtTAAAAALjcDQAAAJAkqaqzJLcRdgMAwFt6l+6K98IUAAAAAOJuAAAAgFTVVZLfk8ysAQAAb+4oycequjQFAAAAMHXVWrMCAAAAMElVdZJklWRuDQAA6IVPSZattVtTAAAAAFPkcjcAAAAwSVW1TLKOsBsAAPrkNMmmqs5MAQAAAEyRy90AAADApFTVYbpr3e+sAQAAvfaf1tqFGQAAAIApEXcDAAAAk1FVJ0mukxxZAwAABuEmyVlr7dYUAAAAwBQcmAAAAACYgqq6SPI5wm4AABiSeZJNVZ2ZAgAAAJgCl7sBAACAUauqwySrJO+sAQAAg/YhyUVr7d4UAAAAwFiJuwEAAIDRqqqTJNdxrRsAAMbiJsmytbYxBQAAADBGByYAAAAAxqiqLpJ8jrAbAADGZJ5kXVVnpgAAAADGSNwNAAAAjEpVHVbVKsm/rQEAAKM0S/J7VV2ZAgAAABibaq1ZAQAAABiFqjpJskp3zQ8AABi/myRnrbVbUwAAAABj4HI3AAAAMApVtUyyjrAbAACmZJ5kU1ULUwAAAABjIO4GAAAABq+qVknep/t6dgAAYFpmST5W1aUpAAAAgKGr1poVAAAAgEGqquMk13GtGwAA6HxKctZauzcFAAAAMEQudwMAAACDtP3a9U2E3QAAwKPTJJuqOjEFAAAAMETibgAAAGBwquoiycd0X78OAADwtaMk66pamgIAAAAYmmqtWQEAAAAYhKo6TLJK8s4aAADAE3xorS3NAAAAAAyFuBsAAAAYhO3Xqq+SzK0BAAA8w02SRWvt3hQAAABA3x2YAAAAAOi7qjpLso6wGwAAeL55ktvtL4wCAAAA9Jq4GwAAAOi1qrpM8nuSmTUAAIBfNEvyuaqWpgAAAAD6rFprVgAAAAB6p6oOk6ySvLMGAADwij601pZmAAAAAPpI3A0AAAD0zvbr0lfpvj4dAADgtd0kWbTW7k0BAAAA9Im4GwAAAOiVqlokuU73tekAAAC78pAu8N6YAgAAAOiLAxMAAAAAfVFVF0k+RtgNAADs3izJuqqWpgAAAAD6wuVuAAAAoBeqapXk3BIAAMAe/Ke1dmEGAAAAYN/E3QAAAMBeVdVhknWSuTUAAIA9+iPJsrV2bwoAAABgXw5MAAAAAOxLVZ0k2UTYDQAA7N+7JOuqOjYFAAAAsC/ibgAAAGAvquos3cXuI2sAAAA9MU+y2f4iKgAAAMCbE3cDAAAAb66qLpL8nmRmDQAAoGdmST5X1dIUAAAAwFur1poVAAAAgDdTVask55YAAAAG4D+ttQszAAAAAG9F3A0AAAC8iao6TLJO9zXnAAAAQ/EhyUVr7d4UAAAAwK6JuwEAAICdq6qTJKsIuwEAgGG6SbIQeAMAAAC7Ju4GAAAAdmobdq+TzKwBAAAM2F2Ss9baxhQAAADArhyYAAAAANiVqlom+RxhNwAAMHxHSdZVtTAFAAAAsCvibgAAAGAnquoyyXtLAAAAIzJL8nH7i6wAAAAAr65aa1YAAAAAXlVVrZKcWwIAABix/7TWLswAAAAAvCZxNwAAAPBqquowyXWSU2sAAAAT8KG1tjQDAAAA8FrE3QAAAMCr2Ibd6yRzawAAABNyk2TRWrs3BQAAAPBSByYAAAAAXqqqTpLcRtgNAABMzzzJuqqOTQEAAAC8lLgbAAAAeJGqWqS72D2zBgAAMFHzJJvtL74CAAAA/DJxNwAAAPDLqmqZ5GOE3QAAALN0F7wXpgAAAAB+lbgbAAAA+CVVdZHkvSUAAAD+a5bk4/YXYQEAAACeTdwNAAAAPFtVrZL82xIAAADf9H77C7EAAAAAz1KtNSsAAAAAT7YNu88tAQAA8FMfWmtLMwAAAABPJe4GAAAAnqSqDpNcJzm1BgAAwJMJvAEAAIAnE3cDAAAAP7UNu9dJ5tYAAAB4tk9Jzlpr96YAAAAAfuTABAAAAMCPVNVxhN0AAAAvcZpkvf3FWQAAAIDvcrkbAAAA+K6qOkkXds+sAQAA8GI3SRYueAMAAADf43I3AAAA8E3CbgAAgFc3T3K7fW8BAAAA/I24GwAAAPibqlpE2A0AALALsyRrgTcAAADwLeJuAAAA4H9U1TLJxwi7AQAAdkXgDQAAAHyTuBsAAAD4r23Y/d4SAAAAO/cl8F6aAgAAAPiiWmtWAAAAAITdAAAA+/Nba21lBgAAAMDlbgAAACBVdRVhNwAAwL68d8EbAAAASFzuBgAAgMmrqlWSc0sAAADsnQveAAAAMHEudwMAAMCECbsBAAB65f32m5UAAACAiXK5GwAAACZK2A0AANBbH1prSzMAAADA9LjcDQAAABMk7AYAAOi18+27DQAAAJgYcTcAAABMSFUdCrsBAAAGQeANAAAAE1StNSsAAADAFP5PgKrDJOskc2sAAAAMxofW2tIMAAAAMA0udwMAAMAECLsBAAAGywVvAAAAmBBxNwAAAIycsBsAAGDwBN4AAAAwEeJuAAAAGDFhNwAAwGgIvAEAAGACqrVmBQAAABjjo1/YDQAAMEZ/JFm21u5NAQAAAOMj7gYAAIAxPviF3QAAAGN2k2Qh8AYAAIDxOTABAAAAjIuwGwAAYPTmSdbb9x8AAAAwIuJuAAAAGBFhNwAAwGQIvAEAAGCExN0AAAAwEsJuAACAyRF4AwAAwMhUa80KAAAAMPQHvrAbAABgym5aaydmAAAAgOFzuRsAAAAGTtgNAAAwefOqWpkBAAAAhk/cDQAAAAMm7AYAAGDrXOANAAAAwyfuBgAAgIESdgMAAPAXAm8AAAAYOHE3AAAADJCwGwAAgO8QeAMAAMCAibsBAABgYITdAAAA/ITAGwAAAAZK3A0AAADDcxVhNwAAAD8m8AYAAIABEncDAADAgGw/mD+3BAAAAE8g8AYAAICBEXcDAADAQAi7AQAA+AUCbwAAABgQcTcAAAAMgLAbAACAFzivqgszAAAAQP9Va80KAAAA0OfHu7AbAACA1/Fba21lBgAAAOgvl7sBAACgx6rqMsJuAAAAXsf7qlqaAQAAAPrL5W4AAADo66O9+8D9vSUAAAB4ZS54AwAAQE+JuwEAAKCPD3ZhNwAAALv1r9batRkAAACgX8TdAAAA0LfHurAbAACA3XtIsmitbUwBAAAA/SHuBgAAgD491KsWST5aAgAAgDcg8AYAAICeOTABAAAA9ENVnSTxldgAAAC8lVmS9fY9CgAAAPSAy90AAADQhwd690H6Ot0H6wAAAPCW7pKctNbuTQEAAAD7Je4GAACAfT/Oqw6T3EbYDQAAwP7cJFkIvAEAAGC/DkwAAAAA+7MNu9cRdgMAALBf8yTr7TsVAAAA2BNxNwAAAOzJV2H33BoAAAD0wDzJygwAAACwP+JuAAAA2J/rCLsBAADol3dVtTIDAAAA7Ie4GwAAAPZg+0H5qSUAAADoofOqujIDAAAAvL1qrVkBAAAA3vIx3oXd55YAAACg535rra3MAAAAAG/H5W4AAAB4Q1W1jLAbAACAYXi/fccCAAAAb8TlbgAAAHirR3j3gfh7SwAAADAw/2itbcwAAAAAuyfuBgAAgLd4gFedJPlsCQAAAAboIclC4A0AAAC7J+4GAACAXT++u7B7nWRmDQAAAAbqIclxa+3eFAAAALA7ByYAAACA3amqwyTXEXYDAAAwbLMk6+07FwAAANgRcTcAAADsyPYD73WSI2sAAAAwAvN0v8AMAAAA7Ii4GwAAAHZnle6DbwAAABiL06pamQEAAAB2Q9wNAAAAO7D9oPudJQAAABih86q6NAMAAAC8vmqtWQEAAABe87FddZHk35YAAABg5H5rra3MAAAAAK9H3A0AAACv+dCuWiZ5bwkAAAAm4h+ttY0ZAAAA4HWIuwEAAOC1HtlVJ0nWSWbWAAAAYCIekiwE3gAAAPA6xN0AAADwGg/squMkmwi7AQAAmJ6bdIH3vSkAAADgZQ5MAAAAAC9TVYdJriPsBgAAYJrm6b7JCgAAAHghcTcAAAC83HW6D7IBAABgquZVtTIDAAAAvIy4GwAAAF5g+8H1qSUAAAAg51V1YQYAAAD4ddVaswIAAAD8yqO6apnkvSUAAADgf/zWWluZAQAAAJ5P3A0AAAC/8qCuWiT5aAkAAAD4m4cki9baxhQAAADwPOJuAAAAeO5juuokyTrJzBoAAADwTQ9Jjltr96YAAACApzswAQAAADxdVR0mWUXYDQAAAD8yS/eL0QAAAMAziLsBAADgea6TzM0AAAAAPzWvqpUZAAAA4OnE3QAAAPBE2w+kTy0BAAAAT3ZeVRdmAAAAgKep1poVAAAA4GcP6KplkveWAAAAgF/yr9batRkAAADgx8TdAAAA8LPHc9VJks+WAAAAgF/2kGTRWtuYAgAAAL7vwAQAAADwfVV1nGRtCQAAAHiRWZJVVR2aAgAAAL5P3A0AAADfsf3A+TrdB9AAAADAy8yTrMwAAAAA3yfuBgAAgO+7SvfBMwAAAPA63lXVlRkAAADg28TdAAAA8A1VdZHk3BIAAADw6v6vqpZmAAAAgL+r1poVAAAA4OvHctUiyUdLAAAAwM48JFm01jamAAAAgEfibgAAAPj6oVx1nGSTZGYNAAAA2Km7JCettXtTAAAAQOfABAAAANCpqsMk1xF2AwAAwFs42r7DAQAAgC1xNwAAADy6SjI3AwAAALyZ06q6NAMAAAB0qrVmBQAAADyQq5ZJ3lsCAAAA9uJfrTVXvAEAAJg8cTcAAAAex1UnST5bAgAAAPbmIcmitbYxBQAAAFMm7gYAAGDaD+OqwyS3SWbWAAAAgL26SRd435sCAACAqTowAQAAABN3HWE3AAAA9ME8yZUZAAAAmDJxNwAAAJNVVVdJTi0BAAAAvXFeVRdmAAAAYKqqtWYFAAAApvcgrjpL8rslAAAAoJf+0VrbmAEAAICpEXcDAAAwvcdw1XGSTZKZNQAAAKCX7pKctNbuTQEAAMCUHJgAAACAKamqwyTXEXYDAABAnx1t3+8AAAAwKeJuAAAApuYqydwMAAAA0HunVXVpBgAAAKakWmtWAAAAYBqP4KplkveWAAAAgEH5Z2ttbQYAAACmQNwNAADANB7AVSdJ1klm1gAAAIBBeUhy3Fq7NwUAAABjd2ACAAAAxq6qDpOsIuwGAACAIZoluTYDAAAAUyDuBgAAYAqukszNAAAAAIN1WlWXZgAAAGDsqrVmBQAAAMb78K1aJnlvCQAAABiFf7bW1mYAAABgrMTdAAAAjPfRW3WSZJ3u65sBAACA4XtIctxauzcFAAAAY3RgAgAAAMaoqg6TrCLsBgAAgDGZJbk2AwAAAGMl7gYAAGCsLpPMzQAAAACjc1pVl2YAAABgjKq1ZgUAAADG9ditOkvyuyUAAABg1P7RWtuYAQAAgDERdwMAADCuh27VcZJNuq9pBgAAAMbrLslJa+3eFAAAAIzFgQkAAAAYmesIuwEAAGAKjpKszAAAAMCYiLsBAAAYjaq6TDK3BAAAAEzGu6q6MAMAAABjUa01KwAAADD8B27VIslHSwAAAMDkPCRZtNY2pgAAAGDoxN0AAAAM/3FbdZhkk+7rmAEAAIDpuWmtnZgBAACAoTswAQAAACOwirAbAAAApmxeVVdmAAAAYOhc7gYAAGDYD9uqZZL3lgAAAACS/LO1tjYDAAAAQyXuBgAAYLiP2qrjJJskM2sAAAAASR6SHLfW7k0BAADAEB2YAAAAgAG7jrAbAAAAeDRLsjIDAAAAQyXuBgAAYJCq6jLJ3BIAAADAX7yrqgszAAAAMETVWrMCAAAAw3rMVi2SfLQEAAAA8B0PSU5aa7emAAAAYEjE3QAAAAzrIVt1mGST5MgaAAAAwA/ctNZOzAAAAPN6cZ4AACAASURBVMCQHJgAAACAgbmMsBsAAAD4uXlVXZoBAACAIXG5GwAA+P/s3Wt9G/e2x+G1QkAqAk8QREXg2QhqBkcMjiEYQhicMNgQsougKQLbCCIjWOeF3abZvukymuvzQPi++4/W5yeYziM28yoi/q0EAAAAcIBfq+qbDAAAAEyB424AAACm8YDNXEfEXUSs1AAAAAAO8GdEtFW1kwIAAICx+yABAAAAE/ElHHYDAAAAh/sUETcyAAAAMAWWuwEAABj/4zVzGxH/pwQAAABwgn9V1X9kAAAAYMwcdwMAADDuh2tmExHfwmo3AAAAcJr7iNhU1U4KAAAAxuqDBAAAAIzcl3DYDQAAAJzuIiI+ywAAAMCYOe4GAABgtDLzOiIulQAAAAA68j+ZeSUDAAAAY5VVpQIAAADje7BmNhHxLax2AwAAAN16iIimqnZSAAAAMDaWuwEAABirL+GwGwAAAOjeKh6/OwAAAMDoOO4GAABgdDLzOiIulQAAAADO5LfMvJIBAACAscmqUgEAAIDxPFQzm4j4Fla7AQAAgPN6iIimqnZSAAAAMBaWuwEAABibL+GwGwAAADi/VTx+hwAAAIDRcNwNAADAaGTmdURcKgEAAAD05LfMvJIBAACAsciqUgEAAIDhH6iZTUR8C6vdAAAAQL8eIqKpqp0UAAAADM1yNwAAAGPxJRx2AwAAAP1bRcSNDAAAAIyB424AAAAGl5nXEXGpBAAAADCQ/83MVgYAAACGllWlAgAAAMM9TDPXEXEXVrsBAACAYd1HxKaqdlIAAAAwFMvdAAAADO1LOOwGAAAAhncRETcyAAAAMCTL3QAAAAz3KM28ioh/KwEAAACMyL+q6j8yAAAAMATH3QAAAAzzIM1cR8RdWO0GAAAAxuXPqtrIAAAAwBA+SAAAAMBAbsJhNwAAADA+nzLzRgYAAACGYLkbAACA/h+jmW1EfFUCAAAAGLGPVXUnAwAAAH2y3A0AAMAQvkgAAAAAjNwXCQAAAOib424AAAB69fS3xhdKAAAAACN3mZnXMgAAANCnrCoVAAAA6OcRmrmJiD+UAAAAACbiISKaqtpJAQAAQB8sdwMAANCnzxIAAAAAE7KKiC8yAAAA0BfH3QAAAPTi6W+ML5UAAAAAJua3zGxlAAAAoA9ZVSoAAABw3sdn5joi7uJx7QoAAABgau4jYlNVOykAAAA4J8vdAAAA9OFzOOwGAAAApusiIq5lAAAA4NwsdwMAAHDeh+fj3xZ/VQIAAACYgY9VdScDAAAA52K5GwAAgHP7IgEAAAAwE18kAAAA4JwcdwMAAHA2mXkTj39bDAAAADAHl5m5lQEAAIBzyapSAQAAgO4fnJlNRHyLiJUaAAAAwIw8RERTVTspAAAA6JrlbgAAAM7lczjsBgAAAOZnFRE3MgAAAHAOlrsBAADo/rGZ2UbEVyUAAACAGfu1qr7JAAAAQJccdwMAAND9YzPzLiIulAAAAABm7PeqamUAAACgSx8kAAAAoEuZeRMOuwEAAID5u8zMrQwAAAB0yXI3AAAA3T0yM5uI+BYRKzUAAACABXiIiKaqdlIAAADQBcvdAAAAdOlzOOwGAAAAlmMVETcyAAAA0BXL3QAAAHTzwMxsI+KrEgAAAMAC/VpV32QAAADgVI67AQAA6OaBmXkXERdKAAAAAAv0e1W1MgAAAHCqDxIAAABwqsy8CYfdAAAAwHJdZuaVDAAAAJzKcjcAAACnPSwz1xFxFxErNQAAAIAFu4+ITVXtpAAAAOBYlrsBAAA41edw2A0AAABwERHXMgAAAHAKy90AAAAc/6jMbCPiqxIAAAAAERHxEI/r3XdSAAAAcAzL3QAAAJziRgIAAACAv63i8V/OAAAA4CiOuwEAADhKZm4j4lIJAAAAgJ/89vRvZwAAAHCwrCoVAAAAOOwxmbmOiG8RcaEGAAAAwDN/VtVGBgAAAA5luRsAAIBjXIfDbgAAAIDXfHr61zMAAAA4iOVuAAAADntIZjbxuNq9UgMAAADgVQ8R0VTVTgoAAAD2ZbkbAACAQ92Ew24AAACA96zi8d/PAAAAYG+WuwEAANj/EZm5iYg/lAAAAADYy0NEbKrqTgoAAAD2YbkbAACAQ3yWAAAAAGBvq3j8FzQAAADYi+VuAAAA9ntAZl5FxL+VAAAAADjYr1X1TQYAAADe47gbAACA/R6QmXcRcaEEAAAAwMF+r6pWBgAAAN7zQQIAAADek5nbcNgNAAAAcKzLzGxlAAAA4D2WuwEAAHj74Zi5joi7iFipAQAAAHC0+6pqZAAAAOAtlrsBAAB4z3U47AYAAAA41cXTv6MBAADAqyx3AwAA8PqjMbOJiG/huBsAAACgCw8R0VTVTgoAAABeYrkbAACAt9yEw24AAACArqzi8V/SAAAA4EWWuwEAAHj5wfi42n2rBAAAAECnrHcDAADwKsvdAAAAvOazBAAAAACdW8Xjv6UBAADAM5a7AQAAeP5YzGwj4qsSAAAAAGfzsaruZAAAAOCfLHcDAADwkhsJAAAAAM7qRgIAAAD+m+VuAAAAfn4oWu0GAAAA6Iv1bgAAAH5iuRsAAID/9lkCAAAAgF58kQAAAIB/ctwNAADA3zJzGxGflAAAAADoxeXTv6gBAABARERkVakAAADA4yMx8y4iLpQAAAAA6M3vVdXKAAAAQITlbgAAAJ48rXY77AYAAADol/VuAAAA/ma5GwAAgMcHotVuAAAAgKFY7wYAACAiLHcDAAAQEZl5HQ67AQAAAIZy+fSvagAAACyc5W4AAIClPwwz1xFxFxErNQAAAAAGc19VjQwAAADLZrkbAACA63DYDQAAADC0C+vdAAAAWO4GAABY8qPQajcAAADAmFjvBgAAWDjL3QAAAMtmtRsAAABgPKx3AwAALJzlbgAAgKU+CK12AwAAAIyR9W4AAIAFs9wNAACwXFa7AQAAAMbHejcAAMCCWe4GAABY4mPQajcAAADAmFnvBgAAWCjL3QAAAMtktRsAAABgvKx3AwAALJTlbgAAgKU9BK12AwAAAEyB9W4AAIAFstwNAACwPFa7AQAAAMbPejcAAMACWe4GAABY0iPQajcAAADAlFjvBgAAWBjL3QAAAMtitRsAAABgOqx3AwAALIzlbgAAgKU8AK12AwAAAEyR9W4AAIAFsdwNAACwHFa7AQAAAKbHejcAAMCCWO4GAABYwuPPajcAAADAlFnvBgAAWAjL3QAAAMtwFQ67AQAAAKbKejcAAMBCWO4GAABYwuMv8y4iLpQAAAAAmKzfq6qVAQAAYN4sdwMAAMzc06qTw24AAACAabvMzFYGAACAebPcDQAAMPeHn9VuAAAAgLmw3g0AADBzlrsBAABmzGo3AAAAwKxY7wYAAJg5x90AAADzdi0BAAAAwKz43gMAADBjWVUqAAAAzPHB97ji9FUJAAAAgNn5WFV3MgAAAMyP5W4AAID5upEAAAAAYJZuJAAAAJgny90AAABzfOxZ7QYAAACYO+vdAAAAM2S5GwAAYJ62EgAAAADM2rUEAAAA82O5GwAAYG4PvcwmIm6VAAAAAJi1h4hoqmonBQAAwHxY7gYAAJifGwkAAAAAZm8V1rsBAABmx3I3AADAnB55meuI+K4EAAAAwCI8VNVaBgAAgPmw3A0AADAv1poAAAAAlmOVmVsZAAAA5sNyNwAAwFweeI+r3Xfx+Je8AAAAACzDfVU1MgAAAMyD5W4AAID5uAqH3QAAAABLc5GZVzIAAADMg+VuAACAuTzwMu8i4kIJAAAAgMX5vapaGQAAAKbPcjcAAMAMPK0zOewGAAAAWKbLzNzIAAAAMH2OuwEAAObhWgIAAACARfN9CAAAYAayqlQAAACY8sPucZXpDyUAAAAAFu9jVd3JAAAAMF2WuwEAAKbPKhMAAAAAERFbCQAAAKbNcjcAAMCUH3WZTUTcKgEAAABARDxERFNVOykAAACmyXI3AADAtG0lAAAAAODJKiKuZAAAAJguy90AAABTftRl7uLxRzsAAAAAiIi4r6pGBgAAgGmy3A0AADBRmbkNh90AAAAA/OwiM1sZAAAApslxNwAAwHRdSwAAAADAC3w3AgAAmKisKhUAAACm9ph7XF/6qgQAAAAAr/hYVXcyAAAATIvlbgAAgGnaSgAAAADAG6x3AwAATJDlbgAAgKk95DKbiLhVAgAAAIA3PEREU1U7KQAAAKbDcjcAAMD0bCUAAAAA4B2riLiSAQAAYFosdwMAAEztIZe5i8cf5wAAAADgLfdV1cgAAAAwHZa7AQAAJiQzt+GwGwAAAID9XGRmKwMAAMB0OO4GAACYlq0EAAAAABxgKwEAAMB0ZFWpAAAAMIUHXOYmIv5QAgAAAIADfayqOxkAAADGz3I3AADAdFxLAAAAAMARthIAAABMg+VuAACAKTzeMtcRcRcRKzUAAAAAONB9VTUyAAAAjJ/lbgAAgGm4CofdAAAAABznIjOvZAAAABg/x90AAADTcCMBAAAAACfYSgAAADB+WVUqAAAAjPnhltlGxFclAAAAADjRx6q6kwEAAGC8LHcDAACM31YCAAAAADqwlQAAAGDcLHcDAACM+dGWuY6I70oAAAAA0IH7qmpkAAAAGC/L3QAAAOO2lQAAAACAjlxk5pUMAAAA4+W4GwAAYNyuJQAAAACgQ1sJAAAAxiurSgUAAIAxPtgyNxHxhxIAAAAAdOxjVd3JAAAAMD6WuwEAAMbLajcAAAAA57CVAAAAYJwsdwMAAIzxsZa5joi7iFipAQAAAEDH7quqkQEAAGB8LHcDAACM01U47AYAAADgPC4y80oGAACA8XHcDQAAME7XEgAAAABwRo67AQAARiirSgUAAIAxPdQym4i4VQIAAACAM/ulqnYyAAAAjIflbgAAgPGx2g0AAABAH7YSAAAAjIvlbgAAgLE91DJ3EbFSAgAAAIAz+7OqNjIAAACMh+VuAACAEcnMq3DYDQAAAEA/PmWm424AAIARcdwNAAAwLlsJAAAAAOjRVgIAAIDxyKpSAQAAYAwPtMx1RHxXAgAAAIAePVTVWgYAAIBxsNwNAAAwHlsJAAAAAOjZKjOvZAAAABgHx90AAADjsZUAAAAAgAFsJQAAABiHrCoVAAAAhn6cZW4i4g8lAAAAABjIL1W1kwEAAGBYlrsBAADGYSsBAAAAAAPaSgAAADA8y90AAABjeJxl3kXEhRIAAAAADOTPqtrIAAAAMCzL3QAAAAPLzKtw2A0AAADAsD5lZiMDAADAsBx3AwAADO9KAgAAAABG4FoCAACAYWVVqQAAADDkwyxzFxErJQAAAAAY2H1VNTIAAAAMx3I3AADAgDJzGw67AQAAABiHi8zcyAAAADAcx90AAADDupIAAAAAgBG5lgAAAGA4WVUqAAAADPEgy1xHxHclAAAAABiRh6paywAAADAMy90AAADDsdoNAAAAwNisMtN3KwAAgIE47gYAABiOv7gFAAAAYIwcdwMAAAwkq0oFAACAvh9jmU1E3CoBAAAAwAg9RERTVTspAAAA+mW5GwAAYBjWjwAAAAAYq1X4fgUAADAIx90AAADD2EoAAAAAwIg57gYAABhAVpUKAAAAfT7EMpuIuFUCAAAAgJH7pap2MgAAAPTHcjcAAED/rB4BAAAAMAW+YwEAAPTMcTcAAED/thIAAAAAMAGOuwEAAHqWVaUCAABAX4+wzCYibpUAAAAAYCJ+qaqdDAAAAP2w3A0AANAva0cAAAAATInvWQAAAD1y3A0AANCvrQQAAAAATIjjbgAAgB5lVakAAADQxwMss4mIWyUAAAAAmJhfqmonAwAAwPlZ7gYAAOiPlSMAAAAApsh3LQAAgJ447gYAAOjPVgIAAAAAJshxNwAAQE+yqlQAAAA49+Mrs4mIWyUAAAAAmKhfqmonAwAAwHlZ7gYAAOiHdSMAAAAApsz3LQAAgB447gYAAOjHVgIAAAAAJsxxNwAAQA+yqlQAAAA458Mrs4mIWyUAAAAAmLCHqlrLAAAAcF6WuwEAAM7PqhEAAAAAU7fKTN+5AAAAzsxxNwAAwPm1EgAAAAAwA467AQAAziyrSgUAAIBzPboy1xHxXQkAAAAAZuChqtYyAAAAnI/lbgAAgPOyZgQAAADAXKwys5UBAADgfBx3AwAAnJfjbgAAAADmxPcuAACAM8qqUgEAAOBcj67MXUSslAAAAABgJu6rqpEBAADgPCx3AwAAnElmXoXDbgAAAADm5SIzNzIAAACch+NuAACA8/EXtQAAAADMUSsBAADAeTjuBgAAOJ9WAgAAAABmaCsBAADAeTjuBgAAOIOnv6a9UAIAAACAGfqUmY0MAAAA3XPcDQAAcB5XEgAAAAAwY60EAAAA3XPcDQAAcB6OuwEAAACYM9+/AAAAziCrSgUAAIAuH1qPf0l7qwQAAAAAc1ZVqQIAAEC3LHcDAAB0r5UAAAAAgLnLTOvdAAAAHXPcDQAA0D0/agEAAACwBK0EAAAA3cqqUgEAAKDLh1bmLiJWSgAAAAAwc/dV1cgAAADQHcvdAAAAHXr6K1qH3QAAAAAswUVmNjIAAAB0x3E3AABAt1oJAAAAAFiQKwkAAAC647gbAACgW37MAgAAAGBJWgkAAAC6k1WlAgAAQBcPrMe/oL1VAgAAAIAlqapUAQAAoBuWuwEAALrTSgAAAADA0mSmf7MDAADoiONuAACA7vgRCwAAAIAlaiUAAADoRlaVCgAAAF08sDJ3EbFSAgAAAICFua+qRgYAAIDTWe4GAADoQGa24bAbAAAAgGW6yMxGBgAAgNM57gYAAOhGKwEAAAAAC9ZKAAAAcDrH3QAAAN24kgAAAACABfN9DAAAoANZVSoAAACc8rDKXEfEdyUAAAAAWLCHqlrLAAAAcBrL3QAAAKdrJQAAAABg4VaZuZEBAADgNI67AQAATucvZwEAAADAdzIAAICTOe4GAAA4XSsBAAAAAPhOBgAAcKqsKhUAAACOfVRlNhFxqwQAAAAARFRVqgAAAHA8y90AAACnaSUAAAAAgEeZeaUCAADA8Rx3AwAAnKaVAAAAAAD+1koAAABwvKwqFQAAAI59VGXuImKlBAAAAABERMSfVbWRAQAA4DiWuwEAAI6UmZtw2A0AAAAA//QpM9cyAAAAHMdxNwAAwPFaCQAAAADgmVYCAACA4zjuBgAAOF4rAQAAAAA800oAAABwHMfdAAAAx2slAAAAAIBnWgkAAACO47gbAADgCJm5iYiVEgAAAADwzKfMXMsAAABwOMfdAAAAx2klAAAAAIBXtRIAAAAcznE3AADAcVoJAAAAAOBVrQQAAACHc9wNAABwnFYCAAAAAHhVKwEAAMDhHHcDAAAcKDM3EbFSAgAAAABe9Skz1zIAAAAcxnE3AADA4VoJAAAAAOBdrQQAAACHcdwNAABwuI0EAAAAAPAu39EAAAAO5LgbAADgcK0EAAAAAPCuVgIAAIDDZFWpAAAAsO8jKrOJiFslAAAAAOB9VZUqAAAA7M9yNwAAwGFaCQAAAABgP5nZqgAAALA/x90AAACH2UgAAAAAAHtrJQAAANif424AAIDDtBIAAAAAwN6MJQAAABwgq0oFAACAfR5QmeuI+K4EAAAAAOztoarWMgAAAOzHcjcAAMD+rAwBAAAAwGFWmem7GgAAwJ4cdwMAAOyvlQAAAAAADua4GwAAYE+OuwEAAPbXSgAAAAAAB2slAAAA2I/jbgAAgP1ZGAIAAACAw/muBgAAsCfH3QAAAHvIzE1ErJQAAAAAgIN9ysy1DAAAAO9z3A0AALAf60IAAAAAcDzf1wAAAPbguBsAAGA/rQQAAAAAcLRWAgAAgPc57gYAANiPZSEAAAAAOF4rAQAAwPuyqlQAAAB47/GU6fEEAAAAAMd7qKq1DAAAAG+z3A0AAPCOzGxVAAAAAICTrDKzkQEAAOBtjrsBAADe10oAAAAAACfbSAAAAPA2x90AAADv86MTAAAAAJyulQAAAOBtjrsBAADe57gbAAAAAE7nOxsAAMA7sqpUAAAAeO3RlLmOiO9KAAAAAMDpqipVAAAAeJ3lbgAAgLdZEwIAAACAjmSm720AAABvcNwNAADwtlYCAAAAAOiM424AAIA3OO4GAAB4mx+bAAAAAKA7vrcBAAC8wXE3AADA2/zYBAAAAADd8b0NAADgDVlVKgAAALz0YMpcR8R3JQAAAACgO1WVKgAAALzMcjcAAMDrrAgBAAAAQMcy03c3AACAVzjuBgAAeF0rAQAAAAB0znE3AADAKxx3AwAAvM6PTAAAAADQvUYCAACAlznuBgAAeJ3jbgAAAADoXisBAADAy7KqVAAAAHjpwZTpwQQAAAAA3XuoqrUMAAAAz1nuBgAAeEFmtioAAAAAwFmsMrORAQAA4DnH3QAAAC/bSAAAAAAAZ9NIAAAA8JzjbgAAgJc1EgAAAADA2bQSAAAAPOe4GwAA4GWWuwEAAADgfHx/AwAAeIHjbgAAgJddSgAAAAAAZ9NIAAAA8FxWlQoAAAD/fChlNhFxqwQAAAAAnE9VpQoAAAA/s9wNAADwnL+EBQAAAIAzy8xWBQAAgJ857gYAAHjOcTcAAAAAnF8jAQAAwM8cdwMAADznuBsAAAAAzq+RAAAA4GeOuwEAAJ5rJAAAAACAs2slAAAA+FlWlQoAAAD/fChleigBAAAAwPndV1UjAwAAwA+WuwEAAP4hMzcqAAAAAEAvLiQAAAD4meNuAACAnzUSAAAAAEA/MrNVAQAA4AfH3QAAAD+z3A0AAAAA/WkkAAAA+MFxNwAAwM8cdwMAAABAfxoJAAAAfnDcDQAA8LNGAgAAAADoTSsBAADAD1lVKgAAAPz1SMr0SAIAAACA/txXVSMDAADAI8vdAAAATzJzowIAAAAA9OpCAgAAgB8cdwMAAPywlgAAAAAA+pWZrQoAAACPHHcDAAD80EoAAAAAAL0zugAAAPDEcTcAAMAPjQQAAAAA0LuNBAAAAI8cdwMAAPzQSAAAAAAAvXPcDQAA8MRxNwAAwA9+RAIAAACA/q0lAAAAeJRVpQIAAEBEZKYHEgAAAAAMoKpSBQAAAMvdAAAAERGRma0KAAAAADCMzLTeDQAAEI67AQAA/tJIAAAAAACD2UgAAADguBsAAOAvjQQAAAAAMJhGAgAAAMfdAAAAf7EMBAAAAADDaSQAAABw3A0AAPCXtQQAAAAAMBjjCwAAAOG4GwAA4C9+PAIAAACA4RhfAAAAiIisKhUAAACPo0yPIwAAAAAYUFWlCgAAwNJZ7gYAABYvM1sVAAAAAGBYmWm9GwAAWDzH3QAAAP7yFQAAAADGYCMBAACwdI67AQAA/GgEAAAAAGNghAEAAFg8x90AAAB+NAIAAACAMTDCAAAALJ7jbgAAAD8aAQAAAMAYNBIAAABL57gbAADAcjcAAAAAjEEjAQAAsHRZVSoAAADLfhhlehgBAAAAwPDuq6qRAQAAWDLH3QAAwLIfRZnriPiuBAAAAAAMr6pSBQAAYMk+SAAAACzcRgIAAAAAGIfMbFQAAACWzHE3AACwdGsJAAAAAGA0GgkAAIAlc9wNAAAsneVuAAAAABgPYwwAAMCiOe4GAACWzo9FAAAAADAexhgAAIBFc9wNAAAsnR+LAAAAAGA8jDEAAACL5rgbAAAAAAAAABgLYwwAAMCiOe4GAACW7lICAAAAAAAAAGAMsqpUAAAAlvsoyvQoAgAAAIARqapUAQAAWCrL3QAAwGJlpr94BQAAAAAAAABGw3E3AACwZGsJAAAAAGBcjDIAAABL5rgbAABYMsfdAAAAADA+vtsBAACL5bgbAABYMgtAAAAAADA+jrsBAIDFctwNAAAAAAAAAIyJUQYAAGCxHHcDAABL1koAAAAAAAAAAIyF424AAAAAAAAAYEwsdwMAAIvluBsAAFiyRgIAAAAAGJ21BAAAwFI57gYAAJbsQgIAAAAAGB3H3QAAwGJlVakAAAAs80GU6UEEAAAAACNUVakCAACwRJa7AQCARcrMjQoAAAAAAAAAwJg47gYAAJbKX7sCAAAAwEhlZqMCAACwRI67AQAAAAAAAICxaSQAAACWyHE3AACwVK0EAAAAAAAAAMCYOO4GAAAAAAD4f/bu7iqSI4vCaIQcUJlQHgwejExuExILVFjQiQVdWHDnodViEBT1Cxytu7cJ5y0yvhUJAKS5MwEAANCRuBsAAOhqYwIAAAAAiOX7HQAA0JK4GwAA6MrLPwAAAAAAAABAFHE3AAAAAAAAAJDG4wwAAEBL4m4AAAAAAAAAIM3GBAAAQEfibgAAoKv/mgAAAAAAAAAASDKrygoAAEC/w9CcDkMAAAAAkOupqrzeDQAAtCPuBgAAeh6GxN0AAAAAEK2qphUAAIBufjMBAADQzZzzzgoAAAAAAAAAQBpxNwAA0JHfuQIAAABAuDmn73gAAEA74m4AAAAAAAAAIJE/8AEAAO2IuwEAgI68+AMAAAAAAAAAxBF3AwAAHXnxBwAAAAAAAACII+4GAAAAAAAAABJ5pAEAAGhH3A0AAAAAAAAAJNqYAAAA6EbcDQAAdLQ1AQAAAAAAAACQRtwNAAB0tDUBAAAAAAAAAJBG3A0AAAAAAAAAJLozAQAA0I24GwAAAAAAAABItDEBAADQjbgbAADoyKUQAAAAAAAAABBH3A0AAHT0HxMAAAAAAAAAAGnE3QAAAAAAAABAIn/gAwAA2plVZQUAAKDXQWhOByEAAAAA+BeoqmkFAACgEy93AwAAAAAAAAAAAAAEEHcDAACtzDm3VgAAAAAAAAAAEom7AQCAbrYmAAAAAAAAAAASibsBAAAAAAAAAAAAAAKIuwEAAAAAAACASHPOP6wAAAB0Iu4GAAAAAAAAAAAAAAgg7gYAAAAAAAAAAAAACCDuBgAAurkzAQAAAAAAAACQSNwNAAB0szEB6QlV+gAAIABJREFUAAAAAAAAAJBI3A0AAAAAAAAAAAAAEEDcDQAAAAAAAACk2poAAADoRNwNAAAAAAAAAKTamgAAAOhE3A0AAAAAAAAAAAAAEEDcDQAAAAAAAAAAAAAQQNwNAAAAAAAAAAAAABBA3A0AAHTzhwkAAAAAAAAAgETibgAAAAAAAAAAAACAAOJuAAAAAAAAAAAAAIAA4m4AAAAAAAAAAAAAgADibgAAAAAAAAAg1cYEAABAJ+JuAAAAAAAAACDVnQkAAIBOxN0AAAAAAAAAAAAAAAHE3QAAAAAAAAAAAAAAAcTdAAAAAAAAAAAAAAABxN0AAAAAAAAAAAAAAAHE3QAAAAAAAAAAAAAAAcTdAAAAAAAAAAAAAAABxN0AAAAAAAAAAAAAAAHE3QAAAAAAAAAAAAAAAcTdAAAAAAAAAAAAAAABxN0AAAAAAAAAAAAAAAHE3QAAAAAAAAAAAAAAAcTdAAAAAAAAAAAAAAABxN0AAAAAAAAAAAAAAAHE3QAAAAAAAAAAAAAAAcTdAAAAAAAAAAAAAAABxN0AAAAAAAAAAAAAAAHE3QAAAAAAAAAAAAAAAcTdAAAAAAAAAAAAAAABxN0AAAAAAAAAAAAAAAHE3QAAAAAAAAAAAAAAAcTdAAAAAAAAAAAAAAABxN0AAAAAAAAAAAAAAAHE3QAAAAAAAAAAAAAAAcTdAAAAAAAAAAAAAAABxN0AAAAAAAAAAAAAAAHE3QAAAAAAAAAAAAAAAcTdAAAAAAAAAAAAAAABxN0AAAAAAAAAAAAAAAHE3QAAAAAAAAAAAAAAAcTdAAAAAAAAAAAAAAABxN0AAAAAAAAAAAAAAAHE3QAAAAAAAAAAAAAAAcTdAAAAAAAAAAAAAAABxN0AAAAAAAAAAAAAAAHE3QAAAAAAAAAAAAAAAcTdAAAAAAAAAAAAAAABxN0AAAAAAAAAAAAAAAHE3QAAAAAAAAAAAAAAAcTdAAAAAAAAAAAAAAABxN0AAAAAAAAAAAAAAAHE3QAAAAAAAAAAAAAAAcTdAAAAAAAAAAAAAAABxN0AAAAAAAAAAAAAAAHE3QAAAAAAAAAAAAAAAcTdAAAAAAAAAAAAAAABxN0AAAAAAAAAAAAAAAHE3QAAAAAAAAAAAAAAAcTdAAAAAAAAAAAAAAABxN0AAAAAAAAAAAAAAAHE3QAAAAAAAAAAAAAAAcTdAAAAAAAAAAAAAAABxN0AAAAAAAAAAAAAAAHE3QAAAAAAAAAAAAAAAcTdAAAAAAAAAAAAAAABxN0AAAAAAAAAAAAAAAHE3QAAAAAAAAAAAAAAAcTdAAAAAAAAAAAAAAABxN0AAAAAAAAAAAAAAAHE3QAAAAAAAAAAAAAAAcTdAAAAAAAAAAAAAAABxN0AAAAAAAAAAAAAAAHE3QAAAAAAAAAAAAAAAcTdAAAAAAAAAAAAAAABxN0AAAAAAAAAAAAAAAHE3QAAAAAAAAAAAAAAAcTdAAAAAAAAAAAAAAABxN0AAAAAAAAAAAAAAAHE3QAAAAAAAAAAAAAAAcTdAAAAAAAAAAAAAAABxN0AAAAAAAAAAAAAAAHE3QAAAAAAAAAAAAAAAcTdAAAAAAAAAAAAAAABxN0AAAAAAAAAAAAAAAHE3QAAAAAAAAAAAAAAAcTdAAAAAAAAAAAAAAABxN0AAAAAAAAAAAAAAAHE3QAAAAAAAAAAAAAAAcTdAAAAAAAAAAAAAAABxN0AAAAAAAAAAAAAAAHE3QAAAAAAAAAAAAAAAcTdAAAAAAAAAAAAAAABxN0AAAAAAAAAAAAAAAHE3QAAAAAAAAAAAAAAAcTdAAAAAAAAAAAAAAABxN0AAAAAAAAAAAAAAAHE3QAAAAAAAAAAAAAAAcTdAAAAAAAAAAAAAAABxN0AAAAAAAAAAAAAAAHE3QAAAAAAAAAAAAAAAcTdAAAAAAAAAAAAAAABxN0AAAAAAAAAAAAAAAHE3QAAAAAAAAAAAAAAAcTdAAAAAAAAAAAAAAABxN0AAAAAAAAAAAAAAAHE3QAAAAAAAAAAAAAAAcTdAAAAAAAAAAAAAAABxN0AAAAAAAAAAAAAAAHE3QAAAAAAAAAAAAAAAcTdAAAAAAAAAAAAAAABxN0AAAAAAAAAAAAAAAHE3QAAAAAAAAAAAAAAAcTdAAAAAAAAAAAAAAABxN0AAAAAAAAAAAAAAAHE3QAAAAAAAAAAAAAAAcTdAAAAAAAAAAAAAAABxN0AAAAAAAAAAAAAAAHE3QAAAAAAAAAAAAAAAcTdAAAAAAAAAAAAAAABxN0AAAAAAAAAAAAAAAHE3QAAAAAAAAAAAAAAAcTdAAAAAAAAAAAAAAABxN0AAAAAAAAAAAAAAAHE3QAAAAAAAAAAAAAAAcTdAAAAAAAAAAAAAAABxN0AAAAAAAAAAAAAAAHE3QAAAAAAAAAAAAAAAcTdAAAAAAAAAAAAAAABxN0AAAAAAAAAAAAAAAHE3QAAAAAAAAAAAAAAAcTdAAAAAAAAAAAAAAABxN0AAAAAAAAAAAAAAAHE3QAAAAAAAAAAAAAAAcTdAAAAAAAAAAAAAAABxN0AAAAAAAAAAAAAAAHE3QAAAAAAAAAAAAAAAcTdAAAAAAAAAAAAAAABxN0AAAAAAAAAAAAAAAHE3QAAAAAAAAAAAAAAAcTdAAAAAAAAAAAAAAABxN0AAAAAAAAAAAAAAAHE3QAAAAAAAAAAAAAAAcTdAAAAAAAAAAAAAAABxN0AAAAAAAAAAAAAAAHE3QAAAAAAAAAAAAAAAcTdAAAAAAAAAECqvQkAAIBOxN0AAAAAAAAAQKqdCQAAgE7E3QAAAAAAAAAAAAAAAcTdAAAAAAAAAAAAAAABxN0AAAAAAAAAAAAAAAHE3QAAQDerCQAAAAAAAACAROJuAACgm9UEAAAAAAAAAEAicTcAAAAAAAAAAAAAQABxNwAAAAAAAAAAAABAAHE3AAAAAAAAAAAAAEAAcTcAAAAAAAAAkGoxAQAA0Im4GwAAAAAAAAAAAAAggLgbAAAAAAAAAAAAACCAuBsAAOhmMQEAAAAAAAAAkEjcDQAAAAAAAAAAAAAQQNwNAAAAAAAAAAAAABBA3A0AAAAAAAAApFpNAAAAdCLuBgAAAAAAAAAiVdVqBQAAoBNxNwAA0M3eBAAAAAAAAABAollVVgAAAHodhOZ0EAIAAACAf4GqmlYAAAA68XI3AAAAAAAAAAAAAEAAcTcAAAAAAAAAkOjRBAAAQDfibgAAAAAAAAAg0WoCAACgG3E3AADQ0ZMJAAAAAAAAAIA04m4AAKCjnQkAAAAAAAAAgDTibgAAAAAAAAAAAACAAOJuAAAAAAAAACDRYgIAAKAbcTcAAAAAAAAAAAAAQABxNwAA0NFiAgAAAAAAAAAgjbgbAAAAAAAAAAAAACCAuBsAAAAAAAAASLSYAAAA6EbcDQAAdLQ3AQAAAAAAAACQRtwNAAB0tDMBAAAAAAAAAJBG3A0AAAAAAAAAJPIHPgAAoB1xNwAAAAAAAAAQp6r8gQ8AAGhnVpUVAACAXgehOTdjjB+WAAAAAIBcVTWtAAAAdCPuBgAAeh6G5nQYAgAAAIBg4m4AAKCj30wAAAAAAAAAAIS5NwEAANCRuBsAAOjq0QQAAAAAAAAAQBJxNwAA0NVqAgAAAAAAAAAgibgbAAAAAAAAAEizMwEAANCRuBsAAOhqNQEAAAAAxNqbAAAA6EjcDQAAdLWaAAAAAAAAAABIIu4GAAAAAAAAANLsTAAAAHQk7gYAALpaTQAAAAAAsfYmAAAAOhJ3AwAAXa0mAAAAAAAAAACSiLsBAAAAAAAAgChVtVgBAADoaFaVFQAAgH6HoTk3Y4wflgAAAACAPFU1rQAAAHTk5W4AAKClqtpbAQAAAAAiPZkAAADoStwNAAB05pIIAAAAAPLsTAAAAHQl7gYAADpzSQQAAAAAAAAAxBB3AwAAAAAAAABJPMoAAAC0Je4GAAA6c0kEAAAAAHn2JgAAALoSdwMAAJ25JAIAAACAPL7bAQAAbYm7AQCAzlwSAQAAAEAef9wDAADaEncDAACduSQCAAAAAAAAAGKIuwEAAAAAAACAGFW1WAEAAOhqVpUVAACAvoeiOR2KAAAAACBIVU0rAAAAXXm5GwAAAAAAAABI8WACAACgM3E3AADQncsiAAAAAMixNwEAANCZuBsAAOjOZREAAAAA5FhNAAAAdCbuBgAAultNAAAAAAAxVhMAAACdibsBAIDuVhMAAAAAQAx/2gMAAFoTdwMAAN25LAIAAACAHDsTAAAAnYm7AQCA7lwWAQAAAEAOjzEAAACtibsBAIDuXBYBAAAAQIiq8hgDAADQ2qwqKwAAAL0PRnM6GAEAAADA13uqqo0ZAACAzrzcDQAAMMaTCQAAAADgy3m1GwAAaE/cDQAA4NIIAAAAABLsTQAAAHQn7gYAAHBpBAAAAAAJPMIAAAC0J+4GAABwaQQAAAAACTzCAAAAtCfuBgAAGGM1AQAAAAB8OY8wAAAA7Ym7AQAAxN0AAAAAkGA1AQAA0J24GwAAwKURAAAAAHy5qlqtAAAAdCfuBgAA2nNpBAAAAABf7tEEAAAA4m4AAIBfHkwAAAAAAF9mNQEAAIC4GwAA4Je9CQAAAADgy+xMAAAAIO4GAAD4ZTEBAAAAAHwZjy8AAAAMcTcAAMAvLo8AAAAA4OssJgAAABB3AwAA/OK3rwAAAADwdTy+AAAAMMaYVWUFAADA4WjO7RjjuyUAAAAA4PNV1bQCAACAl7sBAADGGGNU1WoFAAAAAPgSjyYAAAD4SdwNAADw7MEEAAAAAPDpVhMAAAD8JO4GAAB4tpoAAAAAAD7dYgIAAICfxN0AAADPdiYAAAAAgE+3NwEAAMBP4m4AAIBnqwkAAAAA4NN5dAEAAOAv4m4AAIBnqwkAAAAA4NOJuwEAAP4yq8oKAAAAvw5JczokAQAAAMAnqqppBQAAgJ+83A0AAPDSowkAAAAA4NPcmwAAAOCZuBsAAOCl1QQAAAAA8GlWEwAAADwTdwMAALy0MwEAAAAAfJrVBAAAAM/E3QAAAC+tJgAAAACAT7OYAAAA4Jm4GwAA4CUvdwMAAADA51lNAAAA8GxWlRUAAAB+HZLm3IwxflgCAAAAAD5eVU0rAAAAPPNyNwAAwP+pqv0Y48kSAAAAAPDh7k0AAADwkrgbAADgtZ0JAAAAAODDrSYAAAB4SdwNAADw2mICAAAAAPhwqwkAAABeEncDAAC8tpoAAAAAAD7cYgIAAICXxN0AAACvrSYAAAAAgA+3MwEAAMBLs6qsAAAA8M/D0pwOSwAAAADwcZ6qamMGAACAl7zcDQAA8LYHEwAAAADAh/FqNwAAwBvE3QAAAG9bTQAAAAAAH0bcDQAA8AZxNwAAwNtcLgEAAADAx/H9DQAA4A3ibgAAgLctJgAAAACADyPuBgAAeMOsKisAAAD887A053aM8d0SAAAAAHB7VTWtAAAA8JqXuwEAAN5QVesY48kSAAAAAHBzDyYAAAB4m7gbAADgML+GBQAAAIDb890NAADgAHE3AADAYYsJAAAAAODmxN0AAAAHiLsBAAAOW00AAAAAADcn7gYAADhgVpUVAAAA3jowzXk3xvjTEgAAAABwO1U1rQAAAPA2cTcAAMB7h6Y5HZoAAAAA4HYeq2prBgAAgLf9ZgIAAIB33ZsAAAAAAG5mZwIAAIDDxN0AAADvc9kEAAAAALfjexsAAMA7xN0AAADvc9kEAAAAALezmAAAAOCwWVVWAAAAOHRomvNujPGnJQAAAADgelU1rQAAAHCYl7sBAADeUVVe7gYAAACA23gwAQAAwPvE3QAAAMfdmwAAAAAAruYhBQAAgCPE3QAAAMctJgAAAACAq4m7AQAAjhB3AwAAHOfSCQAAAACu5zsbAADAEbOqrAAAAPDewWnO7RjjuyUAAAAA4HJVNa0AAADwPi93AwAAHFFV6xjjyRIAAAAAcLF7EwAAABwn7gYAADjNYgIAAAAAuNjOBAAAAMeJuwEAAE7j8gkAAAAALuf7GgAAwAnE3QAAAKdZTAAAAAAAF1tMAAAAcNysKisAAACccoCa0wEKAAAAAM73VFUbMwAAABzn5W4AAIDTPZgAAAAAAM62mAAAAOA04m4AAIDTLSYAAAAAgLPtTAAAAHAacTcAAMDpXEIBAAAAwPkWEwAAAJxmVpUVAAAATjlAzbkdY3y3BAAAAACcrqqmFQAAAE7j5W4AAIATVdU6xniyBAAAAACc7MEEAAAApxN3AwAAnGcxAQAAAACcbDEBAADA6cTdAAAA51lMAAAAAAAnW0wAAABwOnE3AADAeRYTAAAAAMDJdiYAAAA43awqKwAAAJxzkJrTQQoAAAAAjnusqq0ZAAAATuflbgAAgPPdmwAAAAAAjlpMAAAAcB5xNwAAwPkWEwAAAADAUYsJAAAAziPuBgAAON9iAgAAAAA4ajEBAADAeWZVWQEAAODcw9ScDlMAAAAAcNhjVW3NAAAAcB4vdwMAAFzm3gQAAAAAcNDOBAAAAOcTdwMAAFxmMQEAAAAAHLSYAAAA4HzibgAAgMssJgAAAACAgxYTAAAAnG9WlRUAAAAuOVDN6UAFAAAAAK89VdXGDAAAAOfzcjcAAMDl7k0AAAAAAK8sJgAAALiMuBsAAOByiwkAAAAA4JXFBAAAAJcRdwMAAFxuMQEAAAAAvLKYAAAA4DKzqqwAAABw6aFqTocqAAAAAHj2WFVbMwAAAFzGy90AAADXuTcBAAAAAPxtMQEAAMDlxN0AAADXWUwAAAAAAH9bTAAAAHA5cTcAAMB1FhMAAAAAwN8WEwAAAFxuVpUVAAAArjlYzbkfY/xuCQAAAACae6yqrRkAAAAu5+VuAACA6y0mAAAAAADfyQAAAK4l7gYAALjeYgIAAAAAGN9MAAAAcB1xNwAAwPUWEwAAAACA72QAAADXEncDAABcqap2Y4xHSwAAAADQ2ENV7c0AAABwHXE3AADAbSwmAAAAAKCxbyYAAAC4nrgbAADgNhYTAAAAANDYYgIAAIDrzaqyAgAAwLWHqzk3Y4wflgAAAACgoaeq2pgBAADgel7uBgAAuIGq2o8xHiwBAAAAQEOLCQAAAG5D3A0AAHA730wAAAAAQEO+iwEAANyIuBsAAOB2FhMAAAAA0NBiAgAAgNuYVWUFAACAWx2y5tyPMX63BAAAAABNPFbV1gwAAAC34eVuAACA21pMAAAAAEAj30wAAABwO+JuAACA/7F3r4VxXum2RucyAakRuILAYtBicMxgKwzcDGwGNgOJgYygywgiIbCEYEsI5vmR6t5JdxLf6vJdxoDw/FuqqffbLz9mAQAAALAmWwkAAAD2Z7RVAQAAYF+PrDE2ST4rAQAAAMAKPLc9lwEAAGB/XO4GAADYo7YPSe6VAAAAAGAFthIAAADsl3E3AADA/t1KAAAAAMAK+DsYAADAnhl3AwAA7J8ftQAAAABYg60EAAAA+zXaqgAAALDvx9YYT0nOlAAAAABgoe7bXsgAAACwXy53AwAAHIbr3QAAAAAsmb9/AQAAHIBxNwAAwGH4cQsAAACAJfP3LwAAgAMYbVUAAADY92NrjPMk/6sEAAAAAAv02HYjAwAAwP653A0AAHAAbZ+SfFQCAAAAgAXaSgAAAHAYxt0AAACHs5UAAAAAgAW6lQAAAOAwRlsVAAAADvHgGmOT5LMSAAAAACxJ26ECAADAYbjcDQAAcCBtH5LcKwEAAADAgnyUAAAA4HCMuwEAAA7rWgIAAAAAFuRWAgAAgMMZbVUAAAA41KNrjIskvygBAAAAwEL8re2TDAAAAIfhcjcAAMABtb1L8qgEAAAAAAvwybAbAADgsIy7AQAADs+nagEAAABYAn/nAgAAOLDRVgUAAIBDPrzGuEjyixIAAAAAzNxPbR9kAAAAOByXuwEAAA6s7V2SRyUAAAAAmLF7w24AAIDDM+4GAAA4jq0EAAAAAMzYtQQAAACHZ9wNAABwHLcSAAAAADBj/r4FAABwBKOtCgAAAMd4gI3xlORMCQAAAABm5r7thQwAAACH53I3AADA8bhuBAAAAMAcbSUAAAA4DuNuAACA4zHuBgAAAGCOriUAAAA4jtFWBQAAgGM9wsZ4SnKmBAAAAAAz8dh2IwMAAMBxuNwNAABwXK53AwAAADAn/p4FAABwRMbdAAAAx+XHMAAAAADm5FoCAACA4xltVQAAADjmQ2yMpyRnSgAAAAAwcY9tNzIAAAAcj8vdAAAAx+d6NwAAAABzcC0BAADAcRl3AwAAHJ9xNwAAAABzcC0BAADAcY22KgAAABz7MTbGU5IzJQAAAACYqPu2FzIAAAAcl8vdAAAAp+F6NwAAAABTdi0BAADA8bncDQAAcIrH2BgXSX5RAgAAAICJ+qntgwwAAADH5XI3AADACbS9S/KoBAAAAAATdG/YDQAAcBrG3QAAAKdzKwEAAAAAE3QtAQAAwGmMtioAAACc4kE2xkWSX5QAAAAAYGJ+crkbAADgNFzuBgAAOJG2d0kelQAAAABgQj4adgMAAJyOcTcAAMBpvZcAAAAAgAm5lQAAAOB0RlsVAAAATvUoG2OT5LMSAAAAAEzE39o+yQAAAHAaLncDAACc0O4Tt/dKAAAAADABN4bdAAAAp2XcDQAAcHrvJQAAAABgAm4lAAAAOK3RVgUAAIBTPszGOE/yv0oAAAAAcELPbc9lAAAAOC2XuwEAAE5s96nbj0oAAAAAcELXEgAAAJyecTcAAMA0XEsAAAAAwAldSwAAAHB6o60KAAAAU3igjfGU5EwJAAAAAI7sse1GBgAAgNNzuRsAAGA6riUAAAAA4ATeSwAAADANLncDAABM5YE2xkWSX5QAAAAA4Mh+avsgAwAAwOm53A0AADARbe+SPCoBAAAAwBF9NOwGAACYDuNuAACAafEJXAAAAACO6VYCAACA6RhtVQAAAJjKI22MTZLPSgAAAABwBM9tz2UAAACYDpe7AQAAJmT3CdyPSgAAAABwBK52AwAATIxxNwAAwPRcSwAAAADAEbyXAAAAYFpGWxUAAACm9lgb4ynJmRIAAAAAHMh92wsZAAAApsXlbgAAgGm6lgAAAACAA7qWAAAAYHpc7gYAAJjiY22MTZLPSgAAAABwIH9r+yQDAADAtLjcDQAAMEFtH5J8UgIAAACAA7gx7AYAAJgm424AAIDpupYAAAAAgAO4lgAAAGCaRlsVAAAApvhgG+M8yUOSMzUAAAAA2JPHthsZAAAApsnlbgAAgInafRr3VgkAAAAA9ui9BAAAANPlcjcAAMCUH21jXCT5RQkAAAAA9uSntg8yAAAATJPL3QAAABPW9i7JvRIAAAAA7MFHw24AAIBpM+4GAACYPp/KBQAAAGAfriUAAACYttFWBQAAgCk/3MY4T/KQ5EwNAAAAAL7TY9uNDAAAANPmcjcAAMDEtX1KcqsEAAAAAD/A1+EAAABmwOVuAACAOTzextgk+awEAAAAAN/pb7sjAgAAAEyYy90AAAAz0PYhySclAAAAAPgON4bdAAAA82DcDQAAMB/XEgAAAADwHa4lAAAAmIfRVgUAAIC5POLGeEpypgQAAAAAX+mx7UYGAACAeXC5GwAAYF7eSwAAAADAN3grAQAAwHy43A0AADCnR9wYmySflQAAAADgKzwn2bR9kgIAAGAeXO4GAACYkbYPST4qAQAAAMBXuDbsBgAAmBeXuwEAAOb2kBvjMsk/lQAAAADgC37aHQsAAABgJlzuBgAAmJm22ySPSgAAAADwFz4ZdgMAAMyPcTcAAMA8vZUAAAAAgL/wXgIAAID5GW1VAAAAmNtjbozzJA9JztQAAAAA4D88tt3IAAAAMD8udwMAAMxQ26ck10oAAAAA8Adc7QYAAJgpl7sBAADm+qAbY5PksxIAAAAA/MZzks3uOAAAAAAz43I3AADATLV9SPJRCQAAAAB+49awGwAAYL5c7gYAAJjzo26MyyT/VAIAAACAnZ92RwEAAACYIZe7AQAAZqztNsm9EgAAAAAk+WjYDQAAMG/G3QAAAPP3XgIAAAAA4u9EAAAAszfaqgAAADD3x90YT0nOlAAAAABYrce2GxkAAADmzeVuAACAZXCVCQAAAGDd3koAAAAwfy53AwAALOFxN8Z5koe43g0AAACwRq52AwAALITL3QAAAAvQ9inJrRIAAAAAq3QtAQAAwDK43A0AALCUB94YmySflQAAAABYleckm90//wMAADBzLncDAAAsRNuHJB+VAAAAAFiVW8NuAACA5XC5GwAAYEmPvDEuk/xTCQAAAIDV+Gn3T/8AAAAsgMvdAAAAC9J2m+STEgAAAACrcGPYDQAAsCzG3QAAAMtzLQEAAADAKlxLAAAAsCyjrQoAAABLe+yN8ZDkpRIAAAAAi/Wp7aUMAAAAy+JyNwAAwDK9lQAAAABg0d5KAAAAsDwudwMAACz1wed6NwAAAMBSPbbdyAAAALA8LncDAAAs17UEAAAAAIv0VgIAAIBlcrkbAABgqQ++Mc6TPCQ5UwMAAABgMVztBgAAWDCXuwEAABaq7VOS90oAAAAALMpbCQAAAJbL5W4AAIAlP/pc7wYAAABYkue25zIAAAAsl8vdAAAAC7a73n2rBAAAAMAi+EobAADAwrncDQAAsPSH3xibJJ+VAAAAAJi15ySb3T/zAwAAsFAudwMAACxc24ckN0oAAAAAzNp7w24AAIDlc7kbAABgDY8/17sBAAAA5szVbgAAgJVwuRsAAGAFXO8GAAAAmDVXuwEAAFbC5W4AAIC1PABd7wYAAACYI1e7AQAAVsTlbgAAgJVwvRsAAABglq4NuwEAANbD5W4AAIA1PQJd7wYAAACYm592/7QPAADACrjcDQAAsCK7HwI/KgEAAAAwCzeG3QAAAOvicjcAAMDaHoJjXCb5pxIH96lGAAAgAElEQVQAAAAAk+dqNwAAwMq43A0AALAybbdJPikBAAAAMGmudgMAAKyQy90AAABrfAy63g0AAAAwda52AwAArJDL3QAAACvkejcAAADApLnaDQAAsFIudwMAAKz1Qeh6NwAAAMBUudoNAACwUi53AwAArNTueveNEgAAAACT4mo3AADAirncDQAAsOZH4RibJJ+VAAAAAJiE5yQXxt0AAADr5XI3AADAiu1+KHS9GwAAAGAa3ht2AwAArJvL3QAAAGt/GLreDQAAADAFz0k2bZ+kAAAAWC+XuwEAAFbO9W4AAACASXhv2A0AAIDL3QAAALjeDQAAAHBarnYDAACQxOVuAAAA4no3AAAAwIm52g0AAEASl7sBAAD41wPR9W4AAACAU3C1GwAAgH9zuRsAAIAk/77e/U4JAAAAgKN6a9gNAADAv7jcDQAAwP89Esc4T/KQ5EwNAAAAgIN7bLuRAQAAgH9xuRsAAIB/212Jeq8EAAAAwFG8lQAAAIDfcrkbAACA3z8UXe8GAAAAOAZXuwEAAPgvLncDAADwO7vr3W+VAAAAADioNxIAAADwn1zuBgAA4I8fjGM8JHmpBAAAAMDefWp7KQMAAAD/yeVuAAAA/sxbCQAAAAAO4q0EAAAA/BGXuwEAAPjzR+MYd0leKQEAAACwN652AwAA8KeMuwEAAPjzR+MYl0n+qQQAAADA3vzU9kEGAAAA/sgLCQAAAPgzbbdJPikBAAAAsBc3ht0AAAD8FZe7AQAA+OuH4xgXSX5RAgAAAOCHPCe5MO4GAADgr7jcDQAAwF9qe5fkRgkAAACAH/LesBsAAIAvcbkbAACALz8ex9gkuUtypgYAAADAN3tOsmn7JAUAAAB/xeVuAAAAvmh3Veq9EgAAAADf5Y1hNwAAAF/D5W4AAAC+7gE5xnmSh7jeDQAAAPAtHttuZAAAAOBruNwNAADAV9ldl3qjBAAAAMA3uZIAAACAr+VyNwAAAN/2kBzjIclLJQAAAAC+6FPbSxkAAAD4Wi53AwAA8K2uJAAAAAD4Kr6CBgAAwDcx7gYAAOCbtN0m+aQEAAAAwF+6aXsnAwAAAN9itFUBAACAb3tMjrFJ8lkJAAAAgD/0nGTT9kkKAAAAvoXL3QAAAHyztg9JPigBAAAA8IfeG3YDAADwPVzuBgAA4PselGOcJ3lIcqYGAAAAwL89tt3IAAAAwPdwuRsAAIDvsrs+9VYJAAAAgN95IwEAAADfy+VuAAAAfuxhOcZDkpdKAAAAAORT20sZAAAA+F4udwMAAPCjriQAAAAASOLvJAAAAPwg424AAAB+SNttko9KAAAAACv3oe2DDAAAAPyI0VYFAAAAfuxxOcYmyWclAAAAgJV6TrJp+yQFAAAAP8LlbgAAAH7Y7irVOyUAAACAlXpj2A0AAMA+uNwNAADAfh6YY5wnuUvyUg0AAABgRe7bXsgAAADAPrjcDQAAwF7srlO9UQIAAABYGX8PAQAAYG+MuwEAANibtrdJPikBAAAArMRN260MAAAA7MtoqwIAAAD7e2iOsUnyWQkAAABg4Z6TbHZfMwMAAIC9cLkbAACAvWr7kOSdEgAAAMDCvTXsBgAAYN9c7gYAAGD/j80xzpPcJXmpBgAAALBA920vZAAAAGDfXO4GAABg73ZXq94oAQAAACyUv3sAAABwEMbdAAAAHETb2ySflAAAAAAW5qbtVgYAAAAOYbRVAQAAgMM8OsfYJPmsBAAAALAQz0k2u6+WAQAAwN653A0AAMDBtH1I8k4JAAAAYCHeGHYDAABwSC53AwAAcPjH5xgPSV4qAQAAAMzYp7aXMgAAAHBILncDAABwDFcSAAAAADP3RgIAAAAOzbgbAACAg2u7TXKjBAAAADBT79reyQAAAMChjbYqAAAAcPgH6BjnSR6SnKkBAAAAzMhjkou2T1IAAABwaC53AwAAcBS7H0B9vhgAAACYmyvDbgAAAI7F5W4AAACO+xAdY5vk70oAAAAAM/Cx7WsZAAAAOBbjbgAAAI77EB1jk+SzEgAAAMDEPSfZuNoNAADAMb2QAAAAgGNq+5DknRIAAADAxL0x7AYAAODYXO4GAADgNA/SMe6SvFICAAAAmKBPbS9lAAAA4Nhc7gYAAOBU3kgAAAAATNBzkisZAAAAOAXjbgAAAE6i7TbJByUAAACAiXnf9kEGAAAATmG0VQEAAIDTPErHOE9yl+SlGgAAAMAE3Le9kAEAAIBTcbkbAACAk2n7FJ85BgAAAKbjSgIAAABOybgbAACAk2q7TfJRCQAAAODE3rW9kwEAAIBTGm1VAAAA4LSP0zHOkzwkOVMDAAAAOIHHthsZAAAAODWXuwEAADi5tk/x2WMAAADgdK4kAAAAYAqMuwEAAJiEtrdJPioBAAAAHNmHtlsZAAAAmILRVgUAAACm8Ugd4zzJQ5IzNQAAAIAjeExysfuqGAAAAJycy90AAABMxu6H1CslAAAAgCO5MuwGAABgSoy7AQAAmJS2t0k+KgEAAAAc2Ie2WxkAAACYktFWBQAAAKb1WB3jPMlDkjM1AAAAgAN4THLhajcAAABT43I3AAAAk7P7YfVKCQAAAOBArgy7AQAAmCLjbgAAACap7W2Sj0oAAAAAe/ah7VYGAAAApmi0VQEAAIBpPlrHOE/ykORMDQAAAGAPHpNcuNoNAADAVLncDQAAwGTtfmi9UgIAAADYk9eG3QAAAEyZcTcAAACT1vY2yUclAAAAgB/0ru2dDAAAAEzZaKsCAAAA0368jnGe5C7JSzUAAACA73Df9kIGAAAAps7lbgAAACZv97nkKyUAAACA73QlAQAAAHNg3A0AAMAstN0m+aAEAAAA8I3etb2TAQAAgDkYbVUAAABgHo/YMc6TbJO8UgMAAAD4Cp/aXsoAAADAXBh3AwAAMK+H7BgXSX5RAgAAAPiC5yQXbR+kAAAAYC5eSAAAAMCc7D6j/E4JAAAA4AveGHYDAAAwNy53AwAAMM8H7RjbJH9XAgAAAPgDH9u+lgEAAIC5Me4GAABgng/aMTZJ7pKcqQEAAAD8xnOSTdsnKQAAAJibFxIAAAAwR7vPKr9RAgAAAPgPrw27AQAAmCvjbgAAAGar7XWSj0oAAAAAOx/abmUAAABgrkZbFQAAAJjvw3aM8yR3SV6qAQAAAKt23/ZCBgAAAObM5W4AAABmbfeZ5SslAAAAYNWe4+8DAAAALIBxNwAAALO3+9zyOyUAAABgtd62vZMBAACAuRttVQAAAGAZj9wx7pK8UgIAAABW5WPb1zIAAACwBMbdAAAALOeRO8YmyV2SMzUAAABgFR6TXLR9kgIAAIAleCEBAAAAS9H2IcmVEgAAALAaV4bdAAAALIlxNwAAAIvS9jbJjRIAAACweO/abmUAAABgSUZbFQAAAFjWY3eM8yTbJK/UAAAAgEX61PZSBgAAAJbGuBsAAIBlPnjHuMivA+8zNQAAAGBRnpNs2j5JAQAAwNK8kAAAAIAlanuX5I0SAAAAsDhXht0AAAAslXE3AAAAi9X2OslHJQAAAGAxPrS9lQEAAIClGm1VAAAAYLkP3zHOk9wleakGAAAAzNp92wsZAAAAWDKXuwEAAFi03WeaXysBAAAAs/bsfQ8AAMAaGHcDAACweG3vkvxDCQAAAJitq7YPMgAAALB0xt0AAACsQtv3SW6UAAAAgNn50PZWBgAAANZgtFUBAACAdTyCxzhPsk3ySg0AAACYhfu2FzIAAACwFsbdAAAArOshPMZFfh14n6kBAAAAk/acZNP2SQoAAADW4oUEAAAArEnbuyRvlAAAAIDJe23YDQAAwNoYdwMAALA6ba+T3CgBAAAAk/Wu7VYGAAAA1ma0VQEAAID1PYjHOE+yTfJKDQAAAJiUT20vZQAAAGCNjLsBAABY76N4jE2SuyRnagAAAMAkPCa5aPskBQAAAGv0QgIAAADWqu1DkislAAAAYDJeG3YDAACwZsbdAAAArFrb2yTvlAAAAICT+7ntnQwAAACs2WirAgAAAB7IY2yT/F0JAAAAOImbtlcyAAAAsHbG3QAAAJBkjHGe5C7JSzUAAADgqO7bXsgAAAAAyQsJAAAAIGn7lOR1kmc1AAAA4Gied+9xAAAAIMbdAAAA8G9t75K8UQIAAACO5nXbBxkAAADgV8bdAAAA8Bttr5N8UAIAAAAO7h9ttzIAAADA/xltVQAAAID/fDCPsU3ydyUAAADgIG7aXskAAAAAv2fcDQAAAH/0YB7jPMldkpdqAAAAwF7dJ7ls+yQFAAAA/N4LCQAAAOC/7X5gfp3kWQ0AAADYm+ckrw27AQAA4I8ZdwMAAMCfaHuX5I0SAAAAsDev2z7IAAAAAH/MuBsAAAD+QtvrJB+UAAAAgB/2c9utDAAAAPDnRlsVAAAA4EsP6DFuk/w/JQAAAOC73LS9kgEAAAD+mnE3AAAAfM0DeozzJNskr9QAAACAb3Lf9kIGAAAA+LIXEgAAAMCXtX1KcpXkWQ0AAAD4ao9JLmUAAACAr2PcDQAAAF+p7V2S10oAAADAV3lO8nr3D9MAAADAVzDuBgAAgG/QdpvkZyUAAADgi652/ygNAAAAfCXjbgAAAPhGba+T3CgBAAAAf+ofbW9lAAAAgG8z2qoAAAAA3/OoHmOb5O9KAAAAwO/ctL2SAQAAAL6dcTcAAAB876N6jPMk2ySv1AAAAIAkyX3bCxkAAADg+7yQAAAAAL5P26ckV0me1QAAAIA8JrmUAQAAAL6fcTcAAAD8gLZ38cM1AAAAPCd5vftHaAAAAOA7GXcDAADAD9oNvH9WAgAAgBV7vXsfAwAAAD/AuBsAAAD2oO11kg9KAAAAsEI/t93KAAAAAD/OuBsAAAD2pO2bJDdKAAAAsCIfdv/wDAAAAOzBaKsCAAAA7POxPcZdkldKAAAAsHA3ba9kAAAAgP0x7gYAAIB9P7bHOE+yjYE3AAAAy3Wf5LLtkxQAAACwP8bdAAAAcIgH9xgX+XXgfaYGAAAAC/OY5MKwGwAAAPbvhQQAAACwf23vklwmeVYDAACABXlO8tqwGwAAAA7DuBsAAAAOZDfwfqMEAAAAC3K5e+8CAAAAB2DcDQAAAAfU9jrJz0oAAACwAD8bdgMAAMBhGXcDAADAge0G3jdKAAAAMGM/7963AAAAwAEZdwMAAMARtL2KgTcAAADzdGPYDQAAAMcx2qoAAAAAx3qIj3GX5JUSAAAAzMTN7h+WAQAAgCMw7gYAAIBjPsTHOE+yjYE3AAAA03ff9kIGAAAAOB7jbgAAADj2Y/zXgfdDkjM1AAAAmKj7JJdtn6QAAACA43khAQAAABzX7ofxyyTPagAAADBBjzHsBgAAgJMw7gYAAIATaHsXA28AAACm5znJa8NuAAAAOA3jbgAAADiR3cD7SgkAAAAm4jm/Xuy+kwIAAABOw7gbAAAATqjtbZKflQAAAGACXht2AwAAwGkZdwMAAMCJtb2OgTcAAACn9XPbrQwAAABwWsbdAAAAMAG7gfcHJQAAADiBn3fvUgAAAODEjLsBAABgItq+SXKjBAAAAEf0D8NuAAAAmI7RVgUAAACY0mN9jOsk/6MEAAAAB3bT9koGAAAAmA7jbgAAAJjig32MbZK/KwEAAMCBGHYDAADABL2QAAAAACbpdZJ7GQAAADgAw24AAACYKJe7AQAAYKqP9jHOk2yTvFIDAACAPfnU9lIGAAAAmCaXuwEAAGCi2j4luYwL3gAAAOzHfX79UhQAAAAwUcbdAAAAMGEG3gAAAOzJfZLL3TsTAAAAmCjjbgAAAJi43Q/vV0me1QAAAOA7GHYDAADATBh3AwAAwAy0vcuvF7wNvAEAAPgWht0AAAAwI6OtCgAAADCXh/wYF0m2Sc7UAAAA4Asek1wYdgMAAMB8uNwNAAAAM+KCNwAAAF/pOclrw24AAACYF+NuAAAAmBkDbwAAAL7gOcnl7v0IAAAAzIhxNwAAAMyQgTcAAAB/wrAbAAAAZsy4GwAAAGbKwBsAAID/YNgNAAAAM2fcDQAAADNm4A0AAMCOYTcAAAAsgHE3AAAAzNzuh/srJQAAAFbLsBsAAAAWwrgbAAAAFqDtbZKflQAAAFgdw24AAABYEONuAAAAWIi21zHwBgAAWBPDbgAAAFgY424AAABYEANvAACA1TDsBgAAgAUy7gYAAICFMfAGAABYPMNuAAAAWCjjbgAAAFggA28AAIDFMuwGAACABRttVQAAAIClPvzHuEiyTXKmBgAAwOwZdgMAAMDCudwNAAAAC7b7wf8yvw4AAAAAmC/DbgAAAFgB424AAABYOANvAACA2TPsBgAAgJUw7gYAAIAVMPAGAACYLcNuAAAAWBHjbgAAAFgJA28AAIDZMewGAACAlTHuBgAAgBUx8AYAAJiN+xh2AwAAwOqMtioAAADAyowxLpJsk5ypAQAAMDn/GnY/SQEAAADr4nI3AAAArJAL3gAAAJNl2A0AAAArZtwNAAAAK7UbeG/y63AAAACA0zPsBgAAgJUz7gYAAIAV2w0GLmPgDQAAcGqG3QAAAIBxNwAAAKydgTcAAMDJfYxhNwAAAJBktFUBAAAAyBjjPMk2ySs1AAAAjuam7ZUMAAAAQOJyNwAAALDzmwveN2oAAAAchWE3AAAA8DsudwMAAAD/ZYxxneR/lAAAADgYw24AAADgv7jcDQAAAPyX3cDABW8AAIDD+IdhNwAAAPBHjLsBAACAP7QbGrxTAoD/z94dHbWVZl0YXtsJQAYmAysDayJo/ghajmDcGdgRDI5gIAOcgcgAMoAMUAT7vzhioGfsbjAgPknPU3XqyL5cxeVb+wAAL+pTd5+YAQAAAPiR6m4rAAAAAD9VVYsk/7YEAADAs33q7lMzAAAAAD8j7gYAAAD+lsAbAADgWVZJ5t19aQoAAADgr4i7AQAAgEepqnmS8yQH1gAAAHg0YTcAAADwaO9MAAAAADxGdy+TzDOFCQAAAPy9qwi7AQAAgCcQdwMAAACPtg4S5pkCBQAAAH5O2A0AAAA8WXW3FQAAAIAnqarDJMskH6wBAADwPy6SHHf3rSkAAACAp3C5GwAAAHiydaAwzxQsAAAAcO+su+fCbgAAAOBXiLsBAACAX9Ldt909T3JmDQAAgCTJt+5emAEAAAD4VeJuAAAA4FnW4cI3SwAAAHvuU3d/NgMAAADwHOJuAAAA4NnWAcMnSwAAAHtolSnsPjUFAAAA8FzV3VYAAAAAXkRVHSc5TXJgDQAAYA+sksy7+9IUAAAAwEtwuRsAAAB4Md19nmSeKXAAAADYZVcRdgMAAAAvzOVuAAAA4MVV1VGS8yQfrAEAAOygu7D71hQAAADAS3K5GwAAAHhx3X2d6YL3hTUAAIAdc9bdM2E3AAAA8BrE3QAAAMCr6O7b7p4nObMGAACwI75298IMAAAAwGup7rYCAAAA8Kqq6nOSf1kCAADYYp+6+9QMAAAAwGsSdwMAAAAbUVWLJCdJDqwBAABskVWSeXdfmgIAAAB4beJuAAAAYGOqapZkGYE3AACwHa6SLITdAAAAwKaIuwEAAICNqqrDTIH3B2sAAAADu0hy3N23pgAAAAA25Z0JAAAAgE1ahxHzJN+tAQAADOqsu+fCbgAAAGDTxN0AAADAxnX3bXcfJ/lmDQAAYDCfunthBgAAAOAtVHdbAQAAAHgzVbVI8m9LAAAAb2yV5Li7l6YAAAAA3oq4GwAAAHhzVTVLskxyYA0AAOANXCVZdPelKQAAAIC3JO4GAAAAhlBVh5kC7w/WAAAANugi08XuW1MAAAAAb+2dCQAAAIARrEOKeZIzawAAABvyrbvnwm4AAABgFC53AwAAAMOpqs9J/mUJAADgFX3q7lMzAAAAACMRdwMAAABDqqrjJKdJDqwBAAC8oFWSeXdfmgIAAAAYzTsTAAAAACPq7vMk8yRX1gAAAF7IVZIjYTcAAAAwKnE3AAAAMKx1cDFP8t0aAADAM51196y7b00BAAAAjErcDQAAAAytu2+7+zjJV2sAAAC/6FN3L8wAAAAAjK662woAAADAVqiq4ySnSQ6sAQAAPMIqyXz9VSAAAACA4bncDQAAAGyN7j5PMktyZQ0AAOBvXCQ5EnYDAAAA20TcDQAAAGyV7r5OMk9yZg0AAOAnvnX3vLtvTQEAAABsk+puKwAAAABbqao+J/mXJQAAgLVVks/dfWoKAAAAYBuJuwEAAICtVlWzJMskB9YAAIC9dpVk0d2XpgAAAAC21TsTAAAAANtsHW4cJbmwBgAA7K3vSebCbgAAAGDbibsBAACArdfdt909T/LVGgAAsHf+6O7j7r41BQAAALDtqrutAAAAAOyMqjpOcprkwBoAALDTbpIcu9YNAAAA7BJxNwAAALBzquooyXmSD9YAAICddJEp7HatGwAAANgp70wAAAAA7Jruvu7uWZJv1gAAgJ3ztbvnwm4AAABgF7ncDQAAAOy0qjpOcprkwBoAALDVVpmudS9NAQAAAOwqcTcAAACw86rqKMl5kg/WAACArXSRKex2rRsAAADYae9MAAAAAOy67r7u7lmSb9YAAICt87W758JuAAAAYB+43A0AAADslao6TnKa5MAaAAAwtJski+5emgIAAADYFy53AwAAAHulu8+TzDJ91h0AABjT9yQzYTcAAACwb8TdAAAAwN7p7uvunif5ag0AABjOH9193N23pgAAAAD2TXW3FQAAAIC9VVXzJOdJDqwBAABv6irJorsvTQEAAADsK5e7AQAAgL22/sz7UabPvgMAAG/jLMlc2A0AAADsO3E3AAAAsPe6+7a7j5P8kWRlEQAA2JhVkv/r7kV335oDAAAA2HfV3VYAAAAAWKuqWZLTJB+sAQAAr+oiyaK7r00BAAAAMHG5GwAAAOCB7r7s7lmSb9YAAIBX87W758JuAAAAgD9zuRsAAADgJ6pqnuQ8yYE1AADgRdwkOe7uS1MAAAAA/C+XuwEAAAB+oruXSY6SfLcGAAA827ckM2E3AAAAwM+53A0AAADwCFW1SHISV7wBAOCpVkkW3X1uCgAAAIC/Ju4GAAAAeKSqOkpymuSjNQAA4FG+Zwq7b00BAAAA8PfemQAAAADgcbr7urvnSb5aAwAA/tIqyR/dfSzsBgAAAHg8l7sBAAAAfkFVzTJd8f5gDQAA+JOLTNe6r00BAAAA8DQudwMAAAD8gu6+7O5ZXPEGAIA7d9e658JuAAAAgF/jcjcAAADAM62veJ8neW8NAAD21FWma92XpgAAAAD4dS53AwAAADzTOmCZJflmDQAA9tDX7p4JuwEAAACez+VuAAAAgBdUVfMkp3HFGwCA3edaNwAAAMALc7kbAAAA4AV19zKueAMAsPtc6wYAAAB4BS53AwAAALwSV7wBANhBrnUDAAAAvCKXuwEAAABeiSveAADsGNe6AQAAAF6Zy90AAAAAG7C+4n2S5IM1AADYMhdJPou6AQAAAF6fy90AAAAAG9Ddy+6eJflqDQAAtsQqyR/dPRd2AwAAAGyGy90AAAAAG1ZVsySnccUbAIBxXSRZdPe1KQAAAAA2x+VuAAAAgA3r7sv1Fe8/Ml1DBACAUaySfFpf6742BwAAAMBmudwNAAAA8Iaq6ijTFe+P1gAA4I19z3St+9YUAAAAAG/D5W4AAACAN9Td1909T/IprngDAPA2bpL8o7uPhd0AAAAAb0vcDQAAADCA7j5NcpTkzBoAAGzQtySz7l6aAgAAAODtVXdbAQAAAGAgVTVPcprkvTUAAHglV0kW3X1pCgAAAIBxuNwNAAAAMJjuXnb3UZKv1gAA4IWtkvzR3TNhNwAAAMB4XO4GAAAAGFhVHWW64v3RGgAAPNP3JJ+7+9oUAAAAAGMSdwMAAABsgao6zhR5H1gDAIAnukmy6O6lKQAAAADG9s4EAAAAAOPr7vMkR0m+WQMAgCf42t1Hwm4AAACA7eByNwAAAMCWqapZkpMkH60BAMBPXGS61n1tCgAAAIDt4XI3AAAAwJbp7svunif5lGRlEQAAHrhJ8n/dPRd2AwAAAGwfcTcAAADAluru0yRHSb5ZAwCAJF+TzLr73BQAAAAA26m62woAAAAAW66qZklOkny0BgDA3rlIsnCpGwAAAGD7udwNAAAAsAO6+7K750k+JbmxCADAXrhJ8o/ungu7AQAAAHaDuBsAAABgh3T3aZJZkq/WAADYWaskX7v7qLuX5gAAAADYHdXdVgAAAADYQVV1lOQkyW/WAADYGWdJPnf3rSkAAAAAdo+4GwAAAGDHVdU8yWmS99YAANhaF0m+uNQNAAAAsNvemQAAAABgt3X3sruPkvyRZGURAICtcpPkU3fPhd0AAAAAu8/lbgAAAIA9UlWHSb4k+ac1AACGtkpykuSku2/NAQAAALAfxN0AAAAAe6iqjjLFQr9ZAwBgOGdJvnT3tSkAAAAA9ou4GwAAAGCPVdU80yXvj9YAAHhzF0k+d/elKQAAAAD2k7gbAAAAgFTVIlPk/d4aAAAbd5Nk0d1LUwAAAADsN3E3AAAAAP9RVV+SfE5yYA0AgFe3ynSp+9QUAAAAACTibgAAAAD+S1UdZrri/U9rAAC8ilWSkyQn3X1rDgAAAADuiLsBAAAA+KGqOsoUef9uDQCAF3OW6Vq3qBsAAACA/yHuBgAAAOAvVdUs02XJj9YAAPhlZ0m+dPe1KQAAAAD4mXcmAAAAAOCvdPdld8+T/CPJhUUAAJ7kIsk/unsh7AYAAADg77jcDQAAAMCTVNVxpkve760BAPBTF5kudS9NAQAAAMBjibsBAAAA+CVVtUjyJSJvAICHbpJ87u5zUwAAAADwVOJuAAAAAJ5lHXmfJDmwBgCwx24yXeo+NQUAAAAAv0rcDQAAAMCzVdVhks/rR+QNAOwTUTcAAAAAL0bcDQAAAMCLEXkDAHtE1A0AAADAixN3A6Z2K8wAACAASURBVAAAAPDiRN4AwA5bJTlJctLdt+YAAAAA4CWJuwEAAAB4NSJvAGCHiLoBAAAAeHXibgAAAABencgbANhiom4AAAAANkbcDQAAAMDGiLwBgC0i6gYAAABg48TdAAAAAGycyBsAGNhNki9JzkXdAAAAAGyauBsAAACANyPyBgAGcpPkS3efmgIAAACAtyLuBgAAAGAIVbXIdCXzvTUAgA0SdQMAAAAwDHE3AAAAAEMReQMAG3KV5ETUDQAAAMBIxN0AAAAADGkdeS+SfLQGAPCCLjJd6l6aAgAAAIDRiLsBAAAAGFpVzTNd8hZ5AwDP8T3Tpe6lKQAAAAAYlbgbAAAAgK1QVbMkn5P8bg0A4AnOMl3qvjYFAAAAAKMTdwMAAACwVarqKNMl7+MkBxYBAH5gleQkyamoGwAAAIBtIu4GAAAAYCtV1WGmS96fI/IGACY3uY+6b80BAAAAwLYRdwMAAACw9apqkema93trAMBeusgUdJ+aAgAAAIBtJu4GAAAAYGdU1TxT5P3RGgCwF74nOenupSkAAAAA2AXibgAAAAB2TlUdZYq8f7cGAOycVZLTTFH3tTkAAAAA2CXibgAAAAB2VlUdJvmcZJHkvUUAYKvdJDlJctrdt+YAAAAAYBeJuwEAAADYC1W1yBR5f7QGAGyVi0xXus9NAQAAAMCuE3cDAAAAsFeqapbpmvfv1gCAYa2SnCf50t3X5gAAAABgX4i7AQAAANhLVXWYKfJeJHlvEQAYwk2SL0nOu/vWHAAAAADsG3E3AAAAAHuvqo4zhd4frQEAb+IsyWl3L00BAAAAwD4TdwMAAADAWlUd5f6a94FFAOBV3SQ5zRR1X5sDAAAAAMTdAAAAAPBDVbXIFHm75g0AL+t7pqD73BQAAAAA8GfibgAAAAD4C655A8CLWGW60n3iSjcAAAAA/Jy4GwAAAAAeyTVvAHgyV7oBAAAA4AnE3QAAAADwRK55A8Bfusl0pfvUlW4AAAAAeBpxNwAAAAA8Q1UdZ4q8f7MGAHvuLMm5K90AAAAA8OvE3QAAAADwAtbXvI8zXfR+bxEA9sRV7q9035oDAAAAAJ5H3A0AAAAAL6yqZpki7+MkBxYBYMesch90X5oDAAAAAF6OuBsAAAAAXlFVLTJF3r9ZA4At9z1T0H1uCgAAAAB4HeJuAAAAANiAqjrKFHkvknywCABb4irJSZLz7r41BwAAAAC8LnE3AAAAAGxYVc0yRd7HSd5bBIDB3CQ5zXSl+9ocAAAAALA54m4AAAAAeENVNc996H1gEQDeyE2S80xB96U5AAAAAOBtiLsBAAAAYBBVdZwp8hZ6A7AJq0xB93l3n5sDAAAAAN6euBsAAAAABlNVh7mPvH+zCAAvSNANAAAAAAMTdwMAAADAwITeALyQ75mC7lNTAAAAAMC4xN0AAAAAsCWE3gA80ffcX+m+NQcAAAAAjE/cDQAAAABbSOgNwA+sso65kywF3QAAAACwfcTdAAAAALDlHoTe8/X7wCoAe+M/QXd3n5sDAAAAALabuBsAAAAAdkxV3V30FnoD7Kab3F/nFnQDAAAAwA4RdwMAAADADquqWZJFptD7vUUAttZVkmWS0+6+NAcAAAAA7CZxNwAAAADsiao6yhR5L5J8sAjA8L5nCrrPu/vaHAAAAACw+8TdAAAAALCHquowU+h9nGSe5MAqAG9uleR8/Sy7+9YkAAAAALBfxN0AAAAAQKpqnvvQ21VvgM25yjro7u5LcwAAAADAfhN3AwAAAAB/UlVHmSJvV70BXt7dde5lpqDbdW4AAAAA4D/E3QAAAADAX3LVG+DZXOcGAAAAAB5F3A0AAAAAPFpVHeY+9J4neW8VgP9xk/Vl7iRL17kBAAAAgMcSdwMAAAAAv6yqZrkPvedJDqwC7KFV/hxzX5sEAAAAAPgV4m4AAAAA4MVU1Tz3ofdHiwA76i7mXmaKuS9NAgAAAAC8BHE3AAAAAPBqxN7ADrnIfcy9NAcAAAAA8BrE3QAAAADAxoi9gS1xd5n7MmJuAAAAAGCDxN0AAAAAwJtZx96z3AffB1YB3sBdzL3MFHNfmgQAAAAAeAvibgAAAABgGFU1y59j7/dWAV7BVdZXuTPF3NcmAQAAAABGIO4GAAAAAIZVVYeZIu+74PujVYAnWuVByJ3ksrtvzQIAAAAAjEjcDQAAAABslfV173mm4HuW5INVgAeuso64M4XclyYBAAAAALaFuBsAAAAA2HpVNc+fg+/3VoG9cJV1xJ0p5F6aBAAAAADYZuJuAAAAAGDnVNVhpsh7HsE37AohNwAAAACw88TdAAAAAMBeeBB8P3w+WAaGdJHkOkJuAAAAAGDPiLsBAAAAgL1WVXeh91HuL30fWAY24iZTxL3MFHJfd/elWQAAAACAfSXuBgAAAAD4L/915fvowW/RN/yaVdZXuPPni9y3pgEAAAAAuCfuBgAAAAB4JNE3/K27S9wibgAAAACAXyDuBgAAAAB4AVU1zxR8H2UKvg+TfLQMO+oiyW3ur3HfdvfSLAAAAAAAzyPuBgAAAAB4RQ+ufR9F+M32WGUdbef+Cvd1XOEGAAAAAHhV4m4AAAAAgDe0vvh9F4DfvRPxN6/vYv1ePny7wA0AAAAA8HbE3QAAAAAAA1vH30ly976LwI+SvLcQP3GV6er29fq5u8At3gYAAAAAGJi4GwAAAABgyz0IwI/WT3Ifgx8m+WClnXEXbSf3F7ev149wGwAAAABgy4m7AQAAAAD2RFUd5T7+/tnvJPlorY25ePD7Mvfh9vX6SZLr7r42FQAAAADA7hN3AwAAAADwU1V1mGT24L/++9/J/ZXwh2ZJDnZ4mpvcx9d3bjMF2g89DLaT5LK7b/1lAQAAAADwI+JuAAAAAAA25gex+M/MMoXkr+VHIfaPiLEBAAAAANgYcTcAAAAAAAAAAAAAwADemQAAAAAAAAAAAAAA4O2JuwEAAAAAAAAAAAAABiDuBgAAAAAAAAAAAAAYgLgbAAAAAAAAAAAAAGAA4m4AAAAAAAAAAAAAgAGIuwEAAAAAAAAAAAAABiDuBgAAAAAAAAAAAAAYgLgbAAAAAAAAAAAAAGAA4m4AAAAAAAAAAAAAgAGIuwEAAAAAAAAAAAAABiDuBgAAAAAAAAAAAAAYgLgbAAAAAAAAAAAAAGAA4m4AAAAAAAAAAAAAgAGIuwEAAAAAAAAAAAAABiDuBgAAAAAAAAAAAAAYgLgbAAAAAAAAAAAAAGAA4m4AAAAAAAAAAAAAgAGIuwEAAAAAAAAAAAAABiDuBgAAAAAAAAAAAAAYgLgbAAAAAAAAAAAAAGAA4m4AAAAAAAAAAAAAgAGIuwEAAAAAAAAAAAAABiDuBgAAAAAAAAAAAAAYgLgbAAAAAAAAAAAAAGAA4m4AAAAAAAAAAAAAgAGIuwEAAAAAAAAAAAAABiDuBgAAAAAAAAAAAAAYgLgbAAAAAAAAAAAAAGAA4m4AAAAAAAAAAAAAgAGIuwEAAAAAAAAAAAAABiDuBgAAAAAAAAAAAAAYgLgbAAAAAAAAAAAAAGAA4m4AAAAAAAAAAAAAgAGIuwEAAAAAAAAAAAAABiDuBgAAAAAAAAAAAAAYgLgbAAAAAAAAAAAAAGAA4m4AAAAAAAAAAAAAgAGIuwEAAAAAAAAAAAAABiDuBgAAAAAAAAAAAAAYgLgbAAAAAAAAAAAAAGAA4m4AAAAAAAAAAAAAgAGIuwEAAAAAAAAAAAAABiDuBgAAAAAAAAAAAAAYgLgbAAAAAAAAAAAAAGAA4m4AAAAAAAAAAAAAgAGIuwEAAAAAAAAAAAAABiDuBgAAAAAAAAAAAAAYgLgbAAAAAAAAAAAAAGAA4m4AAAAAAAAAAAAAgAGIuwEAAAAAAAAAAAAABiDuBgAAAAAAAAAAAAAYgLgbAAAAAAAAAAAAAGAA4m4AAAAAAAAAAAAAgAGIuwEAAAAAAAAAAAAABiDuBgAAAAAAAAAAAAAYgLgbAAAAAAAAAAAAAGAA4m4AAAAAAAAAAAAAgAGIuwEAAAAAAAAAAAAABiDuBgAAAAAAAAAAAAAYgLgbAAAAAAAAAAAAAGAA4m4AAAAAAAAAAAAAgAGIuwEAAAAAAAAAAAAABiDuBgAAAAAAAAAAAAAYgLgbAAAAAAAAAAAAAGAA4m4AAAAAAAAAAAAAgAGIuwEAAAAAAAAAAAAABiDuBgAAAAAAAAAAAAAYgLgbAAAAAAAAAAAAAGAA4m4AAAAAAAAAAAAAgAGIuwEAAAAAAAAAAAAABiDuBgAAAAAAAAAAAAAYgLgbAAAAAAAAAAAAAGAA4m4AAAAAAAAAAAAAgAGIuwEAAAAAAAAAAAAABiDuBgAAAAAAAAAAAAAYgLgbAAAAAAAAAAAAAGAA4m4AAAAAAAAAAAAAgAGIuwEAAAAAAAAAAAAABiDuBgAAAAAAAAAAAAAYgLgbAAAAAAAAAAAAAGAA4m4AAAAAAAAAAAAAgAGIuwEAAAAAAAAAAAAABiDuBgAAAAAAAAAAAAAYgLgbAAAAAAAAAAAAAGAA4m4AAAAAAAAAAAAAgAGIuwEAAAAAAAAAAAAABiDuBgAAAAAAAAAAAAAYgLgbAAAAAAAAAAAAAGAA4m4AAAAAAAAAAAAAgAGIuwEAAAAAAAAAAAAABiDuBgAAAAAAAAAAAAAYgLgbAAAAAAAAAAAAAGAA4m4AAAAAAAAAAAAAgAGIuwEAAAAAAAAAAAAABiDuBgAAAAAAAAAAAAAYgLgbAAAAAAAAAAAAAGAA4m4AAAAAAAAAAAAAgAGIuwEAAAAAAAAAAAAABiDuBgAAAAAAAAAAAAAYgLgbAAAAAAAAAAAAAGAA4m4AAAAAAAAAAAAAgAGIuwEAAAAAAAAAAAAABiDuBgAAAAAAAAAAAAAYgLgbAAAAAAAAAAAAAGAA4m4AAAAAAAAAAAAAgAGIuwEAAAAAAAAAAAAABiDuBgAAAAAAAAAAAAAYgLgbAAAAAAAAAAAAAGAA4m4AAAAAAAAAAAAAgAGIuwEAAAAAAAAAAAAABiDuBgAAAAAAAAAAAAAYgLgbAAAAAAAAAAAAAGAA4m4AAAAAAAAAAAAAgAGIuwEAAAAAAAAAAAAABiDuBgAAAAAAAAAAAAAYgLgbAAAAAAAAAAAAAGAA4m4AAAAAAAAAAAAAgAGIuwEAAAAAAAAAAAAABiDuBgAAAAAAAAAAAAAYgLgbAAAAAAAAAAAAAGAA4m4AAAAAAAAAAAAAgAGIuwEAAAAAAAAAAAAABiDuBgAAAAAAAAAAAAAYgLgbAAAAAAAAAAAAAGAA4m4AAAAAAAAAAAAAgAGIuwEAAAAAAAAAAAAABiDuBgAAAAAAAAAAAAAYgLgbAAAAAAAAAAAAAGAA4m4AAAAAAAAAAAAAgAGIu+H/2bvb47bKrQ3A98PwP6YCKxXEVBBRQUwFMRXgtwJCBYQKolQQpwLkCpAriFxB7ArW+2PLxw4E8Kf2I+m6ZjT2nOFwDncG7fVI914bAAAAAAAAAAAAADqg3A0AAAAAAAAAAAAA0AHlbgAAAAAAAAAAAACADih3AwAAAAAAAAAAAAB0QLkbAAAAAAAAAAAAAKADyt0AAAAAAAAAAAAAAB1Q7gYAAAAAAAAAAAAA6IByNwAAAAAAAAAAAABAB5S7AQAAAAAAAAAAAAA6oNwNAAAAAAAAAAAAANAB5W4AAAAAAAAAAAAAgA4odwMAAAAAAAAAAAAAdEC5GwAAAAAAAAAAAACgA8rdAAAAAAAAAAAAAAAdUO4GAAAAAAAAAAAAAOiAcjcAAAAAAAAAAAAAQAeUuwEAAAAAAAAAAAAAOqDcDQAAAAAAAAAAAADQAeVuAAAAAAAAAAAAAIAOKHcDAAAAAAAAAAAAAHRAuRsAAAAAAAAAAAAAoAPK3QAAAAAAAAAAAAAAHVDuBgAAAAAAAAAAAADogHI3AAAAAAAAAAAAAEAHlLsBAAAAAAAAAAAAADqg3A0AAAAAAAAAAAAA0AHlbgAAAAAAAAAAAACADih3AwAAAAAAAAAAAAB0QLkbAAAAAAAAAAAAAKADyt0AAAAAAAAAAAAAAB1Q7gYAAAAAAAAAAAAA6IByNwAAAAAAAAAAAABAB5S7AQAAAAAAAAAAAAA6oNwNAAAAAAAAAAAAANAB5W4AAAAAAAAAAAAAgA4odwMAAAAAAAAAAAAAdEC5GwAAAAAAAAAAAACgA8rdAAAAAAAAAAAAAAAdUO4GAAAAAAAAAAAAAOiAcjcAAAAAAAAAAAAAQAeUuwEAAAAAAAAAAAAAOqDcDQAAAAAAAAAAAADQAeVuAAAAAAAAAAAAAIAOKHcDAAAAAAAAAAAAAHRAuRsAAAAAAAAAAAAAoAPK3QAAAAAAAAAAAAAAHVDuBgAAAAAAAAAAAADogHI3AAAAAAAAAAAAAEAHlLsBAAAAAAAAAAAAADqg3A0AAAAAAAAAAAAA0AHlbgAAAAAAAAAAAACADih3AwAAAAAAAAAAAAB0QLkbAAAAAAAAAAAAAKADyt0AAAAAAAAAAAAAAB1Q7gYAAAAAAAAAAAAA6IByNwAAAAAAAAAAAABAB5S7AQAAAAAAAAAAAAA6oNwNAAAAAAAAAAAAANAB5W4AAAAAAAAAAAAAgA4odwMAAAAAAAAAAAAAdEC5GwAAAAAAAAAAAACgA8rdAAAAAAAAAAAAAAAdUO4GAAAAAAAAAAAAAOiAcjcAAAAAAAAAAAAAQAeUuwEAAAAAAAAAAAAAOqDcDQAAAAAAAAAAAADQAeVuAAAAAAAAAAAAAIAOKHcDAAAAAAAAAAAAAHRAuRsAAAAAAAAAAAAAoAPK3QAAAAAAAAAAAAAAHVDuBgAAAAAAAAAAAADogHI3AAAAAAAAAAAAAEAHlLsBAAAAAAAAAAAAADqg3A0AAAAAAAAAAAAA0AHlbgAAAAAAAAAAAACADih3AwAAAAAAAAAAAAB0QLkbAAAAAAAAAAAAAKADyt0AAAAAAAAAAAAAAB1Q7gYAAAAAAAAAAAAA6IByNwAAAAAAAAAAAABAB5S7AQAAAAAAAAAAAAA6oNwNAAAAAAAAAAAAANAB5W4AAAAAAAAAAAAAgA4odwMAAAAAAAAAAAAAdEC5GwAAAAAAAAAAAACgA8rdAAAAAAAAAAAAAAAdUO4GAAAAAAAAAAAAAOiAcjcAAAAAAAAAAAAAQAeUuwEAAAAAAAAAAAAAOqDcDQAAAAAAAAAAAADQAeVuAAAAAAAAAAAAAIAOKHcDAAAAAAAAAAAAAHRAuRsAAAAAAAAAAAAAoAPK3QAAAAAAAAAAAAAAHVDuBgAAAAAAAAAAAADogHI3AAAAAAAAAAAAAEAHlLsBAAAAAAAAAAAAADqg3A0AAAAAAAAAAAAA0AHlbgAAAAAAAAAAAACADih3AwAAAAAAAAAAAAB0QLkbAAAAAAAAAAAAAKADyt0AAAAAAAAAAAAAAB1Q7gYAAAAAAAAAAAAA6IByNwAAAAAAAAAAAABAB5S7AQAAAAAAAAAAAAA6oNwNAAAAAAAAAAAAANAB5W4AAAAAAAAAAAAAgA4odwMAAAAAAAAAAAAAdEC5GwAAAAAAAAAAAACgA8rdAAAAAAAAAAAAAAAdUO4GAAAAAAAAAAAAAOiAcjcAAAAAAAAAAAAAQAeUuwEAAAAAAAAAAAAAOqDcDQAAAAAAAAAAAADQAeVuAAAAAAAAAAAAAIAOKHcDAAAAAAAAAAAAAHRAuRsAAAAAAAAAAAAAoAPK3QAAAAAAAAAAAAAAHVDuBgAAAAAAAAAAAADogHI3AAAAAAAAAAAAAEAHlLsBAAAAAAAAAAAAADqg3A0AAAAAAAAAAAAA0AHlbgAAAAAAAAAAAACADih3AwAAAAAAAAAAAAB0QLkbAAAAAAAAAAAAAKADyt0AAAAAAAAAAAAAAB1Q7gYAAAAAAAAAAAAA6IByNwAAAAAAAAAAAABAB5S7AQAAAAAAAAAAAAA6oNwNAAAAAAAAAAAAANAB5W4AAAAAAAAAAAAAgA4odwMAAAAAAAAAAAAAdEC5GwAAAAAAAAAAAACgA8rdAAAAAAAAAAAAAAAdUO4GAAAAAAAAAAAAAOiAcjcAAAAAAAAAAAAAQAeUuwEAAAAAAAAAAAAAOqDcDQAAAAAAAAAAAADQAeVuAAAAAAAAAAAAAIAOKHcDAAAAAAAAAAAAAHRAuRsAAAAAAAAAAAAAoAPK3QAAAAAAAAAAAAAAHVDuBgAAAAAAAAAAAADogHI3AAAAAAAAAAAAAEAHlLsBAAAAAAAAAAAAADqg3A0AAAAAAAAAAAAA0AHlbgAAAAAAAAAAAACADih3AwAAAAAAAAAAAAB0QLkbAAAAAAAAAAAAAKADyt0AAAAAAAAAAAAAAB1Q7gYAAAAAAAAAAAAA6IByNwAAAAAAAAAAAABAB5S7AQAAAAAAAAAAAAA6oNwNAAAAAAAAAAAAANAB5W4AAAAAAAAAAAAAgA58KwIAAAAA4LZaawdJ9iQBcGsXVbUQAwAAAABwG8rdAAAAAMBdHCd5LQaAW/s1iXI3AAAAAHArraqkAAAAAADcympz95+SALi151W1FAMAAAAAcBvfiAAAAAAAuK2qWiQ5lwTArXxU7AYAAAAA7kK5GwAAAAC4q7ciALiVmQgAAAAAgLtoVSUFAAAAAODWWmt7ST5LAuBfnVfVRAwAAAAAwF3Y3A0AAAAA3ElVXSR5LwmAfzUTAQAAAABwV8rdAAAAAMB9zEQA4H0SAAAAAHhcyt0AAAAAwJ1V1TzJuSQAvuq0qpZiAAAAAADuSrkbAAAAALivtyIA+KqZCAAAAACA+2hVJQUAAAAA4M5aa3tJPksC4AuXVbUnBgAAAADgPmzuBgAAAADupaoukryXBMAXZiIAAAAAAO7L5m4AAAAA4N5aa9Mkf0gC4H+eV9VSDAAAAADAfdjcDQAAAADcW1XNk5xLAiBJcqrYDQAAAAA8hHI3AAAAAPBQb0UAkCSZiQAAAAAAeIhWVVIAAAAAAO6ttbaX5LMkgB13WVV7YgAAAAAAHsLmbgAAAADgQarqIsl7SQA7biYCAAAAAOChbO4GAAAAAB6stTZN8ockgB32vKqWYgAAAAAAHsLmbgAAAOhca+2gtTaRBNCzqponOZcEsKNOFbsBZ0sAAADgMXwrAgAAABhfa20vycHqtZdkuvr5YvWXnCeZSAro3Nskv4kB2EEzEQAbcOacJ3nWWkuSsyQXq/9suXotqupCWgAAADDyOb6qpAAAAADrOoi3Ns1Q2r5Z5H55y//6T1U1kyLQ8XvcXpLPkgB2zGVV7YkB6HxOe5Pkl1v+5ae5UfhOcrF6SgsAAACwjnO8cjcAAAA88mF7eMz1JNfbt6+K3M8e+Lc+r6qJhIHO3wNnSV5LAtghv1fVsRiAjuezvQxF7QefSXNd+P7fz6paShkAAAAe8Syv3A0AAAD3PFQPW7gnq9fB6ueLJ/6ftb0b6P298TDJB0kAO+S5YiPQ+Xz2Jrff2n1fp0kucl38Xtr2DQAAAPc8yyt3AwAAwL8cnJ9uC/d92d4NbMJ75zLJviSAHXBaVVMxAB3PZY+1tfveZ9jY9g0AAAB38q0IAAAAYLQt3Pex31o7sr0b6NwsT78dEqCX9zuAnh1nvGJ3Mtzwt5/k5V/O4MmX276vSt8Lf2QAAADsOpu7AQAA2J1D8LCx7Grz9uTGz03bLmt7N9D7++0kySdJAFvusqr2xAB0fgZeZtxy973OvKv/3/PVz2WSRVVd+FMFAABgF9jcDQAAwNZZlQonSaa53sb9cov+Efdba8dV9dafNtCjqlq21j4meSUNYIvNRAB0buyt3fc+8+br274vc73l+yKr8ndVLf1RAwAAsE1s7gYAAGBzD7Wt3dzAffX7ix35x79MMrG5DOj4PfowyQdJAFvs+6paiAHodBbb1K3d93WaG1u+M5S+vUcDAACwmed65W4AAAC6P7y2Ns31Bu6r3/clk1+r6o0YgI7fv5fer4EtdVZVB2IAOp7DZkleSyJnuS58L5JcVNVcLAAAAHR9rlfuBgAAoIsD6rBV7Gr79iRK3LdhezfQ+3v7myS/SALYQj9V1UwMQKcz2CTJJ0n8q/MMpe/56udS6RsAAIBuzvbK3QAAAKz1IHpd4r4qcl/9/kw692J7N9Dze/4kikXA9nGDHdD7DDaLrd339bfSd5KF93wAAADWerZX7gYAAOBJDpxK3OuiXAT0fj04SfJKEsAWeV9VR2IAOp29JnFz3VOdvRer1/Lqd2dxAAAAnuR8r9wNAADAgw6WStw9sL0b6Pk6cZjkgySALfJ9VS3EAHQ6e81ia/c6KX0DAADw+Od75W4AAABudYBU4u6Z7d1A79eQZZJ9SQBb4KyqDsQAdDpzTWJrd0/ndKVvAAAA7uVbEQAAAHCTEvdGepbkOMkbUQCdmiX5RQzAFngrAqBjzoR9ndNfrl7/01q7WfpeJFlW1VxcAAAAfHF+tLkbAABghw+FrU2jxL0tbO8Ger7eTGKLJGDeAjBv8U/OM2z4nq9+Kn0DAADs8jlfuRsAAGAHDn9DiXuyel39vi+ZrfN7VR2LAej0WnSS5JUkgA32vqqOxAB0OmvNkryWxNb5a+l7UVULsQAAAGz5OV+5GwAAYIsOea3d3MI9jRL3LnpeVUsxAB1eow6TfJAEsMG+V6gDOv4s4E9J7JSzrMreq9fSNQoAAGCLzvrK3QAAABt4mBset3xw4zVJ8kIyxEZJoO/r1zJuOgI201lVHYgB6HTGmid5KQkylL4XubHt2w3gAAAAG3jWV+4GAADo+NDW2l6+3MI9iS9s+W+2dwO9XtfeJPlFEsAG+qmqZmIAOpyvpkn+kAT/4TTXpe9FkkVVXYgFAACg0/O+cjcAAEAnB7ThC9mrLdxXG7mfSYZ7sL0b6PVaN0nySRLAhrlMMlGCAzqdr+ZxLESKlgAAIABJREFUEzj3v74tstrwnWHL91wsAAAAHZz3lbsBAADWfBBr7WaBe7r6fV8yPDLbu4Fer4PzKCABm8WNc0Cvc9U0tnbz+M6z2u69ei2raiEWAACANZ75lbsBAACe6MA1bCed5LrAfZDkhWRYEyUkoNfr41GSd5IANsj3Sm1Ap3PVPG6aY31Os9rwnWHb98JTLQAAAJ7ozK/cDQAA8AiHq2Fb1s2N3AdJnkmGkdneDfR63bxwnQQ2xFlVHYgB6HCemsbWbsZ3mb9v+Z6LBQAA4IHnfuVuAACAOxyiWrtZ4J6uft+XDJ2yvRvo9Xr6NsnPkgA2wE9VNRMD0OE8NY+t3fTrPF+WvhduPgcAALjDuV+5GwAA4CuHpdb28mWBexJfmrKZbO8GerzOTpJ8kgSwAb6rqgsxAJ3NUtPY2s1mOk2yzJelb9dZAACAv579lbsBAICdPxgN27ivNnJPV78/kwxb4rSqpmIAOrz+zuPGKaBvnoICmKPg6Z1nKHzPMxS+l1W1EAsAALDTZ3/lbgAAYGcOQMOW0EmuC9yTJC8kww74oarmYgA6uy4fJXknCcAMBWCGgq84y6rsnVXx25ZvAABgZ87/yt0AAMBWHnaGRxRPMpS4r162cbOrbO8Ger1eX7g+A506r6qJGIAO56dlkn1JsKMuMxS+5xlK3wtbvgEAgK08/yt3AwAAG32osY0bbsvmSaDH6/jbJD9LAujQ/1XVWzEAnc1OR7G1G77Glm8AAGC7PgNQ7gYAADbmAGMbNzyE7d1Aj9f2SZJPkgA69J1SGNDh7LSMrd1wW7Z8AwAAm/sZgHI3AADQ3UGltb0Mxe1pbOOGx2R7N9DjdX+e5KUkgI68r6ojMQCdzUxHsbUbHoMt3wAAQP+fAyh3AwAAox5KWrvawD3JdZnbNm54GrZ3Az3OAkdRVAL64oY4oMeZaRlbu+GpnOdG2TvJ0pZvAABg1M8BlLsBAIC1HD6ut3HffNnGDeunrAT0OCdcxM1dQB/Oq2oiBqCzWekoboaDMZxmKH0vMmz4nosEAABYy2cByt0AAMCjHzRam+TvRW7bpaAPtncDPc4Ob5P8LAmgA/9XVW/FAHQ2Ky3jcxXoxXlWZe8Mm76XVbUUCwAA8KifBSh3AwAADzpUtPbXEvdBbN6E3v1YVSdiADqaJyZJPkkC6MB3VXUhBqCjOekotnZD7y5zXfa+2vK9FAsAAHDvzwOUuwEAgFsfIP5e5H4pFdhI51U1EQPQ2ZwxN1sAI3tfVUdiADqaj/YyFEVt7YbNdJrrLd+LqlqIBAAAuI1vRQAAAHyNIjdstf3W2lFVzUQBdGRm3gA6eB8C6MlxFLthk728ecZprSUK3wAAwC3Y3A0AAChyw26yvRvocSa5SPJMEoDZCDAXtb0kS7MR7ASFbwAA4As2dwMAwI5prU2STKPIDbvO9m6gR7MkP4sBGMFbEQCdOY5iN+yKv274vsxQ9J7nuvC9FBMAAOwOm7sBAGCbB/5hy9M0Q4n76qcvBoErNlQCvc0uB0n+lAQwgu+q6kIMQCczka3dwF/dLHzPMxS+zS4AALCtnw0odwMAwBYN+K1N8+VW7n2pAP/hJ9u7gc7mmUWSF5IA1uh9VR2JAehoHnqT5BdJAP/hPF9u956LBAAAtoNyNwAAbOowP2y2vHpNowQF3I/t3UBvM85RkneSANboB2UooKNZyNZu4CFOsyp7J5lX1VIkAACweZS7AQBgEwb34Yu9qxL3dPW7L/mAx2J7N9Db3LM06wBr4kY3oLdZ6E1s7QYez2Wut3vP3dAGAACbQbkbAAB6HNSvt3JPVz9t5QaeklIT0NssNEvyWhLAGvxfVb0VA9DJDOQmN2AdzvJl4XspEgAA6ItyNwAA9DCYtzbNdZF7Gl/iAev3a1W9EQPQyWx0kORPSQBr8FyhCehoBnoTW7uB9bva7j1PsrDdGwAAxqfcDQAA6x7CW5vkusQ9ja3cQB8uk0yq6kIUQCcz08KcBDyxj1V1KAagk9lnkmGLrhv+gR6crt6T5hm2e/u8CAAA1ki5GwAAnnroHjZPTnNd6N6XCtAp27uBnmaooyTvJAE8oR+r6kQMQCezzyzJa0kAnTrP9XbvuSefAADA01LuBgCAxx6yW5vmyzK3jUvAprC9G+hpptpLsjRLAU/kvKomYgA6mXsmST5JAtggl/my7L0QCQAAPJ5vRQAAAA9zo8w9TfJSIsAGe5bkOMkbUQBjq6qL1tpJbLAEnsZMBEBHnMGATfMsyavVK621JDnNddl7LiIAALg/m7sBAOAuA/SwQXJ64/VCKsCWsb0b6Gn2OkjypySAJ/C8qpZiADqYdyaxtRvYTv8reydZ+KwJAABuT7kbAAD+bWBW5gZ2069V9UYMQCfz2MIMBjyyj1V1KAagk1lnFk8qAXbDWa7L3nNlbwAA+GfK3QAAcHNAVuYGSGzvBvqaz46SvJME8Ih+rKoTMQAdzDmT2NoN7C5lbwAA+AfK3QAA7PZArMwN8E9s7wZ6mteWSZ5JA3gE51U1EQPQyZwzi63dAFeUvQEAYEW5GwCA3RqAlbkBbsv2bqCnGW4WxSfgcbiBDehlvpnE1m6Af6PsDQDAzlLuBgBguwdeZW6Ah3hfVUdiADqY6Q6S/CkJ4BE8r6qlGIAO5ptZ3LwGcBdXZe+TqpqLAwCAbabcDQDA9g25rU0zFLkPo8wN8FAKUEAvM97CbAc80MeqOhQD0MFcM03yhyQAHuQ011u95+IAAGCbKHcDALD5Q+2wyfEwQ6H7pUQAHpXt3UAvM99RkneSAB7gx6o6EQPQwVwzj8+wAB7bx1yXvRfiAABgkyl3AwCweUNsa5Ncl7mnSZ5JBeBJ2d4N9DAD7iVZmv2AezqvqokYgA5mmmls7QZ4apcZit4nGcreS5EAALBJlLsBAOh/aB2KPDfL3PtSAVgr27uBXubCWZLXkgDu4deqeiMGoIN5Zh5buwHW7Txflr0vRAIAQM+UuwEA6HNQbe1mmfuFRABGZ3s30MOMOI1Nl4BZBjDLAPAwZ7kues/FAQBAb5S7AQDoYzBt7SBDkfswthcB9Mj2bqCXuXEZT3IB7uZjVR2KAehgjpnH514AvbnMsNV7nuTEDYEAAPRAuRsAgHEG0db2MhS5p6ufz6QC0D0bL4Ee5sjjJL9JAriDH6vqRAzAyDPMNLZ2A2yC86yK3hk2e1+IBACAdVPuBgBgfcPn8CXWVaH7hUQANo7t3UAPM+Veks+SAG7pvKomYgA6mGHmsbUbYBOdZSh6n1TVQhwAAKyDcjcAAE83bLY2yfVm7mls5wbYBt/7IgvoYM6cJXktCeAWfq+qYzEAI88u09jaDbANLrPa6J1hq/dSJAAAPAXlbgAAHnfAbO2qyH2YZF8iAFvntKqmYgBGnjmnUZACbue50g3Qwewyj63dANvoLEPR+6Sq5uIAAOCxKHcDAPCwgXLYzn1V6H4lEYCd8IMvrIAO5tBl3EwI/Ds3pQE9zCxHSd5JAmDrXWZV9I6t3gAAPJByNwAAdx8ih02Jh7GdG2BXKUoBPcykx0l+kwTwL36qqpkYgJFnlmV8fgawi662es+qaiEOAADuQrkbAID/HhqH7dzTXG/ofiYVgJ1nezcw9oy6l+SzJIB/cFlVe2IARp5XjmJrNwDDVu+TrDZ7V9WFSAAA+DfK3QAAfH1QbO0g19u5X0gEgL+wvRvoYWadJXktCeArfq+qYzEAI88qy9jaDcDfnSWZJZnb6g0AwNcodwMAMAyGw+bDaa4L3bZzA/BfbO8Gxp5hp0n+kATwFc+raikGYMQ55Si2dgPw385zvdH7RBwAACTK3QAAuz0MtjbJUOSeJnklEQDuyPZuoIeZdhkbMQEzCmBGAWA7fExykmGr91IcAAC7SbkbAGDXBsDWDpIcZSh0v5AIAA9kezcw9nx7nOQ3SQA3/FRVMzEAI84nR7G1G4CHO8tQ9D6pqoU4AAB2h3I3AMC2D3yt7WUoch+uXs+kAsAjshkT6GHe/SwJYOWyqvbEAIw8nyxjazcAj+s8yTxD0ftEHAAA2025GwBgG4e81ia5LnS/kggAT+xHXyoBI8+/sySvJQEk+b2qjsUAjDiXHMXWbgCe1mVWRe8MZe8LkQAAbBflbgCAbRnsWjvIUOg+SvJCIgCs0XlVTcQAjDgLT5P8IQkgyfOqWooBGGkm2UuyjCfnAbBep7kuepuFAQC2gHI3AMAmD3NDofsow4Zuj3oFYEw/VdVMDMCIs/HSTAw777SqpmIARpxH3iT5RRIAjOgsw1bvWVUtxAEAsJmUuwEANm2Aa+0wQ5n7MLYAAdAP27uBsefk4yS/SQJ2mpvNgDFnEVu7AejNeYaN3vOqOhEHAMDmUO4GAOh9YBu+GLoqc0/jCyIA+qVQBYw9N3+WBOysy6raEwMw4izyJrZ2A9DxvJyh6H2i6A0A0D/lbgCAHoe0LwvdryQCwIawvRsYe44+MT/Dzvq9qo7FAIw0g9jaDcCm+ZjrsveFOAAA+qLcDQDQy2DW2iRDmfsoyQuJALChbO8GxpypD5N8kATspOdVtRQDMNIM8ia2dgOwuRS9AQA6o9wNADDmMKbQDcD2sb0bGHvGXibZlwTslNOqmooBGGn2sLUbgG1ylmSWoei9FAcAwDi+EQEAwHq11g5aa8ettUWST0l+i2I3ANtjv7V2JAZgRDMRgH/vAdboOIrdAGyPFxm+t/rUWlusvs+aiAUAYL1s7gYAWMfQ1dpBhu3ch7FFEIDtd57kwGNcgZFm70mGmyiB3XCZZGLuAEaaO2ztBmBX2OgNALBGNncDADyR1Ybut6vHwv+Z5OcodgOwG/YzbK8DWLvVl8wfJQE740SxGxiRrd0A7AobvQEA1sjmbgCAxxyubOgGgCu2aAJjzuWHST5IAnbC91W1EAMwwrwxiaeFAICN3gAAT0C5GwDgoQOVQjcA/JNfq+qNGICR5vSl+Ry23llVHYgBGGnWmCV5LQkAuJ7Po+gNAPAolLsBAO4zRCl0A8Bt2N4NjDmzv0nyiyRgq/1UVTMxACPMGZPY2g0A/0bRGwDgAZS7AQBuOzgNX9ocrV4K3QBwO7Z3A2PO70pXsL3cRAaMOWfMYms3ANyWojcAwB0pdwMA/NuwNBRCDjMUul9IBADuTPEKGHOeP0nyShKwld5X1ZEYgBHmi0ncQAYA96XoDQBwC8rdAAB/HZAUugHgsdneDYw12x8m+SAJ2ErfV9VCDMAI88UstnYDwGM4zXXR22IIAIAblLsBAJK01vZyXeh+KREAeFS2dwNjzvrLJPuSgK1yVlUHYgBGmCsmsbUbAJ7CxyQnUfQGAEiSfCMCAGBXtdb2WmtHq0e1f07yLordAPAUniU5FgMwkpkIYOu8FQEwkjciAIAn8SrD93SfW2snqydxAQDsLJu7AYDdG4CGD4QO4/GpALBOl0kOqmopCmDN8/8kNmzCts0UnggCmCkAYDdm/6tt3ifiAAB2ic3dAMBOaK1NW2uz1tpFkg9R7AaAdXsWW+6AEaxuKvkoCdgaHtMOjMVTAwBgvZ5l+D7vQ2tt2Vp721o7EAsAsAts7gYAtnfQGT7gOcqwpXtfIgDQhee2dwMjnA0OM9zkCWy+76tqIQZgzbPENMkfkgCALpwnmSWZ+ZwRANhWyt0AwHYNN8PjUQ8zlLpfSAQAuvO+qo7EAIxwVljGTZ+w6c6qyqY+YIw5Yp7kpSQAoL8zQq6L3p7wAwBsDeVuAGDzB5rW9nJd6PYlCwD0z/ZuYIxzw5skv0gCNtpPVTUTA7DmGWIaW7sBYBN8THLizAAAbAPlbgBgcweZ4dHqh0leSwMANort3cAY54dJkk+SgI11mWRiGx8wwgwxj4USALBpZ4eTDNu85+IAADaRcjcAsFnDS2sHGTZ0HyV5JhEA2Fi2dwNjnCfmUc6CTeXmMGCM2WEaW7sBYJOdZyh6v/VZJACwSZS7AYD+B5Zhw95hkuMk+xIBgK2goAWMcbY4SvJOErCRvq+qhRiANc8O87gxDAC2xVmSWYaN3p4IBAB0TbkbAOhzSGltL0Oh+zDJK4kAwFayvRsY46xxEU8Bgk1zVlUHYgDWPDNMY2s3AGyrjxlK3ieiAAB69I0IAICetNamrbVZkmWGjXqK3QCwvd6IABjBTATg31sA5xUA2GmvknxorV201t621txMCgB0xeZuAGD8gaS1SZKj1WtfIgCwU36oqrkYgDWfPz5JAjbKdx6bDqx5XpjG1m4A2DXnSd4mOfG0QQBgbMrdAMA4Q0hre0kOMxS6X0oEAHbWaVVNxQCs+Twydw6BjfG+qo7EAKx5VlgkeSEJANhZH5PMqupEFADAGL4RAQCwTq21aWttlmSZ5F0UKgBg171cbcUDWKeZCMC/rwBf01o7imI3AOy6V0k+tNYuWmtvW2sHIgEA1snmbgDg6QeO4bHnh0mOk+xLBAD4C9u7gTHOKRdJnkkCunZeVRMxAGueEZbxGSYA8HdnGW4+nVXVhTgAgKdkczcA8GRaa4ettZMkn5L8Fl+KAABfZ3s3MIaZCKB7b0UArNNqa7fPMAGAr3mR4fvOz621WWvtUCQAwFOxuRsAeNzhYtjSfZzkKLbgAQC3Z3s3MMbZ5ZMkoGvf2YgHrHk+WEa5GwC4vfNcb/NeigMAeCw2dwMAD9Za22utHbXWFhnKET9HsRsAuBvbu4G1Wn3peioJ6NZ7xW5gnWztBgDuYT/JL0k+tdbmq3kCAODBbO4GAO4/SLR2kGFL92GUuQGAh7O9G1j3meYoyTtJQJd+qKq5GIA1zgXLKHcDAA93mett3gtxAAD3odwNANxteGhtL8lRhlK3LzsAgMemyAWs+4xzETerQm/Oq2oiBmCN88BR3PAFADy+syRvk5x4MhEAcBffiAAAuI3W2rS1NkvyOclvUewGgP9n706r4zj/bQHv3yEg/RGogkC6CNQHgX0RSAeBxcB9EFgXgTsIoiCQjMAKArcRxEbw3g9dSZzEg4YeanietUxgL5dq2r2L3ViKANizlQhgcK5FALgPAQAm4DSbH5Ctq2rVfxUZAOCHLHcDAN++ULDSDQAcxv+01lZiAPZ039Ml+SAJGJT/WLUD9ngtcBmr3QDA/ljzBgB+SLkbAPj3BULVIptS94U0AIAD+Nha68QA7PEe6C7JuSRgEH5urV2KAdjTNcBxknWSI2kAAHv2OclNkuvW2r04AIAv/ZcIAIBk8yKjqq6qap3kNordAMDhnPTreQD7shIBOB6BWbqKYjcAcBhH2byPfV9V91V12f/wDADAcjcAzP5iwEo3ADBM1ruBfd8bfYpyFzj/A3M691vtBgCGxpo3AJDEcjcAzJKVbgBgBKx3A/u2EgEc3LUIgD2y2g0ADI01bwAgieVuAJjXid9KNwAwLtY7gX3eL50leS8JOKj/tNY+iQHYw3nfajcAMBbWvAFghix3A8DE9Svdl1V1HyvdAMC4WO8G9qZ/QfqbJOBgflbsBvbIajcAMBZfrnnfeV4KAPNguRsApnqSr+qSLJO8jBcVAMB4We8G9nkfdZnkrSTgIP67tXYnBmAP53ur3QDA2H1OsspmzXstDgCYHsvdADAx/Ur3XZIP2fyK20sKAGDMrHcD+3STzQtSYL8+KnYDe2S1GwAYu6Mkr5J8qKqbqnopEgCYFsvdADCFE/pmpfuy/3ciEQBgYj4mOWutfRIFsIf7q1U2P5QF9ud/W2tLMQB7OM9b7QYApupjkuskK89RAWD8LHcDwIhV1aIvHnxI8jqK3QDANJ1ks64HsA/XIoC9W4kA2JNlFLsBgGk6SfImye9VtaqqM5EAwHhZ7gaAsZ28N+syL7N5EaHMDQDMxeckndUZYE/3XfdJTiUBe/Fra80nxIF9nN+7bEYyAADm4l02S94rUQDAuFjuBoCRqKquqq6z+Wzo2yh2AwDzchTr3cD+WO+G/VmJANiTpQgAgJk5T/K2qj5V1bL/sRsAMAKWuwFg6CfrqkU2RaYX0gAAZs56N7Cv+7DjbH5YeyQN2KmPrbVODMAezu1drHYDACTJz9msed+JAgCGy3I3AAxQVR1X1WVVrZPcRrEbACCx3g3sSf8jkhtJwM6tRADsyVIEAABJkoskt1V1X1WX4gCAYbLcDQBDOjFvFmSuklzGQhwAwNdY7wb2dX92luS9JGCnfmqtrcUA7Pic3sVqNwDAt3xOcp3Nmrf7MwAYCMvdADAAVbWoqptsXjK8imI3AMC3WO8G9qK1dp/kN0nAzvyqOADsyVIEAADfdJTkdZIPVbWqqoVIAODwLHcDwKFOwlXHSV5m83LhRCIAAA9mvRvY133bZZK3koCd+L+ttRsxADs+l3ex2g0A8FjvslnyXokCAA5DuRsA9n3y3bxQuMxmcdJCNwDA0/xva20pBmDH92/HSdbu3WDrPrbWOjEAeziXr5JcSAIA4Gn3bklWSa4NbQDAfil3A8C+TrqbT1hdxssEAIBt+am1thYDsON7uZX7ONg6P9IC9nEO72K1GwBgW35OsvQ8FgD2Q7kbAHZ9st18xvsyybk0AAC26ufW2qUYgB3f050leS8J2Co/0AL2cQ6/i2eyAADb9i6bkvedKABgd5S7AWAXJ9jNp7svk1wlOZEIAMDOKIcB+7jHu09yKgnYil9bay/FAOz43L1IcisJAICd+ZhNyXslCgDYvv8SAQBsT1V1VXWdZJ3kTRS7AQB2bSkCYA+uRQBbsxIB4D4BAGD0TpK8rapPVbXsx88AgC2x3A0A2zihbj7TfZXkQhoAAHtnvRvY9T3fcTY/4j2SBjzLx9ZaJwZgx+ftRax2AwAcws/ZrHmvRQEAz2O5GwCeoapeVtVdkvdR7AYAOJSlCIBdaq19SnIjCXi2lQgA9wcAAJN1keRDVd31P7gDAJ7IcjcAPOUEWnWZzUuCE2kAAAyC9W5g1/eBi1gBBedrwPkaAICH+i3JdWttJQoAeBzlbgB46Elz8xnuq/6fT3EDAAzLz621SzEAO74vXMePfOGpfm2tvRQDsONz9V2Sc0kAAAzKxyTXSVb919EAgB/4LxEAwPdVVVdVqyTrJK+j2A0AMEQXVdWJAdixaxHAk92IANilfrVbsRsAYHhOkrxJsq6qZT+qBgB8h+VuAPjWSbLqLJuV7gtpAACMgkVQYNf3icdJfpcEPNrn1pqX98Cuz9N3Ue4GABiLn5MsW2trUQDAv1nuBoB/qKpF/yLgfRS7AQDG5EW/1gewE/2ng3+WBDzaSgTALlntBgAYnYskH6rqxjNdAPg3y90A8MdJseoym6XuU2kAAIzWu9baQgzADu8dF0luJQGP8pM1NmDH5+d1khNJAACM1rtslrzvRAEAlrsBIFV12T/8fxvFbgCAsTu39ALsUv+S8aMk4MHeKXYDu9SPdih2AwCM23mS26pa99d3ADBryt0AzFJVHVfVsqo+ZVPq9vAfAGA6liIAduxaBPBgKxEArv8BAHigkyRv/yh5V9WxSACYo2qtSQGA+Zz4qrokl0mukhxJBABgsv7bJzyBHd5bHif5XRLwQ59ba17EA7s8J19mM94BAMBE7yuz+ZH9dWvtkzgAmAvL3QDMQlV1VbVK8iHJ6yh2AwBM3VIEwK70LxN/lgT80EoEgOt+AACe4Sib9/vr/svcnUgAmAPlbgAm7R+l7guJAADMxnlVLcQA7NBKBPBD1yIAdqVf7T6RBADALPxR8v5QVSslbwCmrlprUgBgeie4TZHnKskLaQAAzNa71tpCDMAO7z3XUSoD52HAeRgAgEP4OcmytbYWBQBTY7kbgEmpqkVV3SW5jWI3AMDcWe8Gds0qMXzbSgTArljtBgAgmy93/7HkvRAHAFNiuRuAaZzQNjdryyTn0gAA4Au/tdbOxADs6F70OMnvkoB/+dxaOxYDsMNz8DrK3QAA/N27bJa870QBwNhZ7gZg1Krq8oulbsVuAAD+6bRf9QPYutbap2w+AQz83UoEwK5U1VUUuwEA+LfzJLdVdWfJG4Cxs9wNwDhPYJuCzjIe4gMA8GMfW2udGIAd3Z8usvnBMfCXn1prazEAOzjvHidZJzmSBgAAP2DJG4DRstwNwKj0S93rJG+j2A0AwMOcWO8GdqV/QfhREvCnd4rdwA5dRbEbAICH+XLJ+1IcAIyJcjcAo6DUDQDAMy1FAOzQtQjgTysRALvQr3ZfSQIAgEc6T/K2qtZK3gCMhXI3AIOm1A0AwJZY7wZ2aSUCSJJ8bq05HoBdsdoNAMBznETJG4CRUO4GYJCUugEA2IGlCIBdaK19SvKrJMAPHYDdsNoNAMAWKXkDMHjK3QAMilI3AAA7ZL0b2KWVCCA3IgB2xGo3AADbpuQNwGApdwMwCErdAADsyVIEwI4ciwAAts9qNwAAO6bkDcDgKHcDcFBK3QAA7Jn1bmBXzkQAWYgA2AGr3QAA7IOSNwCDodwNwEEodQMAcEDX/fofwDYpd0PSiQDYJqvdAAAcgJI3AAen3A3AXil1AwAwAEdREAG2T7kbHAfA9i1jtRsAgMNQ8gbgYKq1JgUAdn/C2dzsLKPQDQDAMHxO0rXWPokC2MI973GS3yUBSWutpABs6fzaJfkgCQAABuJjkqvW2o0oANg1y90A7JSlbgAABsp6N7BN1oqhV1WOB2BbliIAAGBATpL8UlV3VbUQBwC7pNwNwE5U1UulbgAABu6qX9sFeK6FCOBPnQiA5+pXuy8kAQDAAJ0nuVXyBmCXlLsB2KqqWlTVXZJfotQNAMCwWe8GtqUTAfzJcjewDUsRAAAwcEreAOyMcjcAW/FFqfu2v4kBAIAxsN4NbEMnAviTcjfwLFa7AQAYmS9L3u6JAdgK5W4AnkWpGwCAkbPeDWyD+2H4ixfZwHMtRQAAwAidJ3lfVav+B4sA8GTVWpMCAI8/gWxuRq6TvJAGAAAj9zlJ11r7JArgCffHZ0luJBA4AAAgAElEQVTeSwL+0lorKQBPPK92ST5IAgCACfg5ybK1thYFAI9luRuAR6mqrqpW2TxgV+wGAGAKrHcDz9GJAP6uqhZSAJ5oKQIAACbiIsmHfsn7WBwAPIZyNwAPUlXHX5S6LyQCAMDEvPapTOCJzkQA/+KcCjxa/zUMz54BAJiaiyTrqloqeQPwUMrdAHxXX+peJlnHg3UAAKZtKQLgCZS7wXEBbMe1CAAAmKijJK+j5A3AAyl3A/BNX5S6X/c3GwAAMGUX1ruBJ/B3A/5NuRt4lKpaJDmXBAAAE/dHyfu+qi7FAcC3VGtNCgD8/eSwuYlYJjmRBgAAM/Nza+1SDMAj7qE9YIV/+9xas0IGPOZ8ehflbgAA5udjkqvW2o0oAPiS5W4A/lRVL6tqneRtFLsBAJgn693AY+6jF1KArzryiWngkedTxW4AAOboJMkvVXXnORMAX1LuBiBVteiXUX6JUjcAACxFADxQJwL4pjMRAK6/AQDgQc6T3PYl704cACh3A8xYVXVVdZPkNpZRAADgD9a7gYfytwK+bSEC4EesdgMAwN+cJ/lQVSvPqAHmTbkbYIaq6riqVkk+JHkhEQAA+JelCIAHWIgAvqkTAeC6GwAAnuQim5L3sqqOxQEwP9VakwLAXP7oby76r/p/RxIBAIDv+qm1thYD8J377E/ur+Gb3rXWFmIAvnMeXWTzVUkAAODbPie5bq0tRQEwH8rdAHP5g191meQ6XjoDAMBDKaUB37vPPk7yuyTg21prJQXgO+fSu2w+Ow8AAPzYxyTL1tpKFADT918iAJi2qlpU1TrJ2yh2AwDAY5z3a4IAX3MmAvi+quqkAHzj78PLKHYDAMBjnCR5W1V3nlsDTJ9yN8BE9aXuu2w+a3kiEQAAeJKlCIBvUO4GxwnwdNciAACAJzlPcltVN35UDTBdyt0AE1NVXVWtsil1Wz4BAIDnsd4NfIvSKjhOgCeoqssYJAEAgOd6keRDVV1X1bE4AKZFuRtgIqrquKqWSe6TXEgEAAC2ZikC4Cs6EcAPKXcDrq8BAGC3XiVZ930RACZCuRtgAvqlk3WS10mOJAIAAFtlvRv46t8GEcAPdSIAvmS1GwAAduIoyeuqWvfX3ACMXLXWpAAw1j/im4LJKh6GAwDArr1rrS3EAPT3412SD5KAH2utlRSAL86h63ieDQAAu/YuybK1dicKgHGy3A0wQlXVVdVdktt4EA4AAPtgvRv4UicCeBjnT+CLvweX8TwbAAD24TzJbVWt+pECAEZGuRtgRKrquKqus1kH8/lnAADYr6UIgN5CBPBgnQgA19MAAHAQF0nuq2pZVcfiABgP5W6AkaiqqyTrJK+kAQAAB2G9G/jDmQjgwToRAFa7AQDgYI6SvM6m5H0pDoBxUO4GGLiqWlTVOsmb/qIbAAA4nJUIgCirwmMsRADEajcAABzaSZK3VXVnxARg+JS7AQaqqrqquktyG4smAAAwFCfWTYAkpyKAB7N0DzNXVct4xg0AAENxnuS2qlZV1YkDYJiqtSYFgCH9Ya46zmbF5JU0AABgkD621joxwGzv28+SvJcEPMp/WmufxACzPG8eJ1nHVykBAGCIPie5TnLtvh1gWCx3AwxIvwC4jmI3AAAMmfVumDcrxOC4AR7uKordAAAwVEdJXie5r6qX4gAYDuVugAGoqkVV3Sd5Gw+6AQBgDJYigNnqRACPptwNM9Svdl9JAgAABu8kyS9Vddd/tQ6AA1PuBjigquqqapXkNsmpRAAAYDSsd8N8LUQAj9aJAGbJajcAAIzLeZL3VXXd/1gTgAOp1poUAA7xB7hqGQ+3AQBgzD621joxwOzu59fZrBkBD/eutbYQA8zqfHmcZB3PvwEAYKw+J1m21q5FAbB/lrsB9qyqFv2L4NfxYBsAAMbMejfM757+OIrd8BTnIoDZMWwCAADjdpTkTVXdV9VCHAD7pdwNsCdV1VXVTZLbeBEMAABTsRQBzMqZCOBpqqqTAszmeD/OptwNAACM32mS26pa9df6AOyBcjfAjlXVcVUtk3xI8kIiAAAwKSdVpbgC86HcDU/XiQBmw2o3AABMz0WStefhAPuh3A2wQ1X1Msl9ktfSAACAyVpaLIHZ6EQAT7YQAUyf1W4AAJi0oyRvquq+qtznA+yQcjfADlRVV1V3SX5JciIRAACYtKMosMBcWO4Gxw/wfdex2g0AAFN3muS2qlaGTwB2o1prUgDY1h/Vv1ZJLHUDAMC8fE7StdY+iQImfd//KQpr8FS/tdYUvGHa58kuyQdJAADArHxOsmytXYsCYHssdwNsSVW9THIfxW4AAJgj690w/fv+Lord8BynIoDJW4oAAABm5yjJm6q6r6qFOAC2Q7kb4JmqqquqmyS/JDmRCAAAzNaVT1DCpHUigOepKsvdMN3ju0tyIQkAAJit0yS3VbXynBzg+ZS7AZ6hqpbZrHW/kAYAAMye9W6YtoUI4NmUu2G6liIAAACy+dHnuqo8Kwd4BuVugCeoqkVVrZO8jk8yAwAAf7HeDdPViQAcR8C/We0GAAD+4SjJm6q68xUvgKdR7gZ4hKo6rqpVktskJxIBAAD+wXo3TJcXUfB8CxHAJC1FAAAAfMV5kvdVdW0UBeBxqrUmBYCH/MHcfDJmGUvdAADA931O0rXWPokCpqOqPEiF5/vYWuvEAJM6P3ZJPkgCAAD4gY9JrlprN6IA+DHL3QA/UFVnVXWX5E0UuwEAgB87ivVCmBSfj4Wt8SU8mB7XvQAAwEOcJPmlqu76H4kC8B3K3QDfUFXHVbVM8j6bT8UAAAA81CsPqGFSHM+wJVW1kAJM6ni+kAQAAPAI50nu+z4OAN+g3A3wFf1D6fskr6UBAAA80VIEMBmWu8HxBLjeBQAAtuMoyeuquvcjcICvU+4G+EK/1n2T5DY+EwsAADzPhfVumAxlVNge50aYgL6A4YuXAADAc5wmua2q66o6FgfAX5S7AXpVdZVkneSFNAAAgC1ZigAmQbkbHE+A61wAAGA3XiVZV9VLUQBsVGtNCsC8/xBulvRWsTICAADsxk+ttbUYYLyqykNU2J7PrTVrXDDu8+Iim69fAgAAbNuvSa48UwfmznI3MGtVtUzyIYrdAADA7ixFAOPVF9iA7TnqxxYA17cAAAD/9CLJfVVdiQKYM+VuYJaqalFV90leSwMAANixCyU2GDXHLziugF7/oydjKQAAwC4dJXlTVXdVdSYOYI6Uu4FZqarjqrrO5pORpxIBAAD2ZCkCGC0vkGD7FiIA17UAAAA/cJ7kfVW5DwFmR7kbmI1+UeQ+yStpAAAAe2a9G8ZLuRu2zzkRRshqNwAAcCCvq+q+vycBmAXlbmDy+rXum2zWuk8kAgAAHMhKBDBKyt2wfZ0IYJSWIgAAAA7kNMltVV1X1bE4gKmr1poUgOn+kat6mU2B4kgaAADAAPx3a+1ODDAO/Yui3yUB29daKynAqM6Jl0neSgIAABiAj0kuPWsHpsxyNzBJVdX1a92/RLEbAAAYjqUIYFSsdsOOVJXjC1zHAgAAPMVJNiveKyvewFQpdwOTU1VXSe6TvJAGAAAwMOdVtRADjIbjFXanEwGMQ7/afSIJAABgYC6SrKvqpSiAqVHuBiajX+u+S/Im1roBAIDhWooARqMTAeyM5W5w/QoAAPBcR0l+qaobK97AlCh3A5PwxVr3uTQAAICBs94N49GJAHZGuRtGwGo3AAAwEi9ixRuYkGqtSQEY7x+xqi7JKkrdAADAuLxrrS3EAMNWVR6ewu58bK11YoDBnwvXUe4GAADG5dckl621T6IAxspyNzBa1roBAIARs94NA9f/oBzYHWVRGP658NKxCgAAjJAVb2D0lLuB0amqrqrukrxJciQRAABgpJYigEE7EwHslh86getVAACAHTlK8ktV3VTVsTiAsVHuBkbFWjcAADAh55ZDYNCUu2H3OhHAMFntBgAAJsKKNzBKyt3AKFjrBgAAJupaBDBYyt3gOINZ6lftlpIAAAAmwoo3MDrK3cDgWesGAAAm7KRfRQSGpxMB7JxyNwzTVax2AwAA02PFGxiNaq1JARjmH6iqLskqSt0AAMC0fWytdWKAYakqD05h9z631ixmwbDOf8dJ1vEFTQAAYNp+TXLZWvskCmCILHcDg9T/Ss5aNwAAMAfWu2FgqmohBdiLI59DhsG5imI3AAAwfVa8gUFT7gYGpaqOq+omyS/xABkAAJiPpQhgUDoRwN6ciQCGof+xxZUkAACAmThK8ktVXfvxOTA0yt3AYPS/hltn8+s4AACAObHeDcPSiQD2RrkbhsNqNwAAMEevktz7mh8wJMrdwMH1a92rWOsGAADmbSkCGIyFCGBvlLthAKx2AwAAM3eS5LaqrkUBDIFyN3BQ/a/e7pNcSAMAAJg5690wHMqmsD+dCGAQrHYDAAAkr6rqvqo8HwQOqlprUgAO8wdo82u3V5IAAAD408fWWicGOJx+ufR3ScD+tNZKCnDwc986yt0AAABf+t/W2lIMwCFY7gb2rqrOquo+it0AAAD/dFJVSzHAQVnlgT2rqk4KcFBWuwEAAP7tdVXdeW4BHIJyN7BXVXWV5H2SU2kAAAB81VW/nggchnI3OO5gNvqSwpUkAAAAvuo8yX1VXYoC2CflbmAvqqqrqrskb6QBAADwXUdRsIFD6kQAe6fcDYezjNVuAACA7zlK8raqbgyzAPui3A3sXFW9THKfza/ZAAAA+DHr3XA4SqbguINZ6Fe7LyQBAADwIC+SrKtqIQpg15S7gZ2pquOquknySyx/AAAAPIb1bjgcP06H/etEAAexFAEAAMCjHCW5raprUQC7VK01KQDb/+Oy+ZXaKsmJNAAAAJ7kc5KutfZJFLAf/YLpB0nA/rXWSgrgnAcAADAivyW5bK3diwLYNsvdwNZV1TLJbRS7AQAAnsN6N+xfJwI4DJ80hr1bigAAAOBZTpPcVZXn+MDWKXcDW1NVXVXdJ3ktDQAAgK24qqpjMcDeLEQAB9OJAPajX+2+kAQAAMCzHSV5U1U3nuUD26TcDWxFVV0muc/mV2kAAABsh/Vu2K8zEcDBdCKAvVmKAAAAYKteJFn7MhmwLcrdwLNU1XFVrZK8zaZ0AAAAwHZZ74b96UQAB7MQAeye1W4AAICdOUpyW1XXogCeS7kbeLKqOstmrduDYAAAgN05SuJhMOyHL5LB4XQigL1YigAAAGCnXlXVfd+rAniSaq1JAXj8H4+qqyRvJAEAALA3P7XW1mKA3ehftryXBBzUf1prn8QAOzvXLZLcSgIAAGAvPie5aq2tRAE8luVu4FGq6riq7qLYDQAAsG9LEcBOWdIBxyG4ngQAAGBbjpK8rapVVR2LA3gM5W7gwfpVj3WSc2kAAADs3UVVdWKAnXF8weEpd8OO9M/3PdsHAADYv4sk9/2XAwEeRLkbeJCqWmbzucYjaQAAABzMUgSwMwsRwMF1IgDXkQAAABN0kuR9VV2JAniIaq1JAfj2H4nNKtxNklNpAAAADMJPrbW1GGC7qmqdzUsW4HDetdYWYoCtn+MW2Yy3AAAAcHi/JrlsrX0SBfAtlruBb6qql0nuo9gNAAAwJEsRwE4odsPhnYsAXD8CAABM3Isk9/0PcQG+Srkb+Kqquk7yS5IjaQAAAAzKRf+VJWBLvEiBQR2PznGw/XOcH04AAAAMy0mS26paigL4GuVu4G+qqquq+ySvpAEAADBYSxHAVp2JAAajEwG4bgQAAJiJ11V1V1XHogC+pNwN/KmqXia5T3IqDQAAgEG7qCplVNieTgQwGAsRwHZY7QYAABiF8yRrXxcEvqTcDSRJquo6yS9JjqQBAAAwCtcigK3xYwlwPILrRQAAAA7lKMltVS1FASTK3TB7VdVV1X2SV9IAAAAYlXNLHrA1yqQwHJ0I4Pmq6jK+0gkAADA2r6vqrqqORQHzVq01KcBc/wBUvUyyirVuAACAsXrXWluIAZ6uqrokHyQBw9FaKynAs89v6yQnkgAAABilj0lettbuRQHzZLkbZqr/jMcvUewGAAAYM+vd8HydCGBYqsqaPjzvGLqMYjcAAMCYnSR5X1VXooB5Uu6Gmamq46q6S/JaGgAAAJOwFAE8y0IEMDidCMD1IQAAAHlTVTdVdSwKmBflbpiRfs1tneRcGgAAAJNhvRuepxMBDI7lbngiq90AAACT8yLJnS+dwbwod8NM9J/puE1yJA0AAIDJWYoAnsxLERiehQjAdSEAAAB/Os2m4H0pCpgH5W6YuKo6rqqbJG+kAQAAMFnWu+HpTkUAg9OJAB7PajcAAMCkHSV5W1UrUcD0VWtNCjDVA3zzOY5VvKQEAACYg3ettYUY4OH6ZyfvJQHD01orKcCjz2vrKHcDAADMwW9JXrbW1qKAabLcDRPVL3TcRbEbAABgLs6r6qUY4FE6EcAw+SIFPPqYuYxiNwAAwFycJrn3/ASmS7kbJqiqrpO8zeZzHAAAAMzHtQjgUc5EAI5PGLuqOnYdCAAAMDtHSW6raikKmB7lbpiQqjquqvskr6QBAAAwSyf9aiPwMMqjMFydCODBrmLsBQAAYK5eV9VN/8NfYCKqtSYFmMLBXHWW5C4e4AIAAMzdx9ZaJwb4sapaJzmRBAzSu9baQgzww3PZcZJ1vBsAAACYu9+SXLbW7kUB42e5GyagX2V7Hw9vAQAAsN4NjzpeRACDZVkfHsZqNwAAAElymuSuql6KAsbPcjeM/SCuWiW5kAQAAABfsN4NP1BViyS3koBB+6m1thYDfPNcZrUbAACAr/l/rbUrMcB4We6Gkaqq46q6j2I3AAAA/2a9G36sEwE4TmHkrHYDAADwNa+q6q7/UTAwQsrdMEJVdZbNGsepNAAAAPiGpQjgu85EAIO3EAF8Xf+C3gobAAAA33Ke5L7vmQEjo9wNI9Mvr72PNQ4AAAC+z3o3fJ+XGjB8nQjgm6x2AwAA8CMnSe68K4DxqdaaFGAsB2zVKsmFJAAAAHigj0nOWmufRAF/V1WfohQHQ/eutbYQA/zrHHaczdc9nccAAAB4qP9trS3FAONguRtGoKqOq+o+it0AAAA8zkk2q47AF/pSnEIcDN+5COCrrHYDAADwWK+r6qZ/NgoMnOVuGPpBWnWW5C4e1AIAAPA0n5N01rvhL1W1SHIrCRiF/9NauxcD/HkO65J8kAQAAABP9FuSS89bYNgsd8OAVdVlFLsBAAB4nqNY74Z/WogARqMTAfzNUgQAAAA8w2mSu34AAxgo5W4YqKq6TvI2it0AAAA835VPLcLfdCKA0TgTAWz0q90XkgAAAOCZjpLcVpVhGBgo5W4YmKo6rqqbJK+kAQAAwJZY74a/60QAo6HcDX9ZigAAAIAtelNVKzHA8FRrTQowlANys7pxk83nLwAAAGCbPifpWmufRMHcVZWHojAeH1trnRhw7qouyQdJAAAAsAO/JVl4fwDDYbkbBqKqzpLcR7EbAACA3bDeDfmzHAeMx4kIIInVbgAAAHbnNMl9318DBkC5Gwagqi6TvM/mRTsAAADsylVVHYuBmfOCAkamqhZSYObHQJfkQhIAAADs0EmSu6p6KQo4POVuOLCquk7yVhIAAADsgfVuUO6GMepEwMwtRQAAAMAeHCX5paq8R4ADU+6GA6mq46q6SfJKGgAAAOzRVb/+CHOl3A2OWxgNq90AAAAcwJuqWokBDke5Gw6gfxh7l+SFNAAAANizo1h/ZN46EcDoKHczZ9ciAAAA4AAuquq+qo5FAftXrTUpwD4PuqqzbIrdR9IAAADggH5qra3FwNxUlQeiMD6fW2teJDLHc9Yiya0kAAAAOKDfkly21u5FAftjuRv2qKouo9gNAADAMCxFwNz0JTlgfI6sROF6DQAAAA7iNMmdZ6uwX8rdsCdVtUzyNordAAAADMNFVXViYGb8n4fxOhMBc9K/ND+XBAAAAANwlOS2HzYF9kC5G/agqlZJXksCAACAgVmKgJnpRACjpdyN6zQAAAA4rLdVdS0G2D3lbtihqjquqvskF9IAAABggKx3MzcLEcBoKXczG1a7AQAAGLBXVbWqqmNRwO4od8OOVNVZkrskp9IAAABgwJYiYEY6EYDjF1yfAQAAwLNcJLlT8IbdqdaaFGDbB9Zfxe4jaQAAADACP7XW1mJgyvoXDb9LAsartVZSYAbnq0WSW0kAAAAwAh+TvGyt3YsCtstyN2xZVV1GsRsAAIBxWYqAGTgTAYxbVXVSwHUZAAAADMZJNgvenr3Clil3wxb1xe63UewGAABgXC76lUiYMi8YwHEMg9Zfj51LAgAAgBE5SvK+780BW6LcDVtSVatsit0AAAAwRksRMHGdCGD0lLuZumsRAAAAMFJvq+pKDLAdyt3wTFV13Be7L6QBAADAiJ1b72bilELBcQyD1S+cnUoCAACAEXvT9+iAZ6rWmhTgqQdQ1XGSu3jgCgAAwDS8a60txMAUVZUHoTB+v7XWFLyZ6nlqneREEgAAAEzAr0kuW2ufRAFPY7kbnqiquih2AwAAMC3Wu5mk/jkOMH6exTLV89RlFLsBAACYjhdJ7vrhVOAJlLvhCarqLMl9vEwAAABgepYiYII6EcA09M9mwfUXAAAADNtpNgVvz3LgCZS74ZH6BbO7JEfSAAAAYIKsdzNF/k/DdHghyKRY7QYAAGDCFLzhiZS74RH6h6y3UewGAABg2pYiYGK8PIDp6ESA6y4AAAAYjaNsCt4LUcDDKXfDA/XF7reSAAAAYAasdzM1nQhgMpyfmAyr3QAAAMzEUZLb/j4YeIBqrUkBfnSgVK2SXEgCAACAGXnXWluIgSmoKg9BYTo+ttY6MTCR89M6yt0AAADMy/+01lZigO+z3A0/oNgNAADATJ1b0WAKqupMCjApJ1V1LAYmcH66imI3AAAA8/O27+MB36HcDd9QVcdVdRfFbgAAAOZrKQImoBMBTI4fbTBq/Q8UXGcBAAAwVxcK3vB9yt3wFf2D1bsk59IAAABgxk6sdzMBSqDguIahuUpyJAYAAABm7KKqbnyhDb5OuRv+4Yti96k0AAAAwKoko7cQAUxOJwLGqn8HcSUJAAAAyIskdwre8G/K3fCFqjpLso5iNwAAAPzBejdj14kAJsdyN2NmtRsAAAD+choFb/iXaq1JAfJnsfsuHqoCAADAP31srXViYIyqygNQmKDWWkmBEZ6TjrMZmPEeAgAAAP7uY5KXrbV7UYDlbkii2A0AAAA/YL2bUaqqhRRgssd3JwVGyGo3AAAAfN1JNgvevtgGUe6G9C+n7+KBKgAAAHzPUgSMkBcBMF2dCBiTfrX7ShIAAADwTUdR8IYkyt3MXF/sfhvFbgAAAPgR692MUScCmKyFCBgZq90AAADwY38UvBeiYM6Uu5mtL4rdAAAAwMMs+9VJGAsLLzBdnQgYC6vdAAAA8ChHSW4NzjBnyt3MkmI3AAAAPMlJFJMYF+VucHzDECxjtRsAAAAe662CN3NVrTUpMK//9FWrJBeSAAAAgCf5nKRrrX0SBUNWVV2SD5KA6WqtlRRwPgIAAIDJ+5/W2koMzInlbmZFsRsAAACe7SjWuxmHTgQwbVVlvZsxWIoAAAAAnsWCN7Oj3M1sKHYDAADA1lxV1bEYGLiFCGDyOhEwZP1qt/cSAAAA8Hxv+/4fzIJyN7Og2A0AAABbZb2bMehEAJNnuZuhW4oAAAAAtuZCwZu5UO5m8hS7AQAAYCesdzN0nQhg8hYiYKisdgMAAMBOKHgzC8rdTFZVHVfVXTw8BQAAgF2w3s3QnYsAJq8TAQO2FAEAAADshII3k1etNSkwvf/Ym+WwuySn0gAAAICd+Zyka619EgVDUlVnSd5LAqavtVZSYIDnoS7JB0kAAADATv3cWrsUA1NkuZvJUewGAACAvbHezVB1IoB5qKqFFBigpQgAAABg5yx4M1nK3UyKYjcAAADs3et+nRKG5EwE4HiHQ+iviy4kAQAAAHuh4M0kKXczGYrdAAAAcDBLETAwyp4wH50IGJiVCAAAAGCvLqrqvu8PwiQodzMJit0AAABwUBfWuxkY5W5wvMPeVdUiybkkAAAAYO9Ok9wpeDMVyt2MnmI3AAAADMJSBAzIiQhgNpS7cT0EAAAAJAreTIhyN6Om2A0AAACDYb2bQehXU4H5OPLCjgGdf6x2AwAAwGEpeDMJyt2MlmI3AAAADM5SBAxAJwKYHevduA4CAAAA/qDgzegpdzNKit0AAAAwSNa7GQIlT5ifhQg4JKvdAAAAMDgK3oyacjejo9gNAAAAg7YUAQem3A3z04kA1z8AAADAPyh4M1rK3YyKYjcAAAAMnvVuDk25G+bHeYeDsdoNAAAAg6bgzShVa00KjOM/q2I3AAAAjMWvrbWXYmDf+udHv0sC5qe1VlLgQOeeuyh3AwAAwND9lmTRWvskCsbAcjejoNgNAAAAo/KiX7GEfbPaDTNVVY5/DvH/bhHFbgAAABgDC96MinI3g6fYDQAAAKO0FAEHoNwJ89WJgANYiQAAAABGQ8Gb0VDuZtAUuwEAAGC0zq13cwDK3eD4h72oqsskJ5IAAACAUTlNci0Ghk65m8FS7AYAAIDRW4qAPetEALOl3I3rHAAAAOAhLqpqJQaGTLmbQVLsBgAAgEmw3s3e/8+JAGZLuZu9sdoNAAAAo6fgzaBVa00KDOs/pWI3AAAATMm71tpCDOxaVXVJPkgC5qu1VlJgT+ecdZS7AQAAYAp+bq1dioGhsdzNEF1HsRsAAACmwno3+2K1F2bO+YY9/T+7jGI3AAAATIUFbwZJuZtB6f9QXkgCAAAAJmUpAvZAuRvoRIDrGgAAAOCRFLwZHOVuBkOxGwAAACbLejf7oNwNdCJgl6x2AwAAwGQpeDMoyt0MgmI3AAAATN61CNixTgQwewsRsGNLEQAAAMBkXVTVlRgYAuVuDtCBLKwAACAASURBVE6xGwAAAGbhtF+7hJ39HxMBzJ4Ff3amf7lrtRsAAACm7Y13GQxBtdakwOH+A1Ytk7yWBAAAAMzCx9ZaJwa2raoWSW4lAST5T2vtkxjY8nnmOMk6yZE0AAAAYBb+p7W2EgOHYrmbg+l/4aLYDQAAAPNxYvGCHelEAPSsd7MLV1HsBgAAgDl5630Gh6TczUH0f/jeSgIAAABmZykCdqATAdBT7mar+tXuK0kAAADA7Px/9u72PG7z6hbw3m5gmAoIV8BJBRxXIHZApgLxVGB0EJ4KzFQQdSC6gjgViKrAYgX7/UHEtiRKnA9gBh/3/S+OOAOsB3pGF7C55pfMvBIDp2C4m6Mz2A0AAACLpr2bIWxEAHQMd9M3rd0AAACwXPeZ6X4TR5dVJQWOd8E9b3T/kQQAAAAs2seqasRAXzLzMSLOJQFExK9VtREDPX2+nEXEYxjuBgAAgCV7iohNVf0mCo5FczdH0w12P0gCAAAAFk97N73pBu8MdgP/cykCeqS1GwAAAFhFxIMGb45JczfHudD+HOx2ExQAAACI0N5NTzJzExHvJQH8xY9V9SgGDvx80doNAAAA/NXHiFhX1SdRMDTN3QyuuwH6EG6AAgAAAH/S3k1ftKUA9gWGoLUbAAAA+KvzeG7wPhMFQzPczaAMdgMAAADfcecmKD1oRAB8wXA3B+n+fXIrCQAAAOALF2HAmyMw3M1g/jLYfSENAAAA4AWrMDjF4QxxAvYF+nYXSmsAAACAl11ExL0YGFJWlRQY5uLKfIiIS0kAAAAA3/EUEU1VfRIF+8hMNziBL/23qgx4s+/nShMRHyQBAAAAvOJfVXUjBoaguZtBZOZ9GOwGAAAAXqe9m711A3gAX/JtkhyiFQEAAACwhevMvBMDQzDcTe+6we5rSQAAAABbus3MMzGwh0YEwEsyU3M3+1w3TXi+AQAAAGzvbWbeiIG+Ge6mV91G5cYnAAAAsAvt3exrIwLgGwx3s49WBAAAAMCOfjHgTd8Md9ObboP6RRIAAADAHrR3sw/Dm8C3NCJgF1q7AQAAgAP84pvk6JPhbnrRbUwGuwEAAIB9ae9mH40IgG/YiIAdtSIAAAAADvBgwJu+ZFVJgcMuoucN6SGeH8ICAAAA7OspIpqq+iQKtpGZbm4C3/KxqhoxsOXnSRMRHyQBAAAAHMhzDnqhuZuDdF+X/BAGuwEAAIDDae9maxpQgFecd/evYRutCAAAAIAerOK5wdt9KQ5iuJu9GewGAAAABvBz154Jr3GdAK/xSyC8qvtloWtJAAAAAD25iOe5Stib4W4O8a7biAAAAAD61IqALRjaBOwT9OFOBAAAAEDPLjLzXgzsy3A3e+k2nktJAAAAAAO41t7NFjYiAF7hs4TvysxNeNYBAAAADOM6M/1SOXsx3M3OMrMNX1EIAAAADKsVAa9oRAC8QnM3/r0BAAAAnNLbzLwRA7vKqpIC218wzxvNL5IAAAAAjuDHqnoUAy/JTDc2gVdVVUqBb3yObCLivSQAAACAI/ipqh7EwLY0d7O1zFyHwW4AAADgeFoR8JJuIA9gm/2ikQL+nQEAAACc2Ltu/hK2YribrXQby4MkAAAAgCO6NpTHN7gJDmzL5whf6X5J6FISAAAAwJGs4nnA+0wUbMNwN6/qNpR33QYDAAAAcEytCHhBIwJgSxsR4N8XAAAAwAicR8SDAW+2YbibbTx0GwsAAADAsWnv5iWau4Ft+QzhM1q7AQAAgBO6iIg7MfAaw918V2bedxsKAAAAwKnci4AvGO4G7BfsqxUBAAAAcELXmWnAm+/KqpICL18cmW1E/CwJAAAAYAR+qqoHMdB9ZeXvkgC2VVUpBbrPkKuI+LckAAAAgBH4R1Xdi4GXaO7mRZl5Ewa7AQAAgPFoRUBHCy+wk8y0b/A/WrEAAACAsfjFfSu+xXA3X+k2DDc4AQAAgDG5zMyNGIgI1wGwq0YEdKU255IAAAAARuTBgDcvMdzNZ7qvtX2IiJU0AAAAgJFpRUAY0gR25wEZ/h0BAAAAjNEqIu67uU34g+Fu/mCwGwAAABg57d1EGO4GduezY+G0dgMAAAAjdhER78TAXxnu5q/uuo0CAAAAYKxaESzepQiAHTUi8O8HEQAAAAAjdpmZd2Lgfwx3ExERmdlGxLUkAAAAgJHT3r1gmbmWArAHjc3L/uy4cQ0AAAAAE/C2u48Bhrv548bmz5IAAAAAJqIVwWI1IgD24ReD/LsBAAAAYAJ+UXJChOHuxes2AnX+AAAAwJRo714uN7WBfTUiWB6t3QAAAMAEPWRmI4ZlM9y9YJl5FhHvImIlDQAAAGBi7kWwSIa7AfsHu2hFAAAAAEzMKiLedfOdLJTh7mV7FxorAAAAgGk679o4WRbDmYD9g61kZhuegQAAAADTdBERd2JYrqwqKSxx4TPvI+JaEgAAAMCEfayqRgzLkZluZgL7eqoqbUfL+bw4i4jH8M2lAAAAwLT9v6oy5L1AmrsXqGu1MtgNAAAATJ327gXJzI0UgAOsfJXtotyGwW4AAABg+v7p3vgyGe5emMxcR8QvkgAAAABmohXBYjQiAA60FsH8dUP8t5IAAAAAZuJdZjZiWBbD3QvS3dB8kAQAAAAwI9q7l6MRAXCgjQgWQWs3AAAAMCereB7w9q10C2K4e1nehRuaAAAAwPy0IliEjQiAAzUimDet3QAAAMBMXUTEnRiWw3D3QmTmXURcSgIAAACYIe3dy7AWAXCgRgSzp7UbAAAAmKvrzPRL7QuRVSWFuS/y88PNXyQBAAAAzNjHqmrEME9dE+vvkgAOVVUphVl/VjyG4W4AAABg3n6qqgcxzJvm7pnLzHWo4wcAAADm71xjxaxp7QZ60d0zZ560dgMAAABL8C4zGzHMm+HuGetaKt6Fm5kAAADAMrTd/RDmxzAm0JdGBPPTff77JS8AAABgCVbxPBfKjBnunrf7iDgXAwAAALAQqzDYNVeGuwH7Cd9zF4puAAAAgOW4yMx7McyX4e6Zysw2It5IAgAAAFiYW+3ds9SIAOiJ4e6Z6b6G+FoSAAAAwMJcZ+aNGObJcPcMZeYmIn6WBAAAALBA2rvn6VIEQE8aEcxOKwIAAABgoe4yU5nBDGVVSWFOC/rcTPUYvn4QAAAAWK6niGiq6pMopq9rZP0gCaAvVZVS8BkBAAAAMBP/jYiNZyLzorl7fh7CYDcAAACwbNq750XrCNCr7tsvmYdWBAAAAMDCXUTEvRjmxXD3jGTmXfcXFQAAAGDpbrtvOGP6DHcDfWtEMH1da/e1JAAAAADiTWYqvZkRw90zkZlXEfFWEgAAAAARob17Tgx3A31rRDALrQgAAAAA/vDPzHQ/fSayqqQw9UV8bqf4LZ4fWgIAAADw7Ckimqr6JIrpyszfwrfVAf36tao2Ypj0Z0MTER8kAQAAAPCZjxGx9lxk+jR3z8O7MNgNAAAA8KVVaPWcA4PdQN80GE2fz3cAAACAr51HxL0Yps9w98Rl5l14wAUAAADwLW+7dk8myFdIAgNZZeaZGCb72bCJiGtJAAAAALzoTWbeimHaDHdPWGZeRcRbSQAAAAB8VyuCyTLcDdhf8LkOAAAAsJt/Kk+ZNsPdE9U1Tt1LAgAAAOBV19q7J8u6AUPxcGuCutbuS0kAAAAAvOqdb6+bLsPdE/6LFxErMQAAAABspRXBJG1EAAzEcLfPcwAAAIA5Ow8FwpNluHuCMvMuIi4kAQAAALA17d3TZM0A+wsRobUbAAAAYA9vMvNWDNOTVSWFKS1Y5lVE/FsSAAAAADv7V1XdiGEauq+L/F0SwFCqKqUwqc+FhzDcDQAAALCPv1fVb2KYDs3dE9I90LqXBAAAAMBetHdPy1oEwJB8JkxqrTZhsBsAAABgX++6+VMmwnD3xP6CRcRKDAAAAAB7a0UwGYa7gaE1IvD5DQAAALAA5xFxJ4bpMNw9EZnZhlYKAAAAgENp754O6wQMbSOC8dPaDQAAANCL68y8EcM0GO6egMxcR8TPkgAAAADoxb0IJkFzN2CfIUJrNwAAAEBf7hTgTIPh7pHLzLOIeCcJAAAAgN5cdi2gjHydRAAMrBHBuHVtUj4PAAAAAPqxCvOok2C4e/zuIuJcDAAAAAC9akUwXppDgCO5EIHPawAAAICFucjMVgzjZrh7xDLzKiKuJQEAAADQO+3d49aIADiGzFxLYbRrcxPKbwAAAACG8LNnJONmuHukunaie0kAAAAADKYVwWhtRAAcieFun9MAAAAAS3SfmWdiGCfD3SP+ixMRKzEAAAAADEZ793g1IgDsN8ultRsAAABgcOehgHi0DHePUGa2EXEpCQAAAIDBtSIYJU26wLFsRODzGQAAAGCh3mTmlRjGJ6tKCmNakMx1RPxHEgAAAABH81NVPYhhPDLTTUvgWD5WVSOGUX0G3ETEL5IAAAAAOIqniFhX1aMoxkNz94hk5lmouQcAAAA4tlYE49GVHwAcy3l3bx6fywAAAABLtApzq6NjuHtc2oi4EAMAAADAUV362sFRaUQAHJlfKhmJrrX7XBIAAAAAR3WZmbdiGA/D3SORmZuIeCsJAAAAgJO4E8FoGLIE7DsL1DWot5IAAAAAOIl/+mbN8TDcPQLdDct7SQAAAACczHnXFsrpbUQAHFkjglG4Da3dAAAAAKd0L4JxMNw9nr8QblgCAAAAnFYrglFoRAAcmUaiE+tKcHz1LwAAAMBpXWRmK4bTM9x9Ypl5FRFvJAEAAABwctq7R7IOIgCOzHD36d1GxEoMAAAAACf3c2a6X3ZiWVVSOFX4z00Uj+GGJQAAAMBYfKyqRgynkZmbiHgvCeAEfqyqRzGcZO/3rAQAAABgXD5GxLqqPoniNDR3n9Z9uFkJAAAAMCbau09LGwhwKo0ITkZrNwAAAMC4nEdEK4bTMdx9Ipl5FRFvJAEAAAAwOq0ITqYRAXAiGxEcX9fafSsJAAAAgNF5233bJidguPsEupuV95IAAAAAGCXt3aejuRs4lUYEJ6G1GwAAAGC87rt5V47McPeJLvhwsxIAAABgzFoRnIThbsD+sxBauwEAAABG7zw8LzkJw91HlplXEfFGEgAAAACjdp6ZrRiOpxvyU4gAnMqFCI5OazcAAADA+L3NzI0YjiurSgrHCvv5AdVjuFkJAAAAMAVPEdFU1SdRDK+7OfxeEsAJ/b2qfhPDUfb8JiJ+C89LAAAAAKbgY0SsPS85Hs3dx3UfblQCAAAATMUqnltFOY6NCIATa0RwNG14XgIAAAAwFefxfD+HIzHcfSSZeRURbyQBAAAAMCm33bexMbxGBMCJrUUwvK61+1oSAAAAAJPytvsGTo7AcPcRdA8A7yUBAAAAMDnau4+nEQFwYhsRHEUrAgAAAIBJuleIcxyGu490QYevFwQAAACYKu3dx3EpAuDEGhEMS2s3AAAAwKSdh0KcozDcPbCuhv6NJAAAAAAmS3v3wDJzLQVgBM5FMLhWBAAAAACT9rN7+sMz3D2grtHpXhIAAAAAk6e9e1iNCIAx6ApbGCbbJrR2AwAAAMzBvQiGZbh7WG1o+gAAAACYA+3dw9LyAYxFI4LBtCIAAAAAmIWLzGzFMBzD3QPp2j3eSgIAAABgNrR3D8dwN2A/mjGt3QAAAACzc9vd82EAhruHcycCAAAAgFlZhXs+QzFMCdiP5q0VAQAAAMCsrCLiXgzDyKqSQt+hPtfN/ywJAAAAgFn6saoexdCfzHSTEhiLp6ryLQ397vGbiHgvCQAAAIBZ+kdV3YuhX4a7+w70uWb+gyQAAAAAZutfVXUjhn4Y+gNG6G9V9UkMve3zDxFxKQkAAACAWXqKiMb9tH79IILe3YsAAAAAYNauu1/wpx+yBMZmLYJ+dL/AY7AbAAAAYL5WYW62d4a7e5SZN+EmJQAAAMAStCLoTSMCYGQ2IvB5CQAAAMDW3nS/5E9PDHf3JDPPIuJOEgAAAACLoL27PxsRACNjf++B1m4AAACARbkXQX8Md/fnLp7r5QEAAABYhlYEvViLABiZRgQ+JwEAAADYyXlmtmLoR1aVFA4N8bl94r0kAAAAABbnx6p6FMN+um/D+10SwNhUVUrhoP19E56bAAAAACyR5yY90Nzdj3sRAAAAACxSK4KDaO0GRikz7U8+HwEAAADY3b0IDme4+0Bdjfy5JAAAAAAW6doA4EFkB4xVI4L9dK3dl5IAAAAAWKTLzLwRw2EMdx8gM5uIuJUEAAAAwKLdiWBvhrsB+5PPRQAAAADm5S4zz8SwP8PdB16AEbESAwAAAMCiXXYtpeyuEQEwUoa799C1Ml1IAgAAAGDRVhHRimF/WVVS2Ce45wd27yUBAAAAQET8WlUbMewmM92cBMbqv1VlwHv3ff0xIs4lAQAAAEBE/L2qfhPD7jR37+9eBAAAAAB0tHfvKDMbKQAjpn169339Jgx2AwAAAPCnOxHsx3D3HjKzDTcoAQAAAPhcK4KdNCIAxswv7fgcBAAAAOAgl10hADsy3L2jrlHoVhIAAAAAfEF7925kBYxdI4LtaO0GAAAA4BvuMvNMDLsx3L3HhRYRKzEAAAAA8IJWBFtbiwAYuUYEPv8AAAAAOMgq3DvameHuHXTNS28kAQAAAMA3aO/eXiMCYOTs51vQ2g0AAADAK95mZiOG7WVVSWHbsDIfww1KAAAAAL7v16raiOH7MtONSWDsnqrKV8a+vp8/hmcnAAAAAHyfZyc70Ny9pcy8DTcnAQAAAHjdZWZeieHbMnMtBWACVplpuPv7+/lNeHYCAAAAwOs8O9mB5u5tQnq+efsYEStpAAAAALCFj1XViOFl3TDgL5IAJuCnqnoQw4t7uWcnAAAAAOzCs5Mtae7ezl24OQkAAADA9s67AWZe1ogAmAjfNPBtt+HZCQAAAADbO8/MVgyvM9z9iu4rYq8lAQAAAMCOWhF800YEwEQ0Ivha19p9KwkAAAAAdnSbmY0Yvs9w9+vuRAAAAADAHrR3f1sjAmAiNHe/TGs3AAAAAPtYhXKcV2VVSeFb4WReRcS/JQEAAADAnj5WVSOGP3Vtr79LApiKqkopfLWPP4bhbgAAAAD291NVPYjhZZq7v09rNwAAAACH0N79NS24wKT4mtivaO0GAAAA4FCtCL7NcPc3ZGYbEeeSAAAAAOBArQg+Y7gbmJpGBM+61u5bSQAAAABwoEvlON9muPsFbk4CAAAA0CPt3Z9rRABMzEYEf9DaDQAAAEBfWhG8zHD3ty8YNycBAAAA6EvbFQqguRuwb02SYhwAAAAAenaema0Yvma4+wuZ2UTEW0kAAAAA0KPzMBD3P4YkgalpRBARWrsBAAAA6N+tcpyvZVVJ4a+BZL6LiDeSAAAAAKBnTxHRVNWnpQbQFSt8cCkAU1NVueTzt38DAAAAMKD/X1UKcv5Cc/dfZOYmDHYDAAAAMIxVaO9uXAbAFGXm0r91oHUVAAAAADCQt125AB3D3Z9rRQAAAADAgJb+9YIblwAwUYsd7u4erF27BAAAAAAY0J0I/mS4u5OZNxFxKQkAAAAABrT09u7GJQDYvyantfwAAAAADOxNZm7E8CyrSgoRkZmPEXEuCQAAAAAG9hQRTVV9WtqJZ+ZvEXHhEgAm6Neq2ixw324i4oPlBwAAAOAIFnkP7iWau+OP1m6D3QAAAAAcw5Lbuw12A1PVLPS8W0sPAAAAwJFcZuaVGDR3R2aeRcRjPD9UAwAAAIBjWFx7d2auI+I/lh6YqqrKJZ2v1m4AAAAATuBjVTVLD0Fz93NLksFuAAAAAI5pie3djWUHpiwzNws75daqAwAAAHBk55l5s/QQFj3c3bV23/q7AAAAAMAJ3HatqEuxtuSAfWwaus+na0sOAAAAwAm0Sw/gBxeA1m4AAAAATmIVy7pBubHkwMQ1CzrXO8sNAAAAwImcZ2a75ACyqpZ54s+tEx/8HQAAAADgxH6sqse5n2RmPkbEueUGJuzXqtosYL/eRMR7yw0AAADACT1FRFNVn5Z48ktu7m5d+wAAAACMQLuQ8zTYDUzd2ucSAAAAABzFKiJul3ryi2zu1toNAAAAwMjMur1bCyxgv7ZfAwAAAMCOFtvevdTm7tY1DwAAAMCItDM/v8YSA/Yzn0cAAAAAsIPFtncvbri7a+2+ds0DAAAAMCLX3X2ruVpbYmAmNnM9sa61+9ISAwAAADAitzN/fvKiJTZ337vWAQAAABihdsbnZrgbmIvG5xAAAAAAHM0qFnjfKqtqOSf73Drx3rUOAAAAwEj9WFWPczupzPwUzzdgAabuv1U1u19Y8fwEAAAAgJGb5fOTb1lac3fr+gYAAABgxNq5nVBmnoXBbmA+Lnz+AAAAAMDRtUs62cUMd3etE5eubwAAAABG7Lq7jzUna8sKzElmrmd2Ppvw/AQAAACAcbvOzGYpJ7uk5u7WtQ0AAADABLQzO5+NJQVmppnZ+dxZUgAAAAAmoF3KiS5iuFvrBAAAAAATcjmz9u7GkgIzM5vm7sy8iYgLSwoAAADABCymvXspzd2taxoAAACACWlndC6N5QRmZj2jc2ktJwAAAAAT0i7hJLOq5n2Czy1H713PAAAAAEzMT1X1MPWTyMyylMDMfKyqZgb7801E/GI5AQAAAJiYH6vqcc4nuITm7tZ1DAAAAMAEtVM/gcxcW0Zghs59zgAAAADAybRzP8FZD3d3rd2XrmMAAAAAJuiyu781ZY1lBOZo6vtz19p9biUBAAAAmKDrzGzmfIJzb+5uXcMAAAAATFg78ePX3A3MVePzBQAAAABOpp3zyc12uFtrNwAAAAAzMPX2bsPdwFxNdn/T2g0AAADADMy6vXvOzd03rl0AAAAAZqCd8LE3lg+YqSn/8kpr+QAAAACYgXauJ5ZVNb+Tep7G/+C6BQAAAGAm/lFV91M76MwsSwfM1FNVnU1wX76NiH9aPgAAAABm4m9V9WluJzXX5u7W9QoAAADAjLRTO+DM3Fg2YMZWmTmp4e7ueFtLBwAAAMCM3M7xpGY33N21dl+7XgEAAACYkfPMvJnYMTeWDZi59cSO9zYiVpYNAAAAgBm5nVoJwzbm2NzdulYBAAAAmKF2YsfbWDJg5jZTOdDuAdetJQMAAABgZlYxw/tesxru1toNAAAAwIxNrb17Y8mAmWsmdKxauwEAAACYq9m1d8+tufvGNQoAAADAjLUTOta15QJmrpnCQWrtBgAAAGDmVhFxNacTms1wt5uTAAAAACzAJNq7u3t1GmKBubucyHFq7QYAAABg7to5ncycmrvdnAQAAABgCdoJHKPWbmARMrMZ+fEpxgEAAABgCSZRjrOtuQ13AwAAAMDcTeEGpeFuYCnGvt8pxgEAAABgKdq5nMgshru7h1luTgIAAACwFG3XxjpWhruBpRjtfqe1GwAAAICFOc/MzRxOZC7N3a1rEgAAAIAFOY9xD+w1lghYiDH/MksbinEAAAAAWJZ2DieRVTXtE8i8ioh/ux4BAAAAWJiniGiq6tPYDiwzy/IAC/HfqhrdgHdmNhHxwfIAAAAAsEB/r6rfpnwCc2ju9pWCAAAAACzRKkZ4b6wbKARYiouRHldraQAAAABYqMnPFU+6uTszNxHx3nUIAAAAwEKNrr3bPTtggX6qqocR7cNNaO0GAAAAYNl+rKrHqR781Ju7b1x/AAAAACzYGNu7N5YFWJhmZMfTWhIAAAAAFm7S7d2THe7umieuXX8AAAAALNxtZp6N6HjWlgRYmGYsB+LZCQAAAABERMTNyJ6d7GTKzd23rj0AAAAAGF17d2NJgIXZjOhYWssBAAAAALGKiJupHnxW1fQO+nma/rELHwAAAACW7ikimqr6dOoDycyyHMDS9uCqOnkLUNfa/cFyAAAAAEBERHysqmaKBz7V5u6bMNgNAAAAAP8zivbuzFxbCmCJe/BIvuK1tRQAAAAA8IfzzLyZ4oFPdbj71jUHAAAAAJ/5uWttPSXD3cBSnXT/6/b/a8sAAAAAAJ+5meJBT264OzOvIuLc9QYAAAAAX2lP/P6NJQAW6tS/3HJvCQAAAADgK5dT/NbRKTZ3a+0GAAAAgJddn7i9e2MJgIU62d6bmZuIuLQEAAAAAPCiyc0dT2q4u3sw5QYlAAAAAHxbe8L3bsQPLNQp239a8QMAAADAN11n5tmUDnhqzd2tawwAAAAAvuuU7d3n4gcW6iTFNFq7AQAAAGArk2rvnsxwdzc1f+X6AgAAAIBXtcd+w27AEGCxTvSLNa3kAQAAAOBVN1M62B8mFuzK9QUAAAAArzpFe/da7MDCHXXf1doNAAAAAFs7z8ybqRzslIa7b11bAAAAALC19sjv14gcWLjNzPd5AAAAAJiym6kc6CSGu7v2iXPXFQAAAABs7djt3Zq7gaU72j6otRsAAAAAdnZ5gm893ctUmru1dgMAAADA7u6O+F6Gu4Gla474Xq24AQAAAGBn7RQOMqtq3Af4PCX/wfUEAAAAAHv5qaoehnwD9/AAnlVVDv0eXWv3e2kDAAAAwM6eIqKpqk9jPsgpNHffuJYAAAAAYG/tEd6jETNARGYe41sM7iUNAAAAAHtZRcTV2A/ScDcAAAAAzNtl1/I6pI2YASIiYtDh7sy8iYhzMQMAAADA3m7HfoCjHu52kxIAAAAAetEO/PqNiAGOsh+2IgYAAACAg1wc6Rv49jb25u4b1xAAAAAAHGzo9u61iAEiYsBvMlCIAwAAAAC9GXV7d1bVOA8ss4mID64fAAAAAOjFr1W1GeKFM7PECxARER+rqhlor30Mw90AAAAA0IeniGiq6tMYD27Mzd23rh0AAAAA6M0g7d1j/+pCgCMbZPhaazcAAAAA9GoVEVdjPbgxD3ffuHYAAAAAoFftAK/ZiBXgT0P8Is1A+zcAAAAALNloS6hHOdydmVfxPBUPAAAAAPRniPZuzd0AA+6LWrsBAAAAYBAXfuvjoQAAIABJREFUY/120rE2d9+4ZgAAAABgEHc9v57hboDPNT2/XitSAAAAABjEKNu7RzfcnZlNRLxxvQAAAADAIC66Fti+GO4GGGhfzMzb0NoNAAAAAEO5ysyzsR3UGJu7b1wrAAAAADCotsfXMnQI8Llehru7h0qtOAEAAABgMKuIuBrbQRnuBgAAAIDlOe+jvTszN6IE+Mqq+5bSQ93G88MlAAAAAGA4N2M7oFENd3cPgzT9AAAAAMDw2h5eoxEjQP/7Y9fafStGAAAAABjcZU9lDb0ZW3P3jWsEAAAAAI6ij/butRgBXrQ58Oe1dgMAAADA8YyqaGE0w91dC8W16wMAAAAAjqY98OcNdwO8rNn3B7V2AwAAAMDRXY3pYH4QDAAAAAAs1qHt3Ya7AV7WHPCzWrsBAAAA4LjOM3M0c8xZVeM4kMzfIuLC9QEAAAAAR/Wxqppdf6hrlv1dfAAvq6rcc299DMPdAAAAAHBs/6qqmzEcyCiauzOzCYPdAAAAAHAK+7Z3a+0G+I7M3Gef1NoNAAAAAKdx3ZUvnNwPIwnkxjUBAAAAACdzt8cNy43YAL6r2eUPd/vwrdgAAAAA4GSuxnAQhrsBAAAAgFXsPlDYiA3gu3Zt7r4Lrd0AAAAAcEqjKF84+XB3Zm4i4tz1AAAAAAAndbtje3cjMoDv2nq4OzObiLgWGQAAAACc1EV3r+6kxtDcfeNaAAAAAICT27W9+1JkAN+1S3N3Ky4AAAAAGIWbUx9AVtVpDyDzU/iaQQAAAAAYg6eIaKrq0/f+UNda8UFcAN9XVfnan7GnAgAAAMCofKyq5pQHcNLm7sy8CoPdAAAAADAW27Z3r0UF8LrM3Gzxx1pJAQAAAMBonGfmSZ+D/HDiAG5cAwAAAAAwKreZefbKnzHcDbCd5nv/Z9fafS0mAAAAABiVm1O++cmGu7sHRG+sPwAAAACMyjbt3Ya7Abbz2n7ZiggAAAAARufqlG/+w1JPHAAAAAD4ptfauxsRAWzlm8PdWrsBAAAAYLTOM/Nkc86GuwEAAACAL73W3n0hIoCtfK+5uxUPAAAAAIzWyeacs6qO/6bPrT+/W3cAAAAAGLUfq+rxr/8hMzcR8V40AFv7W1V9+mIvXUfEf0QDAAAAAKP1VFVnp3jjUzV331hzAAAAABi99oX/1ogFYCcvtXffiQUAAAAARm2VmSdp7zbcDQAAAAB8y3VmNl/8t0YsADv5bLi7+waES7EAAAAAwOgtY7i7exh0Yb0BAAAAYBLaL/73RiQAO1m/sq8CAAAAAOO0mObuK2sNAAAAAJPxZXv3WiQAO/ljD9XaDQAAAACTssrMo889n2K4+8ZaAwAAAMCktBERmXkWEStxAOzk8sv9FAAAAACYjKMPd2dVHe/Nnht+PlhnAAAAAJicH+O5ffa9KADsoQAAAACwEE9VdXbMNzx2c/eVNQYAAACASWojYi0GgL2sQ2s3AAAAAEzRKjOPOv987OHuG2sMAAAAAJN0HREbMQDs5TYiLsUAAAAAAJN01OHurKrjvFFmExEfrC8AAAAAAAAAAAAAMBFPVXV2rDc7ZnP3lbUFAAAAAAAAAAAAACZklZlHm4M+5nD3xtoCAAAAAAAAAAAAABNztOHurKrh3yTzLCJ+t64AAAAAAAAAAAAAwMQ8VdXZMd7oWM3dV9YUAAAAAAAAAAAAAJigVWYeZR7acDcAAAAAAAAAAAAAwPdtjvEmWVXDvkHmWUT8bj0BAAAAAAAAAAAAgIn6WFXN0G9yjObujbUEAAAAAAAAAAAAACbsPDPXQ7/JMYa7r6wlAAAAAAAAAAAAADBxN0O/QVbVsG+Q+SkiVtYSAAAAAAAAAAAAAJiw/1bVoO3dgzZ3Z+YmDHYDAAAAAAAAAAAAANN3kZnNkG/ww8AncGUNAQAAAAAAAAAAAICZGHQ+2nA3AAAAAAAAAAAAAMB2NkO+eFbVMC/8XDn+wfoBAAAAAAAAAAAAADPyt6r6NMQLD9ncrbUbAAAAAAAAAAAAAJibzVAvbLgbAAAAAAAAAAAAAGB7g81JZ1X1/6KZZxHxu3UDAAAAAAAAAAAAAGbmqarOhnjhoZq7N9YMAAAAAAAAAAAAAJihVWauh3jhoYa7r6wZAAAAAAAAAAAAADBTg8xLa+4GAAAAAAAAAAAAANjNIMPdWVX9vuBzxfh/rBcAAAAAAAAAAAAAMGN/q6pPfb7gEM3dG+sEAAAAAAAAAAAAAMxc7+3dP0zhIAEAAAAAAAAAAAAARmbT9wtmVfX7gpllnQAAAAAAAAAAAACAmftYVU2fL9hrc3dmau0GAAAAAAAAAAAAAJbgPDPXfb7gDz0f4MYaAQAAAAAAAAAAAAALsenzxQx3AwAAAAAAAAAAAADsZ9Pni2VV9fNCmU1EfLA+AAAAAAAAAAAAAMBSVFX29Vp9NndvLA0AAAAAAAAAAAAAsCSZuenrtQx3AwAAAAAAAAAAAADs76qvFzLcDQAAAAAAAAAAAACwv01fL5RVdfiLZK4j4j/WBQAAAAAAAAAAAABYoL9V1adDX6Sv5u6N9QAAAAAAAAAAAAAAFmrTx4sY7gYAAAAAAAAAAAAAOMymjxcx3A0AAAAAAAAAAAAAcJhNHy9y8HB3Zq4jYmU9AAAAAAAAAAAAAICFusjMs0NfpI/m7o21AAAAAAAAAAAAAAAWbnPoCxjuBgAAAAAAAAAAAAA43ObQFzDcDQAAAAAAAAAAAABwuM2hL3DQcHdmriNiZR0AAAAAAAAAAAAAgIW7yMyzQ17g0ObujTUAAAAAAAAAAAAAAIiIA+erDXcDAAAAAAAAAAAAAPRjc8gPHzrcvZY/AAAAAAAAAAAAAEBEHDjcnVW13w9mNhHxQf4AAAAAAAAAAAAAAM+qKvf92UOauzeiBwAAAAAAAAAAAAD4U2Zu9v1Zw90AAAAAAAAAAAAAAP3Z7PuDhwx3r+UOAAAAAAAAAAAAAPCZzb4/mFW1+w9lnkXE73IHAAAAAAAAAAAAAPjMU1Wd7fOD+zZ3a+0GAAAAAAAAAAAAAPjaKjP3mrfed7h7I3MAAAAAAAAAAAAAgBcZ7gYAAAAAAAAAAAAAGIHNPj+073D3Wt4AAAAAAAAAAAAAAC86TnN3Zq4jYiVvAAAAAAAAAAAAAIAXXWTm2a4/tE9zt9ZuAAAAAAAAAAAAAIDv23nuep/h7o2cAQAAAAAAAAAAAAC+a7PrD2juBgAAAAAAAAAAAADo32bXH8iq2u0HMkvOAAAAAAAAwP+xczfHjRtRFEb7IQEhA3UIyMDIPwmXI3ApgvbCo5GG4g8okcBdnLMZEmhqqu76qwYAAADgqrcxxnzPD+66ubuqVhsDAAAAAAAAAAAAANz0UlX9nh9Md/4Hi40BAAAAAAAAAAAAADa5q7++N+5e7QsAAAAAAAAAAAAAsMlT4243dwMAAAAAAAAAAAAAbLPec7jGGNsOVs2ttX/tCwAAAAAAAAAAAACwydsYY956+J6bu93aDQAAAAAAAAAAAACw3UtV9a2H74m7V9sCAAAAAAAAAAAAANxl8yXb98Td3a4AAAAAAAAAAAAAAHd5Sty92BUAAAAAAAAAAAAA4C7r1oM1xth2sGrYFQAAAAAAAAAAAADgLm9jjHnLwU03d1fValMAAAAAAAAAAAAAgLu9VFXfcnDa+AcXmwIAAAAAAAAAAAAAfEvfcmh65B8DAAAAAAAAAAAAAOCLdcshN3cDAAAAAAAAAAAAADzXph57a9z9lz0BAAAAAAAAAAAAAL6lbzlUY4zrB6p6a+1vewIAAAAAAAAAAAAAfM8Yo26d2XJz92JKAAAAAAAAAAAAAIDvq6r11hlxNwAAAAAAAAAAAADA8/VbB8TdAAAAAAAAAAAAAADP128dmB7xRwAAAAAAAAAAAAAAuGq9daDGGNcPVA07AgAAAAAAAAAAAAD8yD9jjH7twNWbu6tqsSEAAAAAAAAAAAAAwI+93jow3XjfbQgAAAAAAAAAAAAA8HNVtV57fyvudnM3AAAAAAAAAAAAAMBj9Gsvxd0AAAAAAAAAAAAAAPvo115OP/kxAAAAAAAAAAAAAACbrdde1hjj8suqYT8AAAAAAAAAAAAAgIf4Z4zRL728eHN3VXXbAQAAAAAAAAAAAAA8zOu1l9OVd912AAAAAAAAAAAAAACPU1XLpXfX4u7VdAAAAAAAAAAAAAAAD9UvvbgWd892AwAAAAAAAAAAAAB4qG/d3L3YDQAAAAAAAAAAAADgofqlF+JuAAAAAAAAAAAAAID99Esvaoxx/kXVsBsAAAAAAAAAAAAAwEO9jTHmcy/O3txdVavNAAAAAAAAAAAAAAAe7uXSi+nC89lmAAAAAAAAAAAAAACPd+ky7ktx92IyAAAAAAAAAAAAAICnOHsZt5u7AQAAAAAAAAAAAAD2dfYybjd3AwAAAAAAAAAAAADsq597ON1zGAAAAAAAAAAAAACAH+vnHtYY4+vDqmEvAAAAAAAAAAAAAICneBtjzKcPv9zcXVXdVgAAAAAAAAAAAAAAT/Ny7uF05lm3FQAAAAAAAAAAAADA81TVcvrsXNy9mAoAAAAAAAAAAAAA4Knm0wfTlkMAAAAAAAAAAAAAADyUm7sBAAAAAAAAAAAAAAK4uRsAAAAAAAAAAAAAIMCmm7u7nQAAAAAAAAAAAAAAnmrTzd2vdgIAAAAAAAAAAAAAeKp++uCPuLuquo0AAAAAAAAAAAAAAJ7uy6Xcpzd3dxsBAAAAAAAAAAAAADzf6eXcp3H3bCIAAAAAAAAAAAAAgF30z19O4+7FPgAAAAAAAAAAAAAAu/jjcu7JHgAAAAAAAAAAAAAAh/jjcu7TuHu1DwAAAAAAAAAAAADA/tzcDQAAAAAAAAAAAABwjKs3d3f7AAAAAAAAAAAAAADsYv785TTufrUPAAAAAAAAAAAAAMAu+ucvNcb4+FI17AMAAAAAAAAAAAAAsI8xRr1//n1zd1WtpgEAAAAAAAAAAAAAOMZkAgAAAAAAAAAAAACAY1TV8v75c9zdTQMAAAAAAAAAAAAAsKv5/YO4GwAAAAAAAAAAAADgOGfjbgAAAAAAAAAAAAAA9rW8f5jOPQQAAAAAAAAAAAAAYF+f4+7ZHAAAAAAAAAAAAAAAu/rdcU+2AAAAAAAAAAAAAAA4zPL+YTr3EAAAAAAAAAAAAACAfX2Ou1/MAQAAAAAAAAAAAACwq/n9Q40x/v9QNewCAAAAAAAAAAAAALCvMUa19uvm7qrqJgEAAAAAAAAAAAAAOM70699uCgAAAAAAAAAAAACA/VXV3NpH3A0AAAAAAAAAAAAAwDGW1j7i7tkeAAAAAAAAAAAAAADHeY+7F1MAAAAAAAAAAAAAABxnMgEAAAAAAAAAAAAAwKGW1sTdAAAAAAAAAAAAAABHm1v7iLu7PQAAAAAAAAAAAAAAjiPuBgAAAAAAAAAAAAAIMJkAAAAAAAAAAAAAAOBQS2vibgAAAAAAAAAAAACAo82tfcTd3R4AAAAAAAAAAAAAAMd5j7tfTQEAAAAAAAAAAAAAcJzJBAAAAAAAAAAAAAAAh+qttVZjjFZVwx4AAAAAAAAAAAAAAMcYY5SbuwEAAAAAAAAAAAAAAkxVtZoBAAAAAAAAAAAAAOBYbu4GAAAAAAAAAAAAAAgg7gYAAAAAAAAAAAAAOFhVLeJuAAAAAAAAAAAAAIDjzeJuAAAAAAAAAAAAAIAAU2utmwEAAAAAAAAAAAAA4FjibgAAAAAAAAAAAACAAJMJAAAAAAAAAAAAAACOJ+4GAAAAAAAAAAAAADjeIu4GAAAAAAAAAAAAADjeLO4GAAAAAAAAAAAAAAgg7gYAAAAAAAAAAAAACDC11roZAAAAAAAAAAAAAACOJe4GAAAAAAAAAAAAAAgwmQAAAAAAAAAAAAAA4HjibgAAAAAAAAAAAACAAOJuAAAAAAAAAAAAAIAA4m4AAAAAAAAAAAAAgOOt4m4AAAAAAAAAAAAAgADibgAAAAAAAAAAAACAAOJuAAAAAAAAAAAAAIAA4m4AAAAAAAAAAAAAgADibgAAAAAAAAAAAACAAOJuAAAAAAAAAAAAAIAA4m4AAAAAAAAAAAAAgADibgAAAAAAAAAAAACAAOJuAAAAAAAAAAAAAIAA4m4AAAAAAAAAAAAAgABTa20xAwAAAAAAAAAAAADAsabW2osZAAAAAAAAAAAAAACONZkAAAAAAAAAAAAAAOB44m4AAAAAAAAAAAAAgADibgAAAAAAAAAAAACAAOJuAAAAAAAAAAAAAIAA4m4AAAAAAAAAAAAAgADibgAAAAAAAAAAAACAAOJuAAAAAAAAAAAAAIAA4m4AAAAAAAAAAAAAgADibgAAAAAAAAAAAACAAOJuAAAAAAAAAAAAAIAA4m4AAAAAAAAAAAAAgADibgAAAAAAAAAAAACAAOJuAAAAAAAAAAAAAIAA4m4AAAAAAAAAAAAAgADibgAAAAAAAAAAAACAAOJuAAAAAAAAAAAAAIAA4m4AAAAAAAAAAAAAgADibgAAAAAAAAAAAACAAOJuAAAAAAAAAAAAAIAA4m4AAAAAAAAAAAAAgADibgAAAAAAAAAAAACAAOJuAAAAAAAAAAAAAIAA4m4AAAAAAAAAAAAAgADibgAAAAAAAAAAAACAAOJuAAAAAAAAAAAAAIAA4m4AAAAAAAAAAAAAgADibgAAAAAAAAAAAACAAOJuAAAAAAAAAAAAAIAA4m4AAAAAAAAAAAAAgADibgAAAAAAAAAAAACAAOJuAAAAAAAAAAAAAIAA4m4AAAAAAAAAAAAAgADibgAAAAAAAAAAAACAAOJuAAAAAAAAAAAAAIAA4m4AAAAAAAAAAAAAgADibgAAAAAAAAAAAACAAOJuAAAAAAAAAAAAAIAA4m4AAAAAAAAAAAAAgADibgAAAAAAAAAAAACAAOJuAAAAAAAAAAAAAIAA4m4AAAAAAAAAAAAAgADibgAAAAAAAAAAAACAAOJuAAAAAAAAAAAAAIAA4m4AAAAAAAAAAAAAgADibgAAAAAAAAAAAACAAOJuAAAAAAAAAAAAAIAA4m4AAAAAAAAAAAAAgADibgAAAAAAAAAAAACAAOJuAAAAAAAAAAAAAIAA4m4AAAAAAAAAAAAAgADibgAAAAAAAAAAAACAAOJuAAAAAAAAAAAAAIAA4m4AAAAAAAAAAAAAgADibgAAAAAAAAAAAACAAOJuAAAAAAAAAAAAAIAA4m4AAAAAAAAAAAAAgADibgAAAAAAAAAAAACAAOJuAAAAAAAAAAAAAIAA4m4AAAAAAAAAAAAAgADibgAAAAAAAAAAAACAAOJuAAAAAAAAAAAAAIAA4m4AAAAAAAAAAAAAgADibgAAAAAAAAAAAACAAOJuAAAAAAAAAAAAAIAA4m4AAAAAAAAAAAAAgADibgAAAAAAAAAAAACAAOJuAAAAAAAAAAAAAIAA4m4AAAAAAAAAAAAAgADibgAAAAAAAAAAAACAAOJuAAAAAAAAAAAAAIAA4m4AAAAAAAAAAAAAgADibgAAAAAAAAAAAACAAOJuAAAAAAAAAAAAAIAA4m4AAAAAAAAAAAAAgADibgAAAAAAAAAAAACAAOJuAAAAAAAAAAAAAIAA4m4AAAAAAAAAAAAAgADibgAAAAAAAAAAAACAAOJuAAAAAAAAAAAAAIAA4m4AAAAAAAAAAAAAgADibgAAAAAAAAAAAACAAOJuAAAAAAAAAAAAAIAA4m4AAAAAAAAAAAAAgADibgAAAAAAAAAAAACAAOJuAAAAAAAAAAAAAIAA4m4AAAAAAAAAAAAAgADibgAAAAAAAAAAAACAAOJuAAAAAAAAAAAAAIAA4m4AAAAAAAAAAAAAgADibgAAAAAAAAAAAACAAOJuAAAAAAAAAAAAAIAA4m4AAAAAAAAAAAAAgADibgAAAAAAAAAAAACAAOJuAAAAAAAAAAAAAIAA4m4AAAAAAAAAAAAAgADibgAAAAAAAAAAAACAAOJuAAAAAAAAAAAAAIAA4m4AAAAAAAAAAAAAgADibgAAAAAAAAAAAACAAOJuAAAAAAAAAAAAAIAA4m4AAAAAAAAAAAAAgADibgAAAAAAAAAAAACAAOJuAAAAAAAAAAAAAIAA4m4AAAAAAAAAAAAAgADibgAAAAAAAAAAAACAAOJuAAAAAAAAAAAAAIAA4m4AAAAAAAAAAAAAgADibgAAAAAAAAAAAACAAOJuAAAAAAAAAAAAAIAA4m4AAAAAAAAAAAAAgADibgAAAAAAAAAAAACAAOJuAAAAAAAAAAAAAIAA4m4AAAAAAAAAAAAAgADibgAAAAAAAAAAAACAAOJuAAAAAAAAAAAAAIAA4m4AAAAAAAAAAAAAgADibgAAAAAAAAAAAACAAOJuAAAAAAAAAAAAAIAA4m4AAAAAAAAAAAAAgADibgAAAAAAAAAAAACAAOJuAAAAAAAAAAAAAIAA4m4AAAAAAAAAAAAAgADibgAAAAAAAAAAAACAAOJuAAAAAAAAAAAAAIAA4m4AAAAAAAAAAAAAgADibgAAAAAAAAAAAACAAOJuAAAAAAAAAAAAAIAA4m4AAAAAAAAAAAAAgADibgAAAAAAAAAAAACAAOJuAAAAAAAAAAAAAIAA4m4AAAAAAAAAAAAAgADibgAAAAAAAAAAAACAAOJuAAAAAAAAAAAAAIAA4m4AAAAAAAAAAAAAgADibgAAAAAAAAAAAACAAOJuAAAAAAAAAAAAAIAA4m4AAAAAAAAAAAAAgADibgAAAAAAAAAAAACAAOJuAAAAAAAAAAAAAIAA4m4AAAAAAAAAAAAAgADibgAAAAAAAAAAAACAAOJuAAAAAAAAAAAAAIAA4m4AAAAAAAAAAAAAgADibgAAAAAAAAAAAACAAOJuAAAAAAAAAAAAAIAA4m4AAAAAAAAAAAAAgADibgAAAAAAAAAAAACAAOJuAAAAAAAAAAAAAIAA4m4AAAAAAAAAAAAAgADibgAAAAAAAAAAAACAAOJuAAAAAAAAAAAAAIAA4m4AAAAAAAAAAAAAgADibgAAAAAAAAAAAACAAOJuAAAAAAAAAAAAAIAA4m4AAAAAAAAAAAAAgADibgAAAAAAAAAAAACAAOJuAAAAAAAAAAAAAIAA4m4AAAAAAAAAAAAAgADibgAAAAAAAAAAAACAAOJuAAAAAAAAAAAAAIAA4m4AAAAAAAAAAAAAgADibgAAAAAAAAAAAACAAOJuAAAAAAAAAAAAAIAA4m4AAAAAAAAAAAAAgADibgAAAAAAAAAAAACAAOJuAAAAAAAAAAAAAIAA4m4AAAAAAAAAAAAAgADibgAAAAAAAAAAAACAAOJuAAAAAAAAAAAAAIAA4m4AAAAAAAAAAAAAgADibgAAAAAAAAAAAACAAOJuAAAAAAAAAAAAAIAA4m4AAAAAAAAAAAAAgADibgAAAAAAAAAAAACAAOJuAAAAAAAAAAAAAIAA4m4AAAAAAAAAAAAAgADibgAAAAAAAAAAAACAAOJuAAAAAAAAAAAAAIAA4m4AAAAAAAAAAAAAgADibgAAAAAAAAAAAACAAOJuAAAAAAAAAAAAAIAA4m4AAAAAAAAAAAAAgADibgAAAAAAAAAAAACAAOJuAAAAAAAAAAAAAIAA4m4AAAAAAAAAAAAAgADibgAAAAAAAAAAAACAAOJuAAAAAAAAAAAAAIAA4m4AAAAAAAAAAAAAgADibgAAAAAAAAAAAACAAOJuAAAAAAAAAAAAAIAA4m4AAAAAAAAAAAAAgADibgAAAAAAAAAAAACAAOJuAAAAAAAAAAAAAIAA4m4AAAAAAAAAAAAAgADibgAAAAAAAAAAAACAAOJuAAAAAAAAAAAAAIAA4m4AAAAAAAAAAAAAgADibgAAAAAAAAAAAACAAOJuAAAAAAAAAAAAAIAA4m4AAAAAAAAAAAAAgADibgAAAAAAAAAAAACAAOJuAAAAAAAAAAAAAIAA4m4AAAAAAAAAAAAAgADibgAAAAAAAAAAAACAAOJuAAAAAAAAAAAAAIAA4m4AAAAAAAAAAAAAgADibgAAAAAAAAAAAACAAOJuAAAAAAAAAAAAAIAA4m4AAAAAAAAAAAAAgADibgAAAAAAAAAAAACAAOJuAAAAAAAAAAAAAIAA4m4AAAAAAAAAAAAAgADibgAAAAAAAAAAAACAAOJuAAAAAAAAAAAAAIAA4m4AAAAAAAAAAAAAgADibgAAAAAAAAAAAACAAOJuAAAAAAAAAAAAAIAA4m4AAAAAAAAAAAAAgADibgAAAAAAAAAAAACAAOJuAAAAAAAAAAAAAIAA4m4AAAAAAAAAAAAAgADibgAAAAAAAAAAAACAAOJuAAAAAAAAAAAAAIAA4m4AAAAAAAAAAAAAgADibgAAAAAAAAAAAACAAOJuAAAAAAAAAAAAAIAA4m4AAAAAAAAAAAAAgADibgAAAAAAAAAAAACAAOJuAAAAAAAAAAAAAIAA4m4AAAAAAID/2rVjAQAAAIBB/tbT2FEcAQAAAAAMyN0AAAAAAAAAAAAAAANyNwAAAAAAAAAAAADAgNwNAAAAAAAAAAAAADAgdwMAAAAAAAAAAAAADMjdAAAAAAAAAAAAAAADcjcAAAAAAAAAAAAAwIDcDQAAAAAAAAAAAAAwIHcDAAAAAAAAAAAAAAzI3QAAAAAAAAAAAAAAA3I3AAAAAAAAAAAAAMCA3A0AAAAAAAAAAAAAMCB3AwAAAAAAAAAAAAAMyN0AAAAAAAAAAAAAAANyNwAAAAAAAAAAAADAgNwNAAAAAAAAAAAAADAgdwMAAAAAAAAAAAAADMjdAAAAAAAAAAAAAAADcjcAAAAAAAAAAAAAwIDcDQAAAAAAAAAAAAAwIHcDAAAAAAAAAAAAAAzI3QAAAAAAAAAAAAAAA3I3AAAAAAAAAAAAAMCA3A0AAAAAAAAAAADm5SbOAAAFFElEQVQAMCB3AwAAAAAAAAAAAAAMyN0AAAAAAAAAAAAAAANyNwAAAAAAAAAAAADAgNwNAAAAAAAAAAAAADAgdwMAAAAAAAAAAAAADMjdAAAAAAAAAAAAAAADcjcAAAAAAAAAAAAAwIDcDQAAAAAAAAAAAAAwIHcDAAAAAAAAAAAAAAzI3QAAAAAAAAAAAAAAA3I3AAAAAAAAAAAAAMCA3A0AAAAAAAAAAAAAMCB3AwAAAAAAAAAAAAAMyN0AAAAAAAAAAAAAAANyNwAAAAAAAAAAAADAgNwNAAAAAAAAAAAAADAgdwMAAAAAAAAAAAAADMjdAAAAAAAAAAAAAAADcjcAAAAAAAAAAAAAwIDcDQAAAAAAAAAAAAAwIHcDAAAAAAAAAAAAAAzI3QAAAAAAAAAAAAAAA3I3AAAAAAAAAAAAAMCA3A0AAAAAAAAAAAAAMCB3AwAAAAAAAAAAAAAMyN0AAAAAAAAAAAAAAANyNwAAAAAAAAAAAADAgNwNAAAAAAAAAAAAADAgdwMAAAAAAAAAAAAADMjdAAAAAAAAAAAAAAADcjcAAAAAAAAAAAAAwIDcDQAAAAAAAAAAAAAwIHcDAAAAAAAAAAAAAAzI3QAAAAAAAAAAAAAAA3I3AAAAAAAAAAAAAMCA3A0AAAAAAAAAAAAAMCB3AwAAAAAAAAAAAAAMyN0AAAAAAAAAAAAAAANyNwAAAAAAAAAAAADAgNwNAAAAAAAAAAAAADAgdwMAAAAAAAAAAAAADMjdAAAAAAAAAAAAAAADcjcAAAAAAAAAAAAAwIDcDQAAAAAAAAAAAAAwIHcDAAAAAAAAAAAAAAzI3QAAAAAAAAAAAAAAA3I3AAAAAAAAAAAAAMCA3A0AAAAAAAAAAAAAMCB3AwAAAAAAAAAAAAAMyN0AAAAAAAAAAAAAAANyNwAAAAAAAAAAAADAgNwNAAAAAAAAAAAAADAgdwMAAAAAAAAAAAAADMjdAAAAAAAAAAAAAAADcjcAAAAAAAAAAAAAwIDcDQAAAAAAAAAAAAAwIHcDAAAAAAAAAAAAAAzI3QAAAAAAAAAAAAAAA3I3AAAAAAAAAAAAAMCA3A0AAAAAAAAAAAAAMCB3AwAAAAAAAAAAAAAMyN0AAAAAAAAAAAAAAANyNwAAAAAAAAAAAADAgNwNAAAAAAAAAAAAADAgdwMAAAAAAAAAAAAADMjdAAAAAAAAAAAAAAADcjcAAAAAAAAAAAAAwIDcDQAAAAAAAAAAAAAwIHcDAAAAAAAAAAAAAAzI3QAAAAAAAAAAAAAAA3I3AAAAAAAAAAAAAMCA3A0AAAAAAAAAAAAAMCB3AwAAAAAAAAAAAAAMyN0AAAAAAAAAAAAAAANyNwAAAAAAAAAAAADAgNwNAAAAAAAAAAAAADAgdwMAAAAAAAAAAAAADMjdAAAAAAAAAAAAAAADcjcAAAAAAAAAAAAAwIDcDQAAAAAAAAAAAAAwIHcDAAAAAAAAAAAAAAzI3QAAAAAAAAAAAAAAA3I3AAAAAAAAAAAAAMCA3A0AAAAAAAAAAAAAMCB3AwAAAAAAAAAAAAAMyN0AAAAAAAAAAAAAAANyNwAAAAAAAAAAAADAgNwNAAAAAAAAAAAAADAgdwMAAAAAAAAAAAAADMjdAAAAAAAAAAAAAAADcjcAAAAAAAAAAAAAwIDcDQAAAAAAAAAAAAAwIHcDAAAAAAAAAAAAAAzI3QAAAAAAAAAAAAAAAwGel0/Dp8+xDQAAAABJRU5ErkJggg==;" vertex="1" parent="1">
                    <mxGeometry x="713.12" y="259.63" width="53.75" height="50.75" as="geometry"/>
                </mxCell>
                <mxCell id="54" value="データ利用者" style="text;html=1;strokeColor=none;fillColor=none;align=center;verticalAlign=middle;whiteSpace=wrap;rounded=0;dashed=1;" vertex="1" parent="1">
                    <mxGeometry x="689.99" y="310.38" width="100" height="39.25" as="geometry"/>
                </mxCell>
            </root>
        </mxGraphModel>
    </diagram>
</mxfile>